<svg xmlns="http://www.w3.org/2000/svg" width="10.67" height="13.116" viewBox="0 0 10.67 13.116">
    <path data-name="패스 13043" d="M8.914 6.975a2.976 2.976 0 0 1 1.419-2.5 3.051 3.051 0 0 0-2.4-1.3c-1.012-.107-1.991.606-2.507.606s-1.321-.6-2.175-.578A3.2 3.2 0 0 0 .557 4.847c-1.165 2.017-.295 4.98.816 6.612.558.8 1.211 1.692 2.065 1.658.836-.034 1.146-.532 2.157-.532s1.292.532 2.163.513c.9-.015 1.46-.8 2-1.608a6.637 6.637 0 0 0 .915-1.862 2.883 2.883 0 0 1-1.758-2.651"/>
    <path data-name="패스 13044" d="M7.269 2.098a2.943 2.943 0 0 0 .672-2.1 2.991 2.991 0 0 0-1.932 1 2.785 2.785 0 0 0-.69 2.025 2.467 2.467 0 0 0 1.95-.922"/>
</svg>
