<svg xmlns="http://www.w3.org/2000/svg" width="14.896" height="16" viewBox="0 0 14.896 16">
    <path data-name="패스 13142" d="M4608.344 1702.714a.53.53 0 0 1-.5-.342 6.106 6.106 0 0 0-2.689-2.824.53.53 0 0 1-.23-.63 10.6 10.6 0 0 1 1.663-2.23l.675-.8a8.135 8.135 0 0 0-2.964.769c-.961.4-1.869.775-2.827.271a1.249 1.249 0 0 1-.708-1.255 2.281 2.281 0 0 1 .1-.61c.062-.232.061-.241.007-.306-.031-.019-.364-.184-1.745.2-.939.26-1.979.663-2.739.958-.268.1-.5.193-.68.259a.53.53 0 1 1-.361-1c.17-.062.4-.149.658-.251 3.134-1.214 4.967-1.709 5.68-.85a1.26 1.26 0 0 1 .206 1.261 1.341 1.341 0 0 0-.061.338c0 .241 0 .241.141.316.495.26 1 .072 1.927-.312a8.566 8.566 0 0 1 4.5-.807.53.53 0 0 1 .363.853c-.417.538-.9 1.106-1.36 1.655-.423.5-.958 1.135-1.256 1.544a6.868 6.868 0 0 1 2.693 3.077.531.531 0 0 1-.5.72zm-7.469-7.96z" transform="translate(-4593.978 -1691.403)" style="fill:#ff754b"/>
    <path data-name="패스 13143" d="M4595.527 1856.192a.531.531 0 0 1-.181-1.029c.167-.061.388-.146.645-.245 3.156-1.219 5-1.717 5.716-.856a.531.531 0 0 1-.812.683c-.031-.018-.366-.186-1.766.2-.948.262-1.993.666-2.756.961-.262.1-.488.188-.666.253a.533.533 0 0 1-.18.033z" transform="translate(-4593.978 -1844.606)" style="fill:#ff754b"/>
    <path data-name="패스 13144" d="M4732.683 1737.834a2.049 2.049 0 0 1-.975-.242 1.265 1.265 0 0 1-.708-1.27v-6.791a.531.531 0 1 1 1.061 0v6.791c0 .257.005.26.141.331.495.26 1 .072 1.927-.312a8.567 8.567 0 0 1 4.5-.807.531.531 0 0 1-.112 1.055 7.446 7.446 0 0 0-3.985.732 5.022 5.022 0 0 1-1.849.513z" transform="translate(-4724.209 -1725.265)" style="fill:#ff754b"/>
    <path data-name="패스 13145" d="M4595.531 1702.963a.531.531 0 0 1-.531-.531v-12.9a.531.531 0 1 1 1.061 0v12.9a.53.53 0 0 1-.53.531z" transform="translate(-4593.981 -1686.963)" style="fill:#ff754b"/>
    <path data-name="패스 13146" d="M4572.549 1644.1a1.549 1.549 0 1 1 1.549-1.549 1.551 1.551 0 0 1-1.549 1.549zm0-2.037a.488.488 0 1 0 .488.488.489.489 0 0 0-.488-.49z" transform="translate(-4571 -1641)" style="fill:#ff754b"/>
</svg>
