<svg xmlns="http://www.w3.org/2000/svg" width="36" height="36" viewBox="0 0 36 36">
    <circle data-name="타원 145" cx="18" cy="18" r="18" style="fill:#ffe2d9"/>
    <g data-name="그룹 28163">
        <path data-name="패스 14965" d="M2715.914 2207.255a2.794 2.794 0 0 0-.289.476 13.03 13.03 0 0 1 .206 1.152l.018.117.064.438.006.042c.131-.174.264-.347.4-.509a5.829 5.829 0 0 1 .605-.608c.2-.175.433-.356.71-.555.251-.18.507-.35.685-.456a1.7 1.7 0 0 0 .258-.151.173.173 0 0 0-.039-.047l-.1-.105a4.7 4.7 0 0 1-.319-.4c-.088-.124-.16-.25-.218-.351l-.033-.058c-.06-.1-.108-.176-.156-.25-.022-.035-.069-.029-.166.037-.2.12-.667.4-1 .635a2.965 2.965 0 0 0-.632.593z" transform="translate(-2694.671 -2197.975)" style="fill:#ff754b"/>
        <path data-name="패스 14966" d="m2695.044 2255.2.093.28.061.186c.044.131.087.244.133.348a1.846 1.846 0 0 0 .132.257.907.907 0 0 0 .058.078l-.055-.375-.018-.117a13.853 13.853 0 0 0-.206-1.138c-.085-.132-.2-.359-.245-.359s-.085.222-.131.361c.062.162.125.328.178.479z" transform="translate(-2674.533 -2244.915)" style="fill:#ff754b"/>
        <path data-name="패스 14967" d="M2671.021 2261.718a2.947 2.947 0 0 0 .2.3c.08.123.168.276.245.412l.012.02.208.365s.116.2.177.3a2.408 2.408 0 0 0 .21.285 2.968 2.968 0 0 0 .209.211l.055.052c.04.038.069.065.1.088l.012.009a6.364 6.364 0 0 0-.029-.2l-.006-.039c0-.021-.006-.043-.01-.065a11.417 11.417 0 0 0-.167-.191l-.014-.015a1.456 1.456 0 0 1-.149-.186 2.042 2.042 0 0 1-.151-.293 4.642 4.642 0 0 1-.14-.368 8.538 8.538 0 0 1-.062-.189 8.804 8.804 0 0 0-.091-.275 2.843 2.843 0 0 0-.188-.489.782.782 0 0 0-.209-.227c-.007 0-.025-.01-.1.062a.517.517 0 0 0-.151.212.349.349 0 0 0 .039.221z" transform="translate(-2651.351 -2251.568)" style="fill:#ff754b"/>
        <path data-name="패스 14968" d="M2728.4 2344.328V2344.879a4.6 4.6 0 0 0 .056.574c.028.182.071.4.113.593.024.1.044.182.063.249l.023-.032.034-.046a1.7 1.7 0 0 1 .17-.177 1.389 1.389 0 0 1 .2-.164 1.084 1.084 0 0 1 .241-.1l.161-.052a1.081 1.081 0 0 0-.034-.221 1.561 1.561 0 0 0-.139-.349 2.64 2.64 0 0 0-.259-.387 4.526 4.526 0 0 0-.323-.358c-.105-.108-.219-.219-.344-.341a.877.877 0 0 1 .038.26z" transform="translate(-2707.041 -2331.937)" style="fill:#ff754b"/>
        <path data-name="패스 14969" d="M2656.161 2284.2c-.013.006-.042.02 0 .144a4.86 4.86 0 0 0 .369.664c.076.08.15.158.24.261l.094.109c.081.094.164.192.243.275a3.644 3.644 0 0 0 .277.256l.084.074c.083.071.16.139.24.2a2.521 2.521 0 0 0 .281.184l.086.046v-.08l-.043-.022a1.121 1.121 0 0 1-.146-.1c-.038-.03-.071-.062-.114-.1l-.053-.051a3.208 3.208 0 0 1-.226-.229 2.684 2.684 0 0 1-.232-.314 5.75 5.75 0 0 1-.184-.309l-.208-.365-.011-.021a9.01 9.01 0 0 0-.237-.4c-.063-.1-.124-.176-.185-.255a.8.8 0 0 0-.275.033z" transform="translate(-2636.962 -2273.835)" style="fill:#ff754b"/>
        <path data-name="패스 14970" d="M2735.438 2249.4a2.6 2.6 0 0 1-.082-1.216c.013-.072 0-.087-.048-.087a2.594 2.594 0 0 0-.344.026 1.333 1.333 0 0 0-.293.131l-.061.031c-.037.018-.288.163-.378.213l-.014.009a11.667 11.667 0 0 0-1.233.906 5.674 5.674 0 0 0-.58.583c-.135.157-.267.328-.4.5l.2-.077c.252-.1.679-.254 1.087-.4.39-.14.8-.286 1.141-.381a8.192 8.192 0 0 0 1.005-.238z" transform="translate(-2710.565 -2238.836)" style="fill:#ff754b"/>
        <path data-name="패스 14971" d="M2742.029 2302.069a9.17 9.17 0 0 0-.322-.363c-.044-.044-.221-.02-.346-.005a4.8 4.8 0 0 0-.733.158c-.335.095-.738.237-1.125.376-.406.146-.831.3-1.082.4l-.1.037h.068a2.216 2.216 0 0 1 .527.116 2.133 2.133 0 0 1 .565.271 2.453 2.453 0 0 1 .308.262.438.438 0 0 0 .281.081 1.533 1.533 0 0 0 .247-.063 3.269 3.269 0 0 1 .352-.093 4.224 4.224 0 0 1 .794-.049h.038c.131-.038-.277-.235-.539-.322a3.9 3.9 0 0 0-.447-.113c-.236-.049-.406-.085-.374-.246.042-.214.665-.287 1-.267a4.542 4.542 0 0 1 .848.158c.13.033.242.062.319.073.015 0 .032 0 .03-.012a2.262 2.262 0 0 0-.309-.399z" transform="translate(-2716.693 -2290.823)" style="fill:#ff754b"/>
        <path data-name="패스 14972" d="M2740.405 2344.649a1.407 1.407 0 0 1 .039.225 1.4 1.4 0 0 0 .219.085.408.408 0 0 0 .2-.027c.049-.018.092-.041.121-.152a1.11 1.11 0 0 0-.008-.529.965.965 0 0 0-.24-.372 2.5 2.5 0 0 0-.324-.283 1.9 1.9 0 0 0-.5-.239 1.981 1.981 0 0 0-.469-.1h-.015l.191.191a4.762 4.762 0 0 1 .341.378 2.888 2.888 0 0 1 .283.424 1.845 1.845 0 0 1 .162.399z" transform="translate(-2717.765 -2331.153)" style="fill:#ff754b"/>
        <path data-name="패스 14973" d="M2332.43 2328.617a.812.812 0 0 1-.071-.02.909.909 0 0 1-.247-.13.809.809 0 0 1-.24-.3 2.849 2.849 0 0 1-.181-.531c-.032-.128-.06-.263-.087-.393l-.046-.218a2.776 2.776 0 0 0-.14-.474 1.428 1.428 0 0 0-.185-.311 2.052 2.052 0 0 0-.133-.16 1.305 1.305 0 0 1-.042.1 2.323 2.323 0 0 1-.238.423 2.467 2.467 0 0 1-.28.315.124.124 0 0 1-.177-.175 2.727 2.727 0 0 0 .209-.225l-.017.013c-.156.117-.359.24-.554.359h-.008a.124.124 0 0 1-.129-.212h.007a7.74 7.74 0 0 0 .535-.345 1.744 1.744 0 0 0 .318-.294 2.564 2.564 0 0 0 .371-.68c.079-.208.189-.431.251-.615a3.254 3.254 0 0 0 .139-.591 4.792 4.792 0 0 0 .037-.574c0-.166 0-.333-.011-.511a3.525 3.525 0 0 0-.052-.478 3.083 3.083 0 0 0-.135-.479 2.233 2.233 0 0 0-.2-.418 2.483 2.483 0 0 0-.241-.314l-.013-.014-.024-.027-.021.021c-.06.057-.146.131-.222.2a.124.124 0 1 1-.162-.188c.073-.063.155-.137.212-.188s.069-.136.074-.273v-.223a4.491 4.491 0 0 0-.068-.556 3.587 3.587 0 0 0-.1-.45 4.186 4.186 0 0 0-.145-.394l-.035-.082a.542.542 0 0 1-.054-.157.233.233 0 0 1 .006-.073.616.616 0 0 0 .005-.195 2.956 2.956 0 0 0-.295-1.046 5.855 5.855 0 0 0-1.023-1.594.3.3 0 0 0-.163-.039 1.031 1.031 0 0 0-.275.067.852.852 0 0 0-.188.08 1.169 1.169 0 0 0-.165.134 1.4 1.4 0 0 0-.144.149.681.681 0 0 0-.027.037.352.352 0 0 1-.11.111.343.343 0 0 1-.169.035h-.042a.124.124 0 0 1-.116-.09v-.007c-.027-.095-.055-.192-.092-.354-.044-.2-.087-.423-.116-.61a4.989 4.989 0 0 1-.059-.6v-.089a3.554 3.554 0 0 1-.209-.108 2.691 2.691 0 0 1-.309-.2 4.31 4.31 0 0 1-.252-.21l-.084-.073a3.951 3.951 0 0 1-.294-.273 6.181 6.181 0 0 1-.252-.285l-.092-.106c-.085-.1-.156-.173-.229-.249-.047-.01-.1-.021-.209-.036a18.039 18.039 0 0 0-.643-.074 4.208 4.208 0 0 0-.854-.023 1.685 1.685 0 0 0-.695.224 1 1 0 0 0-.329.339 1.145 1.145 0 0 0-.065.123.3.3 0 0 0-.016.188.608.608 0 0 0 .062.156c.116.2-.058.282-.183.127a1.229 1.229 0 0 1-.123-.227c0-.01-.006-.02-.009-.03a1.164 1.164 0 0 0-.09.038 8.323 8.323 0 0 0-.812.463 27.06 27.06 0 0 0-1.206.809 11.594 11.594 0 0 0-1.046.822 10.421 10.421 0 0 0-.965.983 5.929 5.929 0 0 0-.7.98 2.935 2.935 0 0 0-.295.8 3.624 3.624 0 0 0-.094.728 1.685 1.685 0 0 0 .082.558c.013.04.03.078.043.117.064.193.079.5.163.7a2.764 2.764 0 0 0 .173.329c.069.114.149.231.228.345l.009.012a.124.124 0 0 1-.032.173.122.122 0 0 1-.071.022.125.125 0 0 1-.1-.054l-.009-.013c-.08-.117-.163-.238-.236-.358a3.21 3.21 0 0 1-.182-.346.867.867 0 0 0-.194.692c.029.125.031.212.053.369a2.088 2.088 0 0 1 0 .612 3.893 3.893 0 0 1-.174.671c-.089.267-.2.553-.312.828-.054.129-.112.26-.169.391-.073.167-.149.34-.214.5a4.069 4.069 0 0 0-.239.753 3.67 3.67 0 0 0-.05.539 1 1 0 0 0 .061.375 2.03 2.03 0 0 0 .14.3 2.777 2.777 0 0 0 .206.325 2.809 2.809 0 0 0 .267.309c.15.147-.023.308-.182.17a2.127 2.127 0 0 1-.284-.329 2.993 2.993 0 0 1-.226-.355 2.28 2.28 0 0 1-.156-.337 1.563 1.563 0 0 1-.025-.073 5.975 5.975 0 0 0-.108.285 48.29 48.29 0 0 0-.1.278 5.037 5.037 0 0 1-.281.6c-.041.073-.078.133-.108.181s-.052.083-.066.113a.136.136 0 0 0-.017.1.2.2 0 0 0 .056.1.693.693 0 0 0 .217.129 3.268 3.268 0 0 0 .492.158c.2.05.443.095.714.133s.577.07.892.091c.283.02.623.035.958.042l.273.005a8.499 8.499 0 0 1 1.142.079c.252.033.531.076.855.129l.245.041c.28.047.6.1.9.144.369.052.753.094 1.175.128.318.026.679.049 1.1.07a7.363 7.363 0 0 0 .781.011 8.336 8.336 0 0 0 1.009-.129c.408-.072.944-.18 1.417-.276l.174-.035c.535-.108.932-.187 1.156-.21a.667.667 0 0 1 .344.028l.039.013a5.212 5.212 0 0 0 2.378-.168 3.484 3.484 0 0 0 .563-.241 1.334 1.334 0 0 0 .268-.192.2.2 0 0 0 .044-.062zm-5.988-5.529v.7h-1.677v.6h1.675v.7h-1.675v1.772h-1.188v-1.772h-1.68v-.7h1.68v-.6h-1.677v-.7h1.341l-1.625-3.362h1.36l1.2 2.619 1.2-2.619h1.359l-1.625 3.362z" transform="translate(-2306.232 -2302.106)" style="fill:#ff754b"/>
    </g>
</svg>
