<svg xmlns="http://www.w3.org/2000/svg" width="36" height="36" viewBox="0 0 36 36">
    <circle data-name="타원 146" cx="18" cy="18" r="18" style="fill:#cef2e6"/>
    <g data-name="16">
        <path data-name="패스 14976" d="m412.833 303.278.722-1.929-.587.18-.17.052-.025.008a4.394 4.394 0 0 0-.929-1.378 4.567 4.567 0 0 0-3.286-1.443 5.13 5.13 0 0 0-1.323.182 4.613 4.613 0 0 0-2.737 2.009 4.714 4.714 0 0 0-.711 2.617 8.2 8.2 0 0 0-2.172.3c-.051.016-.094.031-.136.007a7.556 7.556 0 0 0-1.49-.649.651.651 0 0 0-.707.225.632.632 0 0 0-.1.559c.094.327.223.763.3 1.012a.118.118 0 0 1-.039.148 4.62 4.62 0 0 0-1.155 1.77c-.017.046-.027.068-.112.078-.247.022-.5.053-.741.085h-.024a.47.47 0 0 0-.441.465v1.686a.468.468 0 0 0 .419.47l.165.019c.218.029.443.06.669.085.039 0 .041.007.051.036a4.839 4.839 0 0 0 1.291 1.923.159.159 0 0 1 .024.09 1.907 1.907 0 0 1-.034.3c-.008.049-.017.1-.022.153l-.046.324c-.037.281-.077.574-.114.862a.519.519 0 0 0 .129.414.526.526 0 0 0 .395.179h1.671a.521.521 0 0 0 .31-.087l.051-.046a.5.5 0 0 0 .138-.288c.022-.121.039-.24.053-.366l.017-.128a.326.326 0 0 0 .01-.07.535.535 0 0 1 .089.01c.23.034 1.037.068 1.838.1.235.01.436.017.528.022A5.961 5.961 0 0 0 406.7 313c.024-.008.036-.008.036-.015a.083.083 0 0 1 .014.046c.025.174.046.347.071.518l.012.1a.484.484 0 0 0 .491.467h1.683a.535.535 0 0 0 .4-.184.528.528 0 0 0 .126-.421l-.121-.9c-.051-.395-.1-.8-.157-1.2a.151.151 0 0 1 .046-.133A4.592 4.592 0 0 0 410.32 309a.048.048 0 0 1 0-.008 6.188 6.188 0 0 0 .013-1.219l.012-.005a5.725 5.725 0 0 0 1.381-.916v-.01c.047-.045.093-.092.139-.14q.095-.1.185-.2a4.2 4.2 0 0 0 .743-1.22.512.512 0 0 0-.1-.513.553.553 0 0 0-.368-.135.5.5 0 0 0-.126.015.552.552 0 0 0-.323.325 3.721 3.721 0 0 1-6.515.546 4.258 4.258 0 0 1-.16-.266 3.706 3.706 0 0 1-.456-1.659 3.774 3.774 0 0 1 .081-.911 3.733 3.733 0 0 1 3.314-2.928 4.8 4.8 0 0 1 .314-.011 3.655 3.655 0 0 1 2.932 1.418 3.242 3.242 0 0 1 .455.73l-.742.258zm-11.986 4.422a.94.94 0 1 1 .939-.94.939.939 0 0 1-.939.94z" style="fill:#2e9875" transform="translate(-387.259 -288.769)"/>
        <path data-name="패스 14977" d="m440.417 310.033-.9-1.021a.877.877 0 0 0 .01-.132.915.915 0 0 0-.39-.746l-.114-1.878a.407.407 0 0 0-.814 0l-.115 1.878a.91.91 0 0 0 .522 1.656.9.9 0 0 0 .2-.023l1.047.863a.407.407 0 0 0 .271.1.408.408 0 0 0 .3-.131.408.408 0 0 0-.018-.571zm-1.4-1.153a.4.4 0 1 1-.4-.4.4.4 0 0 1 .396.4z" transform="translate(-417.37 -294.004)" style="fill:#2e9875"/>
    </g>
</svg>
