<svg xmlns="http://www.w3.org/2000/svg" width="11.426" height="8.33" viewBox="0 0 11.426 8.33">
    <path data-name="icon_arrow_share" d="m4006.809 1331.782-5.005-3.445a.51.51 0 0 0-.867.456v1.785h-1.172c-2.229 0-4.043 1.543-4.043 3.441v1.357a.266.266 0 0 0 .186.254.271.271 0 0 0 .081.013.267.267 0 0 0 .217-.112 3.719 3.719 0 0 1 3.027-1.449h1.7v1.835a.584.584 0 0 0 .262.555.424.424 0 0 0 .2.048.733.733 0 0 0 .406-.147l5.005-3.445a.655.655 0 0 0 0-1.147z" transform="translate(-3995.722 -1328.19)" style="fill:#fd3f01"/>
</svg>
