<svg xmlns="http://www.w3.org/2000/svg" width="36" height="36" viewBox="0 0 36 36">
    <circle data-name="타원 146" cx="18" cy="18" r="18" style="fill:#f9f5d4"/>
    <path data-name="패스 14975" d="M5.349 13.083v2.472a1.769 1.769 0 0 0 .915 1.545l4.4 2.4a1.756 1.756 0 0 0 1.691 0l4.4-2.4a1.77 1.77 0 0 0 .915-1.549v-2.468l-5.312 2.9a1.747 1.747 0 0 1-1.691 0zm5.312-8.5L3.245 8.632a.884.884 0 0 0 0 1.547l7.416 4.05a1.76 1.76 0 0 0 1.691 0l7.073-3.864v5.2a.88.88 0 1 0 1.761 0V9.923a.887.887 0 0 0-.459-.773l-8.376-4.568a1.8 1.8 0 0 0-1.69 0z" transform="translate(6.013 5.952)" style="fill:#f9af02"/>
</svg>
