<svg xmlns="http://www.w3.org/2000/svg" width="180.641" height="134.814" viewBox="0 0 180.641 134.814">
    <g data-name="그룹 29570">
        <path data-name="패스 15343" d="M-1050.755 286.194c-7.285 3.38-20.27 16.411-17.578 43.724.191 3.474 1.147 12.112 15.2 12.676h23.237c6.885 0 14.631-1.972 15.2-12.676 1.418-13.92-2.6-36.424-17.539-43.691a2.575 2.575 0 0 0-1.125-.251h-16.36a2.462 2.462 0 0 0-1.035.218z" transform="translate(1088.346 -209.386)" style="fill-rule:evenodd;fill:#ff754b"/>
        <path data-name="패스 15344" d="M58.453 133.878H35.189c-6.248-.25-10.726-2.105-13.31-5.511a13.95 13.95 0 0 1-2.537-7.783c-2.677-27.213 10.032-40.7 17.965-44.384a3.127 3.127 0 0 1 1.326-.281h16.36a3.263 3.263 0 0 1 1.419.319c6.853 3.335 12.125 10.163 15.247 19.747a63.033 63.033 0 0 1 2.667 24.6c-.274 5.036-2.139 8.692-5.544 10.865-2.56 1.633-5.939 2.428-10.329 2.428zm-23.224-1.341h23.224c9.346 0 14.1-3.939 14.535-12.041v-.032a61.6 61.6 0 0 0-2.607-24.065c-2.1-6.436-6.323-14.949-14.558-18.956a1.908 1.908 0 0 0-.832-.184h-16.36a1.8 1.8 0 0 0-.761.156c-1.7.789-7.609 4.03-12.222 12.6-4.472 8.3-6.144 18.55-4.971 30.453v.029c.16 2.837.635 11.476 14.552 12.039z"/>
    </g>
    <path data-name="패스 15345" d="M56.519 75.258H37.057a1.746 1.746 0 0 1-1.744-1.744v-3.971a1.746 1.746 0 0 1 1.744-1.744h19.462a1.746 1.746 0 0 1 1.744 1.744v3.971a1.746 1.746 0 0 1-1.744 1.744zm-19.462-6.117a.4.4 0 0 0-.4.4v3.971a.4.4 0 0 0 .4.4h19.462a.4.4 0 0 0 .4-.4v-3.971a.4.4 0 0 0-.4-.4z"/>
    <g data-name="그룹 29571" transform="translate(71.898 29.26)">
        <rect data-name="사각형 11708" width="34.425" height="6.885" rx="3.443" transform="translate(.671 .671)" style="fill:#ff754b"/>
        <path data-name="패스 15346" d="M33.351 8.227H2.413A2.417 2.417 0 0 1-.002 5.812v-3.4A2.417 2.417 0 0 1 2.413-.003h30.938a2.417 2.417 0 0 1 2.415 2.415v3.4a2.418 2.418 0 0 1-2.415 2.415zM2.413 1.342A1.074 1.074 0 0 0 1.34 2.415v3.4a1.074 1.074 0 0 0 1.073 1.073h30.938a1.075 1.075 0 0 0 1.073-1.073v-3.4a1.074 1.074 0 0 0-1.073-1.073z"/>
    </g>
    <path data-name="패스 15347" d="M38.467 66.462a.67.67 0 0 1-.588-.348l-6.311-11.475a.67.67 0 0 1 .264-.911.67.67 0 0 1 .911.265l6.311 11.475a.671.671 0 0 1-.265.911.664.664 0 0 1-.322.083z"/>
    <path data-name="패스 15348" d="M55.68 66.461a.668.668 0 0 1-.305-.074.671.671 0 0 1-.291-.9l6.025-11.762a.671.671 0 0 1 .9-.291.671.671 0 0 1 .291.9l-6.024 11.762a.671.671 0 0 1-.596.365z"/>
    <path data-name="패스 15349" d="M34.185 54.92a12.773 12.773 0 0 1-2.447-.233.671.671 0 0 1-.526-.789.671.671 0 0 1 .789-.526c2.125.426 5.756.321 7.048-1.71a4.115 4.115 0 0 1 2.743-2.039 3.722 3.722 0 0 1 2.824.722l.034.028 2.582 2.295a.671.671 0 0 1 .056.947.671.671 0 0 1-.947.056l-2.564-2.279a2.372 2.372 0 0 0-1.755-.447 2.847 2.847 0 0 0-1.841 1.437c-1.256 1.973-3.8 2.538-5.996 2.538z"/>
    <path data-name="패스 15350" d="M59.391 54.689c-2.2 0-4.741-.565-6-2.539a2.847 2.847 0 0 0-1.842-1.437 2.372 2.372 0 0 0-1.743.438l-2.552 2.5a.671.671 0 0 1-.948-.01.67.67 0 0 1 .01-.948l2.639-2.576a3.718 3.718 0 0 1 2.823-.722 4.115 4.115 0 0 1 2.744 2.039c1.292 2.03 4.923 2.135 7.048 1.711a.671.671 0 0 1 .789.526.671.671 0 0 1-.526.789 12.786 12.786 0 0 1-2.442.229z"/>
    <path data-name="패스 15351" d="M74.62 28.881a.67.67 0 0 1-.6-.361L63.405 8.152a.671.671 0 0 1 .285-.9.671.671 0 0 1 .9.285l10.615 20.368a.671.671 0 0 1-.285.9.671.671 0 0 1-.3.076z"/>
    <path data-name="패스 15352" d="M105.31 28.881a.666.666 0 0 1-.3-.071.67.67 0 0 1-.3-.9l10.327-20.655a.67.67 0 0 1 .9-.3.67.67 0 0 1 .3.9L105.91 28.51a.671.671 0 0 1-.6.371z"/>
    <path data-name="패스 15353" d="M67.91 8.795a21.327 21.327 0 0 1-4.04-.374.671.671 0 0 1-.527-.789.67.67 0 0 1 .789-.527c3.28.653 10.156.832 12.71-3.162A6.656 6.656 0 0 1 81.256.651a5.955 5.955 0 0 1 4.505 1.146l.034.028 4.469 3.953a.671.671 0 0 1 .058.947.671.671 0 0 1-.947.058L84.92 2.845a4.567 4.567 0 0 0-3.438-.873 5.388 5.388 0 0 0-3.513 2.693c-2.065 3.233-6.411 4.13-10.059 4.13z"/>
    <path data-name="패스 15354" d="M111.729 8.221c-3.648 0-7.995-.9-10.062-4.129a5.386 5.386 0 0 0-3.513-2.696 4.57 4.57 0 0 0-3.426.863l-4.44 4.323a.671.671 0 0 1-.948-.013.671.671 0 0 1 .013-.948l4.526-4.4A5.959 5.959 0 0 1 98.383.077a6.657 6.657 0 0 1 4.414 3.292c2.554 3.994 9.43 3.815 12.71 3.162a.671.671 0 0 1 .789.527.671.671 0 0 1-.527.789 21.327 21.327 0 0 1-4.04.374z"/>
    <path data-name="패스 15355" d="M6.438 133.355a2.667 2.667 0 0 1-1.274-.324l-3.757-2.038a2.665 2.665 0 0 1-1.293-1.595 2.665 2.665 0 0 1 .214-2.042l11.749-21.657a2.664 2.664 0 0 1 1.6-1.293 2.666 2.666 0 0 1 2.042.214l3.756 2.038a2.686 2.686 0 0 1 1.079 3.638L8.805 131.952a2.686 2.686 0 0 1-2.367 1.403zm8-27.719a1.346 1.346 0 0 0-.383.056 1.333 1.333 0 0 0-.8.646L1.506 127.995a1.334 1.334 0 0 0-.107 1.021 1.333 1.333 0 0 0 .646.8l3.757 2.038a1.344 1.344 0 0 0 1.819-.54l11.749-21.657a1.343 1.343 0 0 0-.54-1.819l-3.756-2.038a1.338 1.338 0 0 0-.636-.165z"/>
    <path data-name="패스 15356" d="M144.106 115.307h-24.638a2.686 2.686 0 0 1-2.683-2.683v-4.273a2.686 2.686 0 0 1 2.683-2.683h24.638a2.686 2.686 0 0 1 2.683 2.683v4.273a2.686 2.686 0 0 1-2.683 2.683zm-24.638-8.3a1.343 1.343 0 0 0-1.341 1.341v4.273a1.343 1.343 0 0 0 1.341 1.341h24.638a1.343 1.343 0 0 0 1.341-1.341v-4.273a1.343 1.343 0 0 0-1.341-1.341z"/>
    <path data-name="패스 15357" d="M148.123 125.059h-24.638a2.686 2.686 0 0 1-2.683-2.683v-4.271a2.686 2.686 0 0 1 2.683-2.683h24.638a2.686 2.686 0 0 1 2.683 2.683v4.274a2.686 2.686 0 0 1-2.683 2.68zm-24.638-8.3a1.343 1.343 0 0 0-1.341 1.341v4.274a1.343 1.343 0 0 0 1.341 1.341h24.638a1.343 1.343 0 0 0 1.341-1.341v-4.269a1.343 1.343 0 0 0-1.341-1.341z"/>
    <path data-name="패스 15358" d="M144.106 134.813h-24.638a2.686 2.686 0 0 1-2.683-2.683v-4.274a2.686 2.686 0 0 1 2.683-2.683h24.638a2.686 2.686 0 0 1 2.683 2.683v4.274a2.686 2.686 0 0 1-2.683 2.683zm-24.638-8.3a1.343 1.343 0 0 0-1.341 1.341v4.274a1.343 1.343 0 0 0 1.341 1.341h24.638a1.343 1.343 0 0 0 1.341-1.341v-4.274a1.343 1.343 0 0 0-1.341-1.341z"/>
    <path data-name="패스 15359" d="M173.368 134.813h-24.639a2.686 2.686 0 0 1-2.683-2.683v-4.274a2.686 2.686 0 0 1 2.683-2.683h24.639a2.686 2.686 0 0 1 2.683 2.683v4.274a2.686 2.686 0 0 1-2.683 2.683zm-24.639-8.3a1.343 1.343 0 0 0-1.341 1.341v4.274a1.343 1.343 0 0 0 1.341 1.341h24.639a1.343 1.343 0 0 0 1.341-1.341v-4.274a1.343 1.343 0 0 0-1.341-1.341z"/>
    <path data-name="패스 15360" d="M177.958 126.207H153.32a2.686 2.686 0 0 1-2.683-2.683v-4.273a2.686 2.686 0 0 1 2.683-2.683h24.638a2.686 2.686 0 0 1 2.683 2.683v4.273a2.686 2.686 0 0 1-2.683 2.683zm-24.638-8.3a1.343 1.343 0 0 0-1.341 1.341v4.273a1.343 1.343 0 0 0 1.341 1.341h24.638a1.343 1.343 0 0 0 1.341-1.341v-4.273a1.343 1.343 0 0 0-1.341-1.341z"/>
    <path data-name="패스 15361" d="M173.942 117.027h-24.638a2.686 2.686 0 0 1-2.683-2.683v-4.273a2.686 2.686 0 0 1 2.683-2.683h24.638a2.686 2.686 0 0 1 2.683 2.683v4.273a2.686 2.686 0 0 1-2.683 2.683zm-24.638-8.3a1.343 1.343 0 0 0-1.341 1.341v4.273a1.343 1.343 0 0 0 1.341 1.341h24.638a1.343 1.343 0 0 0 1.341-1.341v-4.273a1.343 1.343 0 0 0-1.341-1.341z"/>
    <path data-name="패스 15362" d="M168.778 107.273h-24.639a2.686 2.686 0 0 1-2.683-2.683v-4.276a2.686 2.686 0 0 1 2.683-2.68h24.638a2.686 2.686 0 0 1 2.683 2.683v4.274a2.686 2.686 0 0 1-2.682 2.682zm-24.638-8.3a1.343 1.343 0 0 0-1.341 1.341v4.274a1.343 1.343 0 0 0 1.34 1.344h24.638a1.343 1.343 0 0 0 1.341-1.341v-4.277a1.343 1.343 0 0 0-1.341-1.341z"/>
    <path data-name="패스 15363" d="M171.647 97.517h-24.639a2.686 2.686 0 0 1-2.683-2.683V90.56a2.686 2.686 0 0 1 2.683-2.683h24.639a2.686 2.686 0 0 1 2.683 2.683v4.274a2.686 2.686 0 0 1-2.683 2.683zm-24.639-8.3a1.343 1.343 0 0 0-1.341 1.341v4.274a1.343 1.343 0 0 0 1.341 1.341h24.639a1.343 1.343 0 0 0 1.341-1.341v-4.274a1.343 1.343 0 0 0-1.341-1.341z"/>
    <path data-name="패스 15364" d="M131.011 100.886h-.021a.671.671 0 0 1-.65-.691c1.015-33.233-13.508-52.977-27.491-60.414H77.306c-5.838 1.978-8.709 5.727-12.032 10.065a.671.671 0 0 1-.94.125.671.671 0 0 1-.124-.94c3.331-4.349 6.478-8.457 12.775-10.556l.1-.034h26.093l.146.077c4.21 2.214 12.258 7.613 18.855 18.9 6.815 11.661 10.01 26.067 9.5 42.817a.671.671 0 0 1-.668.651z"/>
    <path data-name="패스 15365" d="M113.511 132.156H73.635a.671.671 0 0 1-.671-.671.671.671 0 0 1 .671-.671h39.876a.671.671 0 0 1 .671.671.671.671 0 0 1-.671.671z"/>
    <g data-name="그룹 29573">
        <g data-name="그룹 29572">
            <path data-name="패스 15366" d="M-982.292 420.623h-12.836a1.341 1.341 0 0 1-1.341-1.341 1.341 1.341 0 0 1 1.341-1.341h12.836a1.341 1.341 0 0 1 1.342 1.341 1.341 1.341 0 0 1-1.342 1.341z" transform="translate(1035.498 -305.948)" style="fill:#fff"/>
            <path data-name="패스 15367" d="M-982.292 401.079h-12.836a1.341 1.341 0 0 1-1.341-1.341 1.341 1.341 0 0 1 1.341-1.341h12.836a1.341 1.341 0 0 1 1.342 1.341 1.341 1.341 0 0 1-1.342 1.341z" transform="translate(1035.498 -291.647)" style="fill:#fff"/>
        </g>
        <path data-name="패스 15368" d="M-989.1 364.466a1.341 1.341 0 0 1-1.205-.753l-6.56-13.424a1.341 1.341 0 0 1 .616-1.794 1.341 1.341 0 0 1 1.794.616l5.354 10.957 5.354-10.957a1.341 1.341 0 0 1 1.794-.616 1.341 1.341 0 0 1 .616 1.794l-6.56 13.424a1.341 1.341 0 0 1-1.203.753z" transform="translate(1035.884 -255.034)" style="fill:#fff"/>
        <path data-name="패스 15369" d="M-971.206 409.344a1.341 1.341 0 0 1-1.341-1.344v-8.265a1.341 1.341 0 0 1 1.341-1.341 1.341 1.341 0 0 1 1.341 1.341V408a1.341 1.341 0 0 1-1.341 1.344z" transform="translate(1017.993 -291.647)" style="fill:#fff"/>
    </g>
    <g data-name="그룹 29575">
        <g data-name="그룹 29574">
            <path data-name="패스 15370" d="M99.714 102.326H79.849a1.341 1.341 0 0 1-1.341-1.341 1.342 1.342 0 0 1 1.341-1.341h19.865a1.342 1.342 0 0 1 1.341 1.341 1.341 1.341 0 0 1-1.341 1.341z"/>
            <path data-name="패스 15371" d="M99.714 94.215H79.849a1.341 1.341 0 0 1-1.341-1.341 1.341 1.341 0 0 1 1.341-1.341h19.865a1.341 1.341 0 0 1 1.341 1.341 1.341 1.341 0 0 1-1.341 1.341z"/>
        </g>
        <path data-name="패스 15372" d="M89.781 94.216a1.341 1.341 0 0 1-1.205-.753L78.42 72.689a1.342 1.342 0 0 1 .616-1.794 1.341 1.341 0 0 1 1.794.616l8.946 18.307 8.951-18.302a1.341 1.341 0 0 1 1.794-.616 1.341 1.341 0 0 1 .616 1.794L90.986 93.468a1.341 1.341 0 0 1-1.205.748z"/>
        <path data-name="패스 15373" d="M89.78 107.006a1.341 1.341 0 0 1-1.341-1.341V92.873a1.341 1.341 0 0 1 1.341-1.341 1.341 1.341 0 0 1 1.341 1.341v12.791a1.341 1.341 0 0 1-1.341 1.342z"/>
    </g>
</svg>
