<svg xmlns="http://www.w3.org/2000/svg" width="17.001" height="17.001" viewBox="0 0 17.001 17.001">
    <g data-name="그룹 27842">
        <path data-name="패스 13141" d="M389.065 88.168a8.5 8.5 0 1 1 8.5-8.5 8.51 8.51 0 0 1-8.5 8.5zm0-15.712a7.212 7.212 0 1 0 7.212 7.211 7.22 7.22 0 0 0-7.212-7.211z" transform="translate(-380.565 -71.167)" style="fill:gray"/>
    </g>
    <g data-name="그룹 27843" transform="translate(12.728 8.5)">
        <circle data-name="타원 112" cx=".898" cy=".898" r=".898" style="fill:gray"/>
    </g>
    <g data-name="그룹 27844" transform="translate(12.658 6.299)">
        <circle data-name="타원 113" cx=".898" cy=".898" r=".898" style="fill:gray"/>
    </g>
    <g data-name="그룹 27845" transform="translate(14.799 7.603)">
        <circle data-name="타원 114" cx=".898" cy=".898" r=".898" style="fill:gray"/>
    </g>
    <g data-name="그룹 27846" transform="translate(14.423 4.872)">
        <circle data-name="타원 115" cx=".898" cy=".898" r=".898" style="fill:gray"/>
    </g>
    <g data-name="그룹 27847" transform="translate(8.627 12.95)">
        <circle data-name="타원 116" cx=".898" cy=".898" r=".898" style="fill:gray"/>
    </g>
    <g data-name="그룹 27848" transform="translate(6.471 12.789)">
        <circle data-name="타원 117" cx=".898" cy=".898" r=".898" style="fill:gray"/>
    </g>
    <g data-name="그룹 27849" transform="translate(7.603 14.853)">
        <circle data-name="타원 118" cx=".898" cy=".898" r=".898" style="fill:gray"/>
    </g>
    <g data-name="그룹 27850" transform="translate(4.909 14.331)">
        <circle data-name="타원 119" cx=".898" cy=".898" r=".898" style="fill:gray"/>
    </g>
    <g data-name="그룹 27851" transform="translate(10.629 12.075)">
        <circle data-name="타원 120" cx=".898" cy=".898" r=".898" style="fill:gray"/>
    </g>
    <g data-name="그룹 27852" transform="translate(12.24 10.587)">
        <circle data-name="타원 121" cx=".898" cy=".898" r=".898" style="fill:gray"/>
    </g>
    <g data-name="그룹 27853" transform="translate(10.472 14.331)">
        <circle data-name="타원 122" cx=".898" cy=".898" r=".898" style="fill:gray"/>
    </g>
    <g data-name="그룹 27854" transform="translate(12.861 12.674)">
        <circle data-name="타원 123" cx=".898" cy=".898" r=".898" style="fill:gray"/>
    </g>
    <g data-name="그룹 27855" transform="translate(14.423 10.165)">
        <circle data-name="타원 124" cx=".898" cy=".898" r=".898" style="fill:gray"/>
    </g>
</svg>
