<svg xmlns="http://www.w3.org/2000/svg" width="16.027" height="16.026" viewBox="0 0 16.027 16.026">
    <path data-name="icon_eye_unselect" d="M2.176 2.176a.6.6 0 0 0-.058.782l.058.067 3.233 3.234a8 8 0 0 0-3.169 4.607.6.6 0 0 0 1.166.292 6.8 6.8 0 0 1 2.868-4.034l1.45 1.45a3.205 3.205 0 0 0 4.532 4.533L17 17.85a.6.6 0 0 0 .908-.782L17.85 17l-4.9-4.9-.962-.96-2.3-2.3-2.304-2.306-.908-.906-3.45-3.452a.6.6 0 0 0-.85 0zm6.4 7.248 2.833 2.833a2 2 0 0 1-2.835-2.833zM10.013 4.8a8.006 8.006 0 0 0-2.313.345l.991.99a6.818 6.818 0 0 1 7.932 5.026.6.6 0 1 0 1.166-.291 8.016 8.016 0 0 0-7.776-6.07zm.156 2.812 3.046 3.046a3.208 3.208 0 0 0-3.046-3.042z" transform="translate(-2 -2)" style="fill:#b3b3b3"/>
</svg>
