<svg xmlns="http://www.w3.org/2000/svg" width="177.988" height="173.364" viewBox="0 0 177.988 173.364">
    <path data-name="패스 15103" d="M74.358 143.742h-.118l-52.716-3.553a1.553 1.553 0 0 1-1.445-1.546v-62.7a1.205 1.205 0 0 1 1.205-1.205 1.2 1.2 0 0 1 1.205 1.205v61.893l51.872 3.5 20.785-1.584a1.2 1.2 0 0 1 1.293 1.11 1.205 1.205 0 0 1-1.11 1.293l-20.849 1.589c-.044-.003-.085-.002-.122-.002zm.046-2.409z"/>
    <path data-name="패스 15104" d="M74.364 142.948a1.205 1.205 0 0 1-1.205-1.205v-71.2l-51.726 6.394a1.205 1.205 0 0 1-1.344-1.048 1.205 1.205 0 0 1 1.048-1.344l52.693-6.513a1.555 1.555 0 0 1 1.216.377 1.552 1.552 0 0 1 .523 1.161v72.172a1.205 1.205 0 0 1-1.205 1.206z"/>
    <path data-name="패스 15105" d="M152.889 101.995a1.205 1.205 0 0 1-1.205-1.205V75.281l-66.9-4.3a1.205 1.205 0 0 1-1.125-1.28 1.209 1.209 0 0 1 1.28-1.125l67.706 4.353a1.553 1.553 0 0 1 1.45 1.546v26.316a1.205 1.205 0 0 1-1.206 1.204zm-.4-26.662z"/>
    <path data-name="패스 15106" d="M60.3 173.312a1.534 1.534 0 0 1-.231-.017l-58.753-8.843A1.539 1.539 0 0 1 0 162.912v-23.609a1.551 1.551 0 0 1 1.549-1.549h19.933a1.205 1.205 0 0 1 1.205 1.205 1.205 1.205 0 0 1-1.205 1.205H2.41v22.011l57.031 8.583v-21.86a1.205 1.205 0 0 1 1.205-1.205 1.205 1.205 0 0 1 1.205 1.205v22.86a1.547 1.547 0 0 1-.539 1.174 1.549 1.549 0 0 1-1.012.38z"/>
    <path data-name="패스 15107" d="M60.446 173.364a1.205 1.205 0 0 1-1.2-1.094 1.2 1.2 0 0 1 1.088-1.311l47.115-4.374a1.2 1.2 0 0 1 1.311 1.089 1.2 1.2 0 0 1-1.088 1.311l-47.115 4.373a.979.979 0 0 1-.111.006z"/>
    <path data-name="패스 15108" d="M-366.112 402.157v-49.7l21.47 49.7z" transform="translate(454.391 -231.191)" style="fill:rgba(0,0,0,.3)"/>
    <path data-name="패스 15109" d="m147.92 147.096-31.118-64.76a.688.688 0 0 1 .647-.986l14.35.538a.688.688 0 0 1 .593.386l31.213 64a.689.689 0 0 1-.132.789l-6.421 6.42a.688.688 0 0 1-.459.2l-12.831.52a.689.689 0 0 1-.544-1.143l4.6-5.208a.689.689 0 0 0 .102-.756z"/>
    <path data-name="패스 15110" d="m130.221 165.81-3.184 3.322a.689.689 0 0 0 .526 1.164l12.153-.514a.686.686 0 0 0 .435-.179l3.076-2.809a.689.689 0 0 0-.464-1.2h-12.045a.689.689 0 0 0-.497.216z"/>
    <path data-name="패스 15111" d="M40.77 80.335v-6.377a.689.689 0 0 1 .6-.682l10.551-1.407a.689.689 0 0 1 .78.683v6.552a.688.688 0 0 1-.609.684l-10.551 1.231a.689.689 0 0 1-.771-.684z"/>
    <path data-name="패스 15112" d="M22.874 160.212v5.393a.688.688 0 0 0 .583.68l10.153 1.576a.689.689 0 0 0 .794-.681v-5.743a.688.688 0 0 0-.606-.683l-10.153-1.226a.689.689 0 0 0-.771.684z"/>
    <path data-name="패스 15113" d="M41.561 133.088v6.429a.688.688 0 0 0 .633.687l10.948.883a.689.689 0 0 0 .744-.686v-7.312a.688.688 0 0 0-.689-.689H42.249a.688.688 0 0 0-.688.688z"/>
    <path data-name="패스 15114" d="M22.874 148.687v-8.79a.689.689 0 0 1 .736-.687l10.153.7a.689.689 0 0 1 .641.687v9.316a.689.689 0 0 1-.771.684l-10.153-1.225a.688.688 0 0 1-.606-.685z"/>
    <path data-name="패스 15115" d="M110.067 172.126a1.584 1.584 0 0 1-.308-.031 1.551 1.551 0 0 1-1.112-.9l-28.741-65.946a1.558 1.558 0 0 1 .253-1.639l20.585-23.5a1.547 1.547 0 0 1 1.378-.514 1.546 1.546 0 0 1 1.187.869l31.873 66.894a1.544 1.544 0 0 1-.331 1.788l-23.716 22.55a1.552 1.552 0 0 1-1.068.429zm.789-1.894zm-28.522-65.446 28.032 64.319 22.372-21.272-31.042-65.147zm50.673 43.611z"/>
    <path data-name="패스 15116" d="M110.345 172.17a1.205 1.205 0 0 1-1.2-1.149 1.205 1.205 0 0 1 1.148-1.26l42.3-1.967 21.589-20.349-32.609 1.266a1.207 1.207 0 0 1-1.251-1.157 1.205 1.205 0 0 1 1.158-1.251l34.9-1.356a1.524 1.524 0 0 1 1.489.948 1.536 1.536 0 0 1-.366 1.727l-23.492 22.144a1.551 1.551 0 0 1-.987.42l-42.618 1.982z"/>
    <path data-name="패스 15117" d="M176.546 147.322a1.2 1.2 0 0 1-1.07-.649L142.6 83.479l-40.65-1.563a1.206 1.206 0 0 1-1.158-1.251 1.213 1.213 0 0 1 1.251-1.158l41.151 1.582a1.555 1.555 0 0 1 1.314.832l33.108 63.639a1.205 1.205 0 0 1-.513 1.625 1.2 1.2 0 0 1-.557.137zm-33.448-63.824z"/>
    <path data-name="패스 15118" d="M-322.11 26.307a26.043 26.043 0 0 1-26.043 26.043A26.043 26.043 0 0 1-374.2 26.307 26.043 26.043 0 0 1-348.152.264a26.043 26.043 0 0 1 26.042 26.043zm-23.06 12.921a3.086 3.086 0 0 1-2.982 3.181 3.086 3.086 0 0 1-2.982-3.181 3.086 3.086 0 0 1 2.982-3.181 3.086 3.086 0 0 1 2.982 3.181zM-351.874 22c-.234-3.848.141-11.4 3.655-11.4 3.488 0 4.034 7.652 3.8 11.4-.281 4.419-1.546 11.26-3.8 11.26s-3.42-7.408-3.655-11.26z" transform="translate(459.691 -.264)" style="fill:#ff754b;fill-rule:evenodd"/>
</svg>
