<svg xmlns="http://www.w3.org/2000/svg" width="17.131" height="21.971" viewBox="0 0 17.131 21.971">
    <g data-name="icon_goal_yellow" style="fill:#fdbf2e">
        <path d="M8.563 21.257a60.497 60.497 0 0 1-4.009-4.67C1.902 13.136.5 10.363.5 8.567.5 4.118 4.118.5 8.566.5c4.447 0 8.065 3.618 8.065 8.066 0 1.798-1.408 4.579-4.073 8.041a60.29 60.29 0 0 1-3.995 4.65z" style="stroke:none"/>
        <path d="M8.566 1C4.394 1 1 4.394 1 8.566c0 1.653 1.392 4.378 3.918 7.675a60.252 60.252 0 0 0 3.645 4.289 59.553 59.553 0 0 0 3.627-4.265c2.542-3.309 3.941-6.043 3.941-7.7C16.131 4.395 12.737 1 8.566 1m0-1a8.566 8.566 0 0 1 8.565 8.566c0 4.73-8.571 13.43-8.565 13.405C8.559 21.996 0 13.296 0 8.566A8.566 8.566 0 0 1 8.566 0z" style="fill:#000;stroke:none"/>
    </g>
</svg>
