<svg xmlns="http://www.w3.org/2000/svg" width="36" height="36" viewBox="0 0 36 36">
    <circle data-name="타원 146" cx="18" cy="18" r="18" style="fill:#ceddf2"/>
    <g data-name="30">
        <path data-name="패스 14978" d="M64.311 103.15a1.009 1.009 0 0 0-.023-.257.911.911 0 0 0-.94-.71c-1.819-.013-3.194-.025-4.867-.039l-.921-.008-.921-.022c-1.672-.041-3.047-.073-4.866-.119a.911.911 0 0 0-.962.679 1 1 0 0 0-.031.257c-.047 1.879-.091 3.771-.135 5.624a.9.9 0 0 0 .922.973l6.246.143h.247l5.246.044a.9.9 0 0 0 .954-.943c.019-1.85.04-3.742.051-5.622zm-3.461 5.229c-1.318-.015-2.383-.022-3.331-.031H57.4c-.948-.022-2.012-.049-3.331-.078a1.734 1.734 0 0 0-1.283-1.356c.018-.677.04-1.4.057-2.256a1.574 1.574 0 0 0 1.3-1.148l.017-.046c.014-.033.024-.06.035-.093 1.218.03 2.28.054 3.347.081 1.068.007 2.13.018 3.348.028.01.034.019.06.032.094l.016.047a1.574 1.574 0 0 0 1.259 1.189c-.011.851-.012 1.579-.017 2.257a1.735 1.735 0 0 0-1.33 1.312z" transform="translate(-38.572 -84.042)" style="fill:#3e7ad3"/>
        <path data-name="패스 14979" d="M57.716 90.135a.912.912 0 0 0-.8-.862c-1.789-.327-3.141-.577-4.786-.881l-.906-.168-.9-.181-4.772-.959a.91.91 0 0 0-1.066.5.953.953 0 0 0-.074.247c-.372 1.842-.743 3.7-1.106 5.515a.9.9 0 0 0 .74 1.119l.372.074.071-2.893a1.7 1.7 0 0 1 .057-.435 1.644 1.644 0 0 1 1.577-1.221l.021-.1a1.572 1.572 0 0 0 1.476-.906l.025-.043c.019-.031.034-.054.051-.086 1.195.24 2.236.447 3.283.66 1.051.192 2.095.386 3.293.606v.029l3.451.028z" transform="translate(-33.014 -72.78)" style="fill:#3e7ad3"/>
        <path data-name="패스 14980" d="m61.479 75.051-.758-.524-.75-.534-3.961-2.828a.91.91 0 0 0-1.178.022 1 1 0 0 0-.169.194c-.671.937-1.342 1.879-2.01 2.815l.063.01.042.007 2.158.435.484-.681a1.574 1.574 0 0 0 1.717-.222l.041-.028c.029-.02.053-.036.08-.058.992.708 1.857 1.323 2.726 1.945l.065.044.041.008c1.047.193 2.014.372 3.117.574z" transform="translate(-40.088 -60.637)" style="fill:#3e7ad3"/>
        <path data-name="패스 14981" d="M75.549 113.381a1.441 1.441 0 1 1-1.428-1.453 1.44 1.44 0 0 1 1.428 1.453z" transform="translate(-55.182 -91.534)" style="fill:#3e7ad3"/>
    </g>
</svg>
