<svg xmlns="http://www.w3.org/2000/svg" width="12.937" height="13.121" viewBox="0 0 12.937 13.121">
    <path data-name="icon_google" d="M12.858 5.461H6.695l-.026 2.382h3.482a4.153 4.153 0 0 1-.5 1.2 4.278 4.278 0 0 1-.8.944 3.349 3.349 0 0 1-1.044.623 3.656 3.656 0 0 1-2.785-.119 4.019 4.019 0 0 1-1.246-.916 4.512 4.512 0 0 1 0-6.028 4 4 0 0 1 1.246-.916 3.543 3.543 0 0 1 1.539-.339 3.6 3.6 0 0 1 2.025.6 3.979 3.979 0 0 1 .927.84l1.785-1.7a6.869 6.869 0 0 0-1.5-1.177A6.275 6.275 0 0 0 6.564.003a6.438 6.438 0 0 0-2.556.514A6.511 6.511 0 0 0 .517 4.008a6.622 6.622 0 0 0 0 5.112 6.514 6.514 0 0 0 3.491 3.491 6.438 6.438 0 0 0 2.556.514 6.264 6.264 0 0 0 4.554-1.915 6.513 6.513 0 0 0 1.338-2.089 6.743 6.743 0 0 0 .486-2.556q0-.275-.018-.549a9.235 9.235 0 0 0-.066-.555z"/>
</svg>
