<svg xmlns="http://www.w3.org/2000/svg" width="260.258" height="292.679" viewBox="0 0 260.258 292.679">
    <g data-name="그룹 29560" transform="translate(16.341 70.964)">
        <path data-name="패스 15182" d="M226.859 204.465a.717.717 0 0 1-.718-.718c0-48.54-52.7-89.256-80.561-104a.718.718 0 0 1-.3-.97.718.718 0 0 1 .97-.3c28.13 14.886 81.33 56.047 81.33 105.271a.717.717 0 0 1-.721.717z"/>
        <path data-name="패스 15183" d="M195.772 213.943a.717.717 0 0 1-.718-.718v-41.363a.711.711 0 0 0-.218-.515.712.712 0 0 0-.521-.2L39.47 175.614a.714.714 0 0 0-.7.717v36.9a.717.717 0 0 1-.718.718.717.717 0 0 1-.718-.718v-36.9a2.142 2.142 0 0 1 2.091-2.152l154.845-4.467a2.136 2.136 0 0 1 1.562.608 2.136 2.136 0 0 1 .652 1.544v41.364a.717.717 0 0 1-.712.715z"/>
        <path data-name="패스 15184" d="M161.651 215.081h-.023a.718.718 0 0 1-.7-.739l1.327-42.841a.717.717 0 0 1 .74-.695.717.717 0 0 1 .695.739l-1.327 42.841a.718.718 0 0 1-.712.695z"/>
        <path data-name="패스 15185" d="M186.484 171.103a.718.718 0 0 1-.685-.5c-1.093-3.509-3.181-10.308-4.078-13.538a.751.751 0 0 0-.717-.554h-44.185a.717.717 0 0 1-.718-.718.717.717 0 0 1 .718-.717h44.185a2.19 2.19 0 0 1 2.1 1.605c.892 3.212 2.975 9.994 4.065 13.495a.717.717 0 0 1-.472.9.707.707 0 0 1-.213.027z"/>
        <path data-name="패스 15186" d="M139.096 172.05a.718.718 0 0 1-.7-.554l-2.844-12.132a.718.718 0 0 1 .535-.862.718.718 0 0 1 .862.535l2.844 12.132a.717.717 0 0 1-.535.862.717.717 0 0 1-.162.019z"/>
        <path data-name="패스 15187" d="m138.997 170.971-2.484-9.353a.287.287 0 0 0-.564.083l.292 9.353a.287.287 0 0 0 .287.278h2.192a.287.287 0 0 0 .277-.361z"/>
        <path data-name="패스 15188" d="M166.958 155.938a.718.718 0 0 1-.684-.5l-.816-2.584a.731.731 0 0 0-.695-.5l-52.578.743h-.01a.717.717 0 0 1-.717-.707.717.717 0 0 1 .708-.728l52.578-.743a2.159 2.159 0 0 1 2.083 1.5l.816 2.583a.718.718 0 0 1-.468.9.719.719 0 0 1-.217.036z"/>
        <path data-name="패스 15189" d="M119.192 172.809a.715.715 0 0 1-.543-.249c-3.7-4.286-5.224-16.544-5.287-17.064a.718.718 0 0 1 .626-.8.716.716 0 0 1 .8.626c.6 4.942 2.411 13.361 4.949 16.3a.718.718 0 0 1-.074 1.012.715.715 0 0 1-.471.175z"/>
        <path data-name="패스 15190" d="M118.803 171.6c-1.97-2.733-3.452-8.3-4.286-12.624-.067-.35-.664-.306-.662.05.038 5.778.387 13.065 1.353 13.065h3.354a.31.31 0 0 0 .241-.491z"/>
        <path data-name="패스 15191" d="M143.264 152.147a.718.718 0 0 1-.689-.519l-2.118-7.333a.713.713 0 0 0-.788-.514c-15.685 2.159-45.421 5.19-57.391 2.855a.718.718 0 0 1-.567-.842.719.719 0 0 1 .842-.567c11.785 2.3 41.324-.72 56.92-2.868a2.139 2.139 0 0 1 2.363 1.537l2.118 7.333a.717.717 0 0 1-.49.889.707.707 0 0 1-.2.029z"/>
        <path data-name="패스 15192" d="M90.565 173.941a.718.718 0 0 1-.687-.513l-7.014-23.506a.717.717 0 0 1 .482-.893.717.717 0 0 1 .893.482l7.014 23.506a.717.717 0 0 1-.482.893.71.71 0 0 1-.206.031z"/>
        <path data-name="패스 15193" d="M115.209 146.27a.718.718 0 0 1-.673-.469l-3.353-9.053a.717.717 0 0 0-.835-.455c-2.32.515-18.9 4.1-30.657 4.1a27.738 27.738 0 0 1-8.308-.985.718.718 0 0 1-.454-.908.718.718 0 0 1 .908-.454c7.568 2.523 27.573-.8 38.2-3.155a2.165 2.165 0 0 1 2.492 1.358l3.353 9.053a.718.718 0 0 1-.424.922.723.723 0 0 1-.249.046z"/>
        <path data-name="패스 15194" d="M78.244 173.567a.718.718 0 0 1-.664-.446c-1.366-3.339-6.571-24.218-9.132-34.792a.718.718 0 0 1 .529-.866.717.717 0 0 1 .866.528c2.552 10.538 7.732 31.328 9.065 34.587a.717.717 0 0 1-.392.936.714.714 0 0 1-.272.053z"/>
        <path data-name="패스 15195" d="M78.283 172.832c-1.577-4.374-6.756-24.841-9.138-34.673l5.459 34.826a.287.287 0 0 0 .284.243h3.118a.3.3 0 0 0 .277-.396z"/>
        <path data-name="패스 15196" d="M71.041 148.734h-7.583a.717.717 0 0 1-.718-.717.717.717 0 0 1 .718-.718h7.583a.717.717 0 0 1 .718.718.717.717 0 0 1-.718.717z"/>
        <path data-name="패스 15197" d="M67.249 174.136a.718.718 0 0 1-.693-.532l-6.635-24.833a.717.717 0 0 1 .508-.878.717.717 0 0 1 .879.508l6.635 24.833a.717.717 0 0 1-.508.878.715.715 0 0 1-.186.024z"/>
        <path data-name="패스 15198" d="m63.242 173.729-2.267-21.7a.287.287 0 0 1 .562-.106l5.991 21.7a.287.287 0 0 1-.277.363h-3.724a.287.287 0 0 1-.285-.257z"/>
        <path data-name="패스 15199" d="m85.986 172.406-2.426-20.7a.287.287 0 0 1 .56-.115l6.146 20.7a.287.287 0 0 1-.275.369h-3.72a.287.287 0 0 1-.285-.254z"/>
        <path data-name="패스 15200" d="M47.346 174.894a.717.717 0 0 1-.695-.542l-3.321-13.116a2.135 2.135 0 0 1 .414-1.883 2.139 2.139 0 0 1 1.755-.8l17.987.685a.717.717 0 0 1 .69.744.718.718 0 0 1-.744.69l-17.987-.685a.716.716 0 0 0-.585.266.71.71 0 0 0-.138.627l3.32 13.116a.717.717 0 0 1-.519.872.72.72 0 0 1-.177.026z"/>
        <path data-name="패스 15201" d="m47.255 173.818-2.941-11.614a.287.287 0 0 0-.564.089l.735 11.615a.287.287 0 0 0 .286.269h2.205a.287.287 0 0 0 .279-.359z"/>
        <path data-name="패스 15202" d="M47.774 159.66a.717.717 0 0 1-.655-.424l-6.294-14.05a.718.718 0 0 1 .362-.948.716.716 0 0 1 .948.362l6.293 14.05a.717.717 0 0 1-.362.948.714.714 0 0 1-.292.062z"/>
        <path data-name="패스 15203" d="M115.589 101.341a3.277 3.277 0 0 1-2.279-.84c-1.761-1.6-1.692-5.037-1.091-6.855a.717.717 0 0 1 .906-.456.717.717 0 0 1 .456.906c-.5 1.513-.478 4.277.694 5.344.693.63 1.784.625 3.243-.015 2.795-1.227 4.241-3.269 5.916-5.633a24.517 24.517 0 0 1 5.761-6.259.717.717 0 0 1 1 .162.717.717 0 0 1-.162 1 23.006 23.006 0 0 0-5.429 5.924c-1.723 2.433-3.351 4.73-6.51 6.117a6.275 6.275 0 0 1-2.505.605z"/>
        <path data-name="패스 15204" d="M-841.113 355.075a11.3 11.3 0 0 1-6.935-2.249c-4.084-3.092-5.9-9.163-4.043-13.533a.718.718 0 0 1 .941-.38.717.717 0 0 1 .38.941c-1.408 3.317-.437 8.782 3.588 11.828 4.779 3.617 11.943 2.143 19.655-4.047a.718.718 0 0 1 1.009.111.718.718 0 0 1-.111 1.009c-4.458 3.577-8.689 5.66-12.575 6.189a14.226 14.226 0 0 1-1.909.131z" transform="translate(959.347 -241.6)" style="fill:#ff754b"/>
        <path data-name="패스 15205" d="M6.947 163.548a5.885 5.885 0 0 1-1.789-.271c-2.572-.817-4.309-3.448-4.89-7.409-.684-4.662 5.254-12.484 9.087-14.381 3.4-1.739 7.77-2.529 12.994-2.339a.717.717 0 0 1 .691.743.712.712 0 0 1-.743.691c-4.977-.179-9.114.555-12.3 2.186-3.62 1.792-8.842 9.28-8.313 12.891.5 3.389 1.884 5.608 3.9 6.25 2.576.817 6.135-.9 9.766-4.72 3.829-4.025 9.346-5.469 14.213-6.742 4.911-1.285 9.152-2.395 11.092-5.643a.717.717 0 0 1 .984-.248.717.717 0 0 1 .248.984c-2.241 3.752-6.962 4.987-11.961 6.295-4.911 1.285-9.989 2.613-13.536 6.342-3.336 3.52-6.624 5.371-9.443 5.371z"/>
        <path data-name="패스 15206" d="M22.513 139.297c-17.25 0-22.124 12.383-21.537 16.467.551 3.83 6.26 12.574 15.928.252 2.275-2.25 5.269-2.927 6.746-3.639z"/>
        <path data-name="패스 15207" d="M27.441 221.715a.717.717 0 0 1-.7-.582c-4.2-21.886-11.937-34-18.155-43.741-5.005-7.837-8.958-14.027-8.554-22.12a.718.718 0 0 1 .752-.681.718.718 0 0 1 .681.753c-.382 7.634 3.272 13.356 8.33 21.275 6.284 9.84 14.105 22.087 18.355 44.243a.717.717 0 0 1-.569.839.712.712 0 0 1-.14.014z"/>
        <path data-name="패스 15208" d="M31.029 124.133a.718.718 0 0 1-.659-.433l-6.792-15.673a2.144 2.144 0 0 1-.012-1.686 2.166 2.166 0 0 1 1.217-1.2c9.062-3.579 21.044-9.834 24.986-15.683a.718.718 0 0 1 1-.194.717.717 0 0 1 .194 1c-4.126 6.122-16.4 12.562-25.648 16.216a.745.745 0 0 0-.418.411.719.719 0 0 0 0 .566l6.792 15.673a.718.718 0 0 1-.373.944.712.712 0 0 1-.287.059z"/>
        <path data-name="패스 15209" d="M44.516 148.426a2.156 2.156 0 0 1-1.971-1.292l-1.369-3.149a.718.718 0 0 1 .372-.944.718.718 0 0 1 .944.372l1.369 3.15a.7.7 0 0 0 .874.392c9.9-3.456 23.248-9.119 28.314-13.7a.615.615 0 0 0 .1-.744L52.83 92.431a.718.718 0 0 1 .316-.965.718.718 0 0 1 .964.316l20.319 40.08a2.059 2.059 0 0 1-.421 2.457c-6.88 6.225-26.58 13.217-28.8 13.993a2.1 2.1 0 0 1-.692.114z"/>
        <path data-name="패스 15210" d="M69.525 114.993a.718.718 0 0 1-.66-.435.717.717 0 0 1 .377-.942c8.268-3.543 26.363-11.2 35.661-14.8a.718.718 0 0 1 .928.41.717.717 0 0 1-.41.928c-9.279 3.592-27.353 11.236-35.613 14.776a.714.714 0 0 1-.283.063z"/>
        <path data-name="패스 15211" d="M-852.531 408.109a.717.717 0 0 1-.708-.606c-1.414-8.959 5.711-15.074 9.677-17.056a.718.718 0 0 1 .963.321.718.718 0 0 1-.321.963c-3.64 1.819-10.185 7.411-8.9 15.548a.717.717 0 0 1-.6.821.753.753 0 0 1-.111.009z" transform="translate(959.777 -278.331)" style="fill:#ff754b"/>
        <path data-name="패스 15212" d="M-855.709 440.826q-.211 0-.4-.013a.717.717 0 0 1-.668-.763.717.717 0 0 1 .763-.668c2.421.16 8.395-1.4 13.687-8.435a.717.717 0 0 1 1-.143.718.718 0 0 1 .142 1c-5.392 7.187-11.626 9.022-14.524 9.022z" transform="translate(962.17 -307.057)" style="fill:#ff754b"/>
        <path data-name="패스 15213" d="M-781.775 413.5a.7.7 0 0 1-.164-.019.717.717 0 0 1-.535-.862 19.538 19.538 0 0 0-6.019-19 .717.717 0 0 1-.086-1.011.717.717 0 0 1 1.011-.086 21.012 21.012 0 0 1 6.492 20.427.718.718 0 0 1-.699.551z" transform="translate(913.666 -279.745)" style="fill:#ff754b"/>
        <path data-name="패스 15214" d="M-801.6 415.857a.718.718 0 0 1-.316-.074 18.4 18.4 0 0 1-8.966-9.069 18.814 18.814 0 0 1-1.47-10.468.716.716 0 0 1 .833-.58.717.717 0 0 1 .58.832 17.306 17.306 0 0 0 1.366 9.626 17 17 0 0 0 8.292 8.371.718.718 0 0 1 .327.961.718.718 0 0 1-.646.401z" transform="translate(930.648 -282.098)" style="fill:#ff754b"/>
        <path data-name="패스 15215" d="M23.181 141.483a.718.718 0 0 1-.7-.559c-.871-3.822 2.282-9.239 4.239-12.128 2.349-3.469 5.714-7.29 7.278-7.68a1.268 1.268 0 0 1 1.408.373c.764.975-.068 2.938-2.35 7.259-.174.329-.338.639-.483.92-1.034 1.994-.9 3.26-.809 3.49a.717.717 0 0 1-.4.933.718.718 0 0 1-.933-.4c-.314-.784-.276-2.481.867-4.685.147-.283.312-.6.488-.929.729-1.38 2.356-4.46 2.46-5.536-.907.383-3.753 3.239-6.34 7.059-3.108 4.588-4.576 8.6-4.028 11a.717.717 0 0 1-.54.859.716.716 0 0 1-.157.024z"/>
        <path data-name="패스 15216" d="M38.03 146.488a.716.716 0 0 1-.41-.129.718.718 0 0 1-.178-1 12.384 12.384 0 0 1 3.915-3.67 1.879 1.879 0 0 0 .94-.936.247.247 0 0 0-.032-.225 2.263 2.263 0 0 0-3.023-.814 9.773 9.773 0 0 0-5.9 5.432.717.717 0 0 1-.97.3.718.718 0 0 1-.3-.971 11.227 11.227 0 0 1 6.644-6.095 3.676 3.676 0 0 1 4.744 1.366 1.672 1.672 0 0 1 .219 1.378 3.242 3.242 0 0 1-1.671 1.845 11.148 11.148 0 0 0-3.394 3.215.716.716 0 0 1-.584.304z"/>
        <path data-name="패스 15217" d="M28.317 142.683a.717.717 0 0 1-.317-.074.718.718 0 0 1-.326-.961c.928-1.882 3.754-5.693 7.8-6.649a4.052 4.052 0 0 1 3.876.653 4.255 4.255 0 0 1 1.034 3.727.716.716 0 0 1-.822.6.718.718 0 0 1-.6-.822 2.879 2.879 0 0 0-.593-2.45 2.76 2.76 0 0 0-2.57-.308c-3.527.834-6.019 4.216-6.844 5.888a.718.718 0 0 1-.638.396z"/>
        <path data-name="패스 15218" d="M25.685 137.414a.715.715 0 0 1-.523-.226.718.718 0 0 1 .031-1.015c5.533-5.2 10.524-3.357 12.391-1.652a.717.717 0 0 1 .046 1.013.717.717 0 0 1-1.013.046c-1.527-1.394-5.674-2.846-10.44 1.638a.715.715 0 0 1-.492.196z"/>
        <path data-name="패스 15219" d="M22.274 140.343a.717.717 0 0 1-.714-.654 15.894 15.894 0 0 1 .9-7.7 18.945 18.945 0 0 0 1.051-4.444.718.718 0 0 1 .792-.635.718.718 0 0 1 .635.792 20.442 20.442 0 0 1-1.118 4.747 14.514 14.514 0 0 0-.827 7.113.717.717 0 0 1-.651.778c-.025.003-.046.003-.068.003z"/>
        <path data-name="패스 15220" d="M93.782 65.968a12.216 12.216 0 0 1-12.117-12.285 12.216 12.216 0 0 1 12.117-12.285 12.215 12.215 0 0 1 12.116 12.285 12.215 12.215 0 0 1-12.116 12.285zm0-23.135A10.779 10.779 0 0 0 83.1 53.683a10.779 10.779 0 0 0 10.682 10.85 10.779 10.779 0 0 0 10.681-10.85 10.779 10.779 0 0 0-10.681-10.85z"/>
        <path data-name="패스 15221" d="M121.886 65.631a12.215 12.215 0 0 1-12.285-12.117 12.215 12.215 0 0 1 12.285-12.117 12.216 12.216 0 0 1 12.285 12.117 12.215 12.215 0 0 1-12.285 12.117zm0-22.8a10.779 10.779 0 0 0-10.85 10.682 10.779 10.779 0 0 0 10.85 10.682 10.779 10.779 0 0 0 10.85-10.682 10.779 10.779 0 0 0-10.85-10.68z"/>
        <path data-name="패스 15222" d="M105.226 52.213a.717.717 0 0 1-.528-.232.718.718 0 0 1 .042-1.014c1.406-1.294 3.873-.868 5.109-.414a.718.718 0 0 1 .425.921.718.718 0 0 1-.921.425c-.969-.356-2.814-.639-3.642.123a.715.715 0 0 1-.485.191z"/>
        <ellipse data-name="타원 168" cx="2.693" cy="2.861" rx="2.693" ry="2.861" transform="translate(119.025 53.179)"/>
        <ellipse data-name="타원 169" cx="3.029" cy="2.861" rx="3.029" ry="2.861" transform="translate(93.109 53.852)"/>
        <path data-name="패스 15223" d="M98.83 47.838a.714.714 0 0 1-.4-.125 13.432 13.432 0 0 0-5.4-1.9.717.717 0 0 1-.627-.8.716.716 0 0 1 .8-.627 15.023 15.023 0 0 1 6.04 2.14.717.717 0 0 1 .188 1 .717.717 0 0 1-.601.312z"/>
        <path data-name="패스 15224" d="M115.322 48.511a.713.713 0 0 1-.416-.133.717.717 0 0 1-.168-1 8.556 8.556 0 0 1 8.822-3.114.717.717 0 0 1 .539.86.717.717 0 0 1-.86.539 7.206 7.206 0 0 0-7.333 2.549.716.716 0 0 1-.584.299z"/>
        <path data-name="패스 15225" d="M108.901 63.949c-1.8 0-4.94-.8-5.521-3.953a.717.717 0 0 1 .575-.836.718.718 0 0 1 .836.575c.538 2.92 4.271 2.775 4.309 2.774a.715.715 0 0 1 .751.682.717.717 0 0 1-.682.751 4.671 4.671 0 0 1-.268.007z"/>
        <path data-name="패스 15226" d="M110.993 76.098a16.261 16.261 0 0 1-5.349-1.265.717.717 0 0 1-.423-.922.717.717 0 0 1 .922-.423c5.714 2.12 6.431 1.108 7.731-.73.257-.363.548-.774.891-1.189a.717.717 0 0 1 1.01-.1.718.718 0 0 1 .1 1.01c-.308.373-.571.744-.825 1.1-1.03 1.464-1.938 2.519-4.057 2.519z"/>
        <path data-name="패스 15227" d="M112.231 92.269a10.153 10.153 0 0 1-2.522-.318c-3.925-1-7.21-4.208-11.758-8.649l-.375-.366c-8.228-8.032-9.243-13.316-8.236-18.78a.718.718 0 0 1 .836-.576.717.717 0 0 1 .575.836c-.924 5.012.053 9.906 7.827 17.494l.375.366c4.388 4.285 7.558 7.38 11.109 8.285 3.677.937 7.739-.532 13.58-4.91a.717.717 0 0 1 1 .144.717.717 0 0 1-.144 1c-4.98 3.741-8.812 5.473-12.267 5.474z"/>
        <path data-name="패스 15228" d="M89.253 70.68c2.686-34.28 27.261-48.118 39.5-50.835 7.218 1.17 11.125 20.627 20.217 22.759 2.7 0 5.185-.533 6.417-6.042C161.935 7.3 142.673 6.118 134.21 7.094 85.532-20.079 59.46 37.236 89.253 70.68z"/>
        <path data-name="패스 15229" d="M150.326 59.954a.714.714 0 0 1-.327-.079.718.718 0 0 1-.31-.966 4.759 4.759 0 0 0-.041-3.141.718.718 0 0 1 .446-.911.717.717 0 0 1 .911.446 6.057 6.057 0 0 1-.041 4.263.717.717 0 0 1-.638.388z"/>
        <path data-name="패스 15230" d="M150.662 51.54h-17.5a.717.717 0 0 1-.717-.718.717.717 0 0 1 .717-.718h17.5a.717.717 0 0 1 .718.718.717.717 0 0 1-.718.718z"/>
        <path data-name="패스 15231" d="M149.851 64.33a3.25 3.25 0 0 1-3.235-2.329.717.717 0 0 1 .473-.9.717.717 0 0 1 .9.473 1.858 1.858 0 0 0 1.972 1.317c1.424-.055 3.115-1.238 3.685-3.754.734-3.243.269-5.7-1.278-6.749a3.471 3.471 0 0 0-3.874.172.717.717 0 0 1-1-.183.717.717 0 0 1 .183-1 4.911 4.911 0 0 1 5.493-.179c1.212.821 3.068 2.984 1.874 8.255-.738 3.258-3.058 4.794-5.029 4.871q-.087.006-.164.006z"/>
    </g>
    <g data-name="그룹 29561">
        <path data-name="패스 15232" d="M8.944 69.486c-5.291 0-7.464-1.152-8.347-2.2a2.252 2.252 0 0 1-.564-1.878V34.617c0-1.982 1.923-2.885 3.711-2.885 8.78.107 26.226.245 29.47 0a4.086 4.086 0 0 1 3.523 1.1 3.416 3.416 0 0 1 .758 2.777c-.071 9.151-.163 27.081 0 29.831a3.568 3.568 0 0 1-.991 2.894 4.333 4.333 0 0 1-3.3 1.063 182.215 182.215 0 0 0-21.574 0c-.971.061-1.867.088-2.686.089zM3.736 33.167c-.014 0-2.267.016-2.267 1.45v30.949l-.02.082a.849.849 0 0 0 .246.715c.532.631 2.556 2.052 9.851 1.6a183.814 183.814 0 0 1 21.774 0 2.918 2.918 0 0 0 2.181-.659 2.2 2.2 0 0 0 .561-1.783c-.164-2.794-.073-20.835 0-29.984l.012-.123a1.993 1.993 0 0 0-.4-1.625 2.768 2.768 0 0 0-2.349-.628c-3.296.25-20.796.113-29.589.005z"/>
        <path data-name="패스 15233" d="M118.284 37.774c-5.292 0-7.466-1.152-8.348-2.2a2.254 2.254 0 0 1-.564-1.878V2.905c0-1.983 1.924-2.886 3.711-2.886 8.781.107 26.227.245 29.47 0a4.085 4.085 0 0 1 3.523 1.1 3.416 3.416 0 0 1 .758 2.777c-.071 9.149-.163 27.076 0 29.831a3.568 3.568 0 0 1-.99 2.894 4.338 4.338 0 0 1-3.3 1.063 182.215 182.215 0 0 0-21.574 0c-.972.063-1.867.09-2.686.09zm-5.209-36.32c-.014 0-2.268.017-2.268 1.451v30.948l-.019.082a.848.848 0 0 0 .246.714c.532.632 2.557 2.052 9.851 1.6a183.683 183.683 0 0 1 21.774 0 2.926 2.926 0 0 0 2.181-.66 2.2 2.2 0 0 0 .56-1.783c-.164-2.8-.073-20.837 0-29.984l.012-.123a1.991 1.991 0 0 0-.4-1.625 2.772 2.772 0 0 0-2.349-.628c-3.295.254-20.795.116-29.588.007z"/>
        <path data-name="패스 15234" d="M231.662 69.486c-5.291 0-7.464-1.152-8.347-2.2a2.254 2.254 0 0 1-.564-1.878V34.617c0-1.982 1.924-2.885 3.711-2.885 8.78.107 26.225.245 29.47 0a4.086 4.086 0 0 1 3.522 1.1 3.416 3.416 0 0 1 .758 2.777c-.071 9.151-.163 27.081 0 29.831a3.569 3.569 0 0 1-.991 2.894 4.333 4.333 0 0 1-3.3 1.063 182.216 182.216 0 0 0-21.574 0c-.97.061-1.865.088-2.685.089zm-5.208-36.319c-.014 0-2.267.016-2.267 1.45v30.949l-.019.082a.849.849 0 0 0 .246.715c.532.631 2.557 2.052 9.851 1.6a183.814 183.814 0 0 1 21.774 0 2.92 2.92 0 0 0 2.181-.659 2.2 2.2 0 0 0 .56-1.783c-.164-2.794-.073-20.835 0-29.984l.012-.123a1.991 1.991 0 0 0-.4-1.625 2.768 2.768 0 0 0-2.349-.628c-3.299.25-20.799.113-29.588.005z"/>
        <path data-name="패스 15235" d="M28.21 44.005H9.319a.717.717 0 0 1-.718-.718.717.717 0 0 1 .718-.718H28.21a.717.717 0 0 1 .718.718.717.717 0 0 1-.718.718z"/>
        <path data-name="패스 15236" d="M18.61 48.96H9.216a.718.718 0 0 1-.718-.718.718.718 0 0 1 .718-.718h9.394a.717.717 0 0 1 .718.718.717.717 0 0 1-.718.718z"/>
        <path data-name="패스 15237" d="M26.662 53.915H9.32a.717.717 0 0 1-.718-.718.718.718 0 0 1 .718-.718h17.342a.718.718 0 0 1 .718.718.717.717 0 0 1-.718.718z"/>
        <path data-name="패스 15238" d="M21.397 58.766H9.423a.717.717 0 0 1-.718-.718.717.717 0 0 1 .718-.718h11.974a.717.717 0 0 1 .718.718.717.717 0 0 1-.718.718z"/>
        <path data-name="패스 15239" d="M229.457 60.086a1 1 0 0 1-.326-.055 1 1 0 0 1-.625-1.276l4.955-14.452a1.006 1.006 0 0 1 1.276-.625 1 1 0 0 1 .624 1.276l-4.955 14.452a1 1 0 0 1-.949.68z"/>
        <path data-name="패스 15240" d="M239.573 58.848a1 1 0 0 1-.964-.724c-.193-.664-.385-1.626-.629-2.843-.664-3.328-1.669-8.357-3.522-10.638a1 1 0 0 1 .146-1.413 1 1 0 0 1 1.413.146c2.167 2.667 3.23 7.989 3.933 11.512.224 1.123.418 2.093.587 2.673a1 1 0 0 1-.683 1.245 1 1 0 0 1-.281.042z"/>
        <path data-name="패스 15241" d="M228.321 53.996a1 1 0 0 1-.958-.7 1 1 0 0 1 .658-1.264 46.581 46.581 0 0 1 7.293-1.467 17.688 17.688 0 0 0 3.863-.781 1 1 0 0 1 1.157-.555 1 1 0 0 1 .731 1.218c-.343 1.374-2.163 1.634-5.466 2.107a44.987 44.987 0 0 0-6.976 1.4 1.009 1.009 0 0 1-.302.042zm10.794-4.036z"/>
        <path data-name="패스 15242" d="M250.514 57.505a1.284 1.284 0 0 1-.951-.429c-.86-.937-.782-4.133-.565-6.649a1.006 1.006 0 0 1 1.087-.915 1 1 0 0 1 .915 1.087 19.773 19.773 0 0 0 .043 5.046 1 1 0 0 1 .477.855 1 1 0 0 1-1.006 1.005zm.58-1.72zm-.58-.289z"/>
        <path data-name="패스 15243" d="M243.148 57.492a2.74 2.74 0 0 1-.915-.148 1.766 1.766 0 0 1-1.166-1.474c-.318-2.2 2.562-6.366 5.143-8.236 1.278-.926 2.364-1.154 3.226-.68a2.733 2.733 0 0 1 1.153 2.692l-.025.166a10.834 10.834 0 0 1-5.025 6.976 5.1 5.1 0 0 1-2.391.704zm-.089-1.888zm-.02-.127a2.868 2.868 0 0 0 1.536-.451 8.76 8.76 0 0 0 4.012-5.585 1.5 1.5 0 0 0-.123-.716 2.334 2.334 0 0 0-1.076.536c-2.438 1.767-4.397 5.194-4.349 6.217zm3.761-7.029z"/>
        <path data-name="패스 15244" d="M128.018 26.83a.717.717 0 0 1-.717-.718v-7.226a.717.717 0 0 1 .717-.717.718.718 0 0 1 .718.717v7.226a.718.718 0 0 1-.718.718z"/>
        <path data-name="패스 15245" d="M136.597 29.927h-17.569a2.155 2.155 0 0 1-2.153-2.153V12.125a2.113 2.113 0 0 1 2.111-2.111c.485 0 .926-.614 1.146-.979a3.317 3.317 0 0 1 2.829-1.6 3.3 3.3 0 0 1 3.3 3.3 3.3 3.3 0 0 1-3.3 3.3 3.27 3.27 0 0 1-2.389-1.023.718.718 0 0 1 .025-1.014.717.717 0 0 1 1.014.024 1.849 1.849 0 0 0 1.35.578 1.865 1.865 0 0 0 1.863-1.863 1.865 1.865 0 0 0-1.863-1.863 1.851 1.851 0 0 0-1.6.906 2.822 2.822 0 0 1-2.376 1.675.677.677 0 0 0-.676.676V27.78a.718.718 0 0 0 .718.718h17.569a.718.718 0 0 0 .718-.718V12.172a.718.718 0 0 0-.718-.718h-1.249a.718.718 0 0 1-.718-.718.717.717 0 0 1 .718-.718h1.249a2.155 2.155 0 0 1 2.153 2.153v15.608a2.155 2.155 0 0 1-2.152 2.148z"/>
        <path data-name="패스 15246" d="M132.664 14.029a3.27 3.27 0 0 1-2.388-1.023.717.717 0 0 1 .025-1.014.717.717 0 0 1 1.014.024 1.848 1.848 0 0 0 1.349.578 1.865 1.865 0 0 0 1.863-1.863 1.865 1.865 0 0 0-1.863-1.863 1.854 1.854 0 0 0-1.583.88 2.973 2.973 0 0 1-2.433 1.7h-3a.718.718 0 0 1-.718-.718.717.717 0 0 1 .718-.718h3c.477 0 .924-.557 1.215-1.024a3.281 3.281 0 0 1 2.8-1.556 3.3 3.3 0 0 1 3.3 3.3 3.3 3.3 0 0 1-3.299 3.297z"/>
        <path data-name="패스 15247" d="M137.929 16.92h-18.271a.718.718 0 0 1-.717-.718.717.717 0 0 1 .717-.718h18.271a.717.717 0 0 1 .717.718.718.718 0 0 1-.717.718z"/>
    </g>
</svg>
