<svg xmlns="http://www.w3.org/2000/svg" width="94.76" height="81.718" viewBox="0 0 94.76 81.718">
    <path data-name="패스 15019" d="M80.741 33.222a4.51 4.51 0 0 1-2.516-.682 2.928 2.928 0 0 1-1.252-1.984 3.25 3.25 0 0 1 2.1-3.847 6.5 6.5 0 0 1 1.356-4.783 4.821 4.821 0 0 1 3.79-1.562 4.379 4.379 0 0 1 3.722 1.649 5.119 5.119 0 0 1 .691 4.337.92.92 0 0 1-.231.39l-6.133 6.132a.909.909 0 0 1-.468.252 5.541 5.541 0 0 1-1.059.098zm3.476-11.729a3.741 3.741 0 0 0-2.949 1.179 5.356 5.356 0 0 0-1.069 4 1.01 1.01 0 0 1-.678 1.069 2.136 2.136 0 0 0-1.439 2.615 1.814 1.814 0 0 0 .778 1.249 3.84 3.84 0 0 0 2.65.42l6.047-6.047a3.991 3.991 0 0 0-.525-3.29 3.311 3.311 0 0 0-2.815-1.195zm-5.134 5.321z"/>
    <path data-name="패스 15020" d="M84.561 37.253a4.42 4.42 0 0 1-.767-.07 2.929 2.929 0 0 1-1.984-1.252 5 5 0 0 1-.583-3.573.91.91 0 0 1 .251-.468l6.13-6.131a.921.921 0 0 1 .391-.233 5.119 5.119 0 0 1 4.337.691 4.38 4.38 0 0 1 1.649 3.722 4.82 4.82 0 0 1-1.562 3.79 6.5 6.5 0 0 1-4.783 1.356 3.2 3.2 0 0 1-3.079 2.168zm-2.24-4.61a3.839 3.839 0 0 0 .419 2.65 1.814 1.814 0 0 0 1.249.778 2.135 2.135 0 0 0 2.615-1.44 1.012 1.012 0 0 1 1.068-.678 5.357 5.357 0 0 0 4-1.069 3.741 3.741 0 0 0 1.181-2.944 3.311 3.311 0 0 0-1.2-2.819 3.992 3.992 0 0 0-3.29-.525z"/>
    <path data-name="패스 15021" d="M88.512 25.505a.564.564 0 0 1-.345-1.012 5.348 5.348 0 0 0 1.457-4.826.564.564 0 0 1 1.118-.153 6.433 6.433 0 0 1-1.887 5.873.562.562 0 0 1-.343.118z"/>
    <path data-name="패스 15022" d="M88.845 26.248a.564.564 0 0 1-.447-.908 6.436 6.436 0 0 1 5.873-1.887.564.564 0 1 1-.152 1.118 5.348 5.348 0 0 0-4.826 1.457.563.563 0 0 1-.448.22z"/>
    <path data-name="패스 15023" d="M35.612 17.421a5.309 5.309 0 0 1-2.952-1.04.911.911 0 0 1-.316-.428L29.42 7.792a.917.917 0 0 1-.043-.453 5.119 5.119 0 0 1 2.477-3.626 4.38 4.38 0 0 1 4.07.1 4.82 4.82 0 0 1 2.759 3.031 6.5 6.5 0 0 1-.817 4.9 3.25 3.25 0 0 1 .253 4.374 2.928 2.928 0 0 1-1.979 1.259 3.339 3.339 0 0 1-.528.044zm-2.227-1.909a3.84 3.84 0 0 0 2.576.753 1.814 1.814 0 0 0 1.237-.8 2.137 2.137 0 0 0-.184-2.979 1.01 1.01 0 0 1-.157-1.255 5.355 5.355 0 0 0 .743-4.076 3.742 3.742 0 0 0-2.158-2.326 3.31 3.31 0 0 0-3.061-.121 3.991 3.991 0 0 0-1.88 2.751z"/>
    <path data-name="패스 15024" d="M29.983 19.32a3.5 3.5 0 0 1-3.445-3.66 6.5 6.5 0 0 1-3.745-3.269A4.82 4.82 0 0 1 23 8.297l.51.241-.51-.241a4.379 4.379 0 0 1 3.081-2.661 5.118 5.118 0 0 1 4.217 1.228.918.918 0 0 1 .254.378l2.924 8.162a.911.911 0 0 1 .027.531 5 5 0 0 1-2.053 2.981 2.868 2.868 0 0 1-1.467.404zM26.912 6.682a2.99 2.99 0 0 0-.6.06 3.311 3.311 0 0 0-2.288 2.037 3.742 3.742 0 0 0-.19 3.167 5.355 5.355 0 0 0 3.162 2.677 1.01 1.01 0 0 1 .676 1.07 2.136 2.136 0 0 0 1.749 2.418 1.814 1.814 0 0 0 1.462-.17 3.838 3.838 0 0 0 1.511-2.217L29.51 7.673a4.2 4.2 0 0 0-2.598-.991z"/>
    <path data-name="패스 15025" d="M30.085 6.68a.564.564 0 0 1-.5-.307 6.433 6.433 0 0 1 .8-6.116.564.564 0 0 1 .946.616 5.347 5.347 0 0 0-.745 4.986.565.565 0 0 1-.5.822z"/>
    <path data-name="패스 15026" d="M29.465 7.208a.565.565 0 0 1-.551-.444 5.276 5.276 0 0 0-3.741-3.379.564.564 0 0 1 .34-1.076 6.434 6.434 0 0 1 4.5 4.215.565.565 0 0 1-.552.685z"/>
    <path data-name="패스 15027" d="M57.512 51.846h-.023a.564.564 0 0 1-.542-.586c.233-5.976-.5-12.7-2.095-13.143-2.959-.822-18.261-.812-28.726.019a93.412 93.412 0 0 1-14.218.188c-4.482-.369-6.808-1.233-7.109-2.639a1 1 0 0 1 .217-.858c.422-.532 1.684-1.308 7.744-1.908 4.563-.451 9.423-.567 10.8-.592.917-.008 22.394-.167 27.085 2.309a.565.565 0 1 1-.527 1c-3.3-1.739-17.681-2.256-26.543-2.178-1.4.025-6.32.142-10.885.6-5.641.57-6.615 1.268-6.775 1.444.216.58 1.916 1.351 6.082 1.694a92.24 92.24 0 0 0 14.035-.188c10.769-.855 26.008-.845 29.118.019 3.274.91 3.007 12.05 2.92 14.275a.564.564 0 0 1-.558.544z"/>
    <path data-name="패스 15028" d="M54.206 51.562h-.034a.565.565 0 0 1-.533-.594c.012-.224.019-.474.019-.741a22.778 22.778 0 0 0-.19-2.828.564.564 0 1 1 1.119-.142 23.9 23.9 0 0 1 .2 2.97c0 .288-.007.558-.02.8a.564.564 0 0 1-.561.535zm-.934-7.261a.565.565 0 0 1-.518-.339 4.221 4.221 0 0 0-2.351-2.131.564.564 0 0 1 .444-1.038 5.307 5.307 0 0 1 2.941 2.717.565.565 0 0 1-.517.79zm-43.951-1.43a9.524 9.524 0 0 1-2.89-.425.564.564 0 1 1 .342-1.075 8.924 8.924 0 0 0 3.42.336.564.564 0 0 1 .09 1.125c-.329.025-.653.039-.966.039zm4.594-.3a.567.567 0 0 1-.043-1.133c1.057-.065 2.3-.136 3.684-.209a.564.564 0 1 1 .06 1.127c-1.385.073-2.621.144-3.675.208zm7.359-.394a.564.564 0 0 1-.027-1.128c1.189-.057 2.423-.115 3.682-.172a.565.565 0 0 1 .051 1.128c-1.258.057-2.49.114-3.678.171zm7.358-.333a.564.564 0 0 1-.024-1.128c1.226-.053 2.459-.1 3.681-.154a.564.564 0 1 1 .046 1.128c-1.222.05-2.453.1-3.679.154zm7.361-.3a.564.564 0 0 1-.022-1.128c1.265-.05 2.5-.1 3.682-.143a.564.564 0 1 1 .043 1.128l-3.68.143zm7.364-.28a.564.564 0 0 1-.02-1.128l2.958-.106c.225-.012.486-.016.759-.009a.564.564 0 0 1-.029 1.128q-.363-.009-.679.008l-2.967.107zm-39.828-.728a.563.563 0 0 1-.416-.182 7.335 7.335 0 0 1-1.823-3.5.564.564 0 0 1 1.109-.21 6.263 6.263 0 0 0 1.544 2.947.564.564 0 0 1-.415.946z"/>
    <path data-name="패스 15029" d="M11.078 77.1q-.5 0-.956-.008a.564.564 0 0 1 .01-1.128h.01c1.052.018 2.3 0 3.648-.045a.564.564 0 0 1 .041 1.128 80.3 80.3 0 0 1-2.753.053zm6.406-.25a.564.564 0 0 1-.038-1.127q.6-.041 1.238-.09c.812-.063 1.632-.119 2.438-.167a.565.565 0 0 1 .068 1.127c-.8.048-1.613.1-2.419.165q-.641.05-1.247.091zm-11.017-.024a.56.56 0 0 1-.091-.007c-1.506-.244-1.87-.583-2.019-.851a.564.564 0 0 1 .95-.605 3.676 3.676 0 0 0 1.249.342.564.564 0 0 1-.089 1.122zm-1.123-1.407zm19.486 1a.564.564 0 0 1-.02-1.128c1.194-.042 2.4-.071 3.69-.089a.565.565 0 0 1 .015 1.129c-1.28.018-2.48.046-3.666.089zm11.037-.094-1.336-.006q-1.138-.006-2.342-.009a.564.564 0 0 1 0-1.129q1.207 0 2.346.009l1.335.006a.564.564 0 0 1 0 1.129zm3.679-.015a.565.565 0 0 1-.009-1.129c1.377-.023 2.57-.07 3.646-.146a.564.564 0 1 1 .079 1.126 69.4 69.4 0 0 1-3.706.148zm7.329-.563a.564.564 0 0 1-.093-1.121 6.978 6.978 0 0 0 3.123-1.26.566.566 0 1 1 .687.9 8.084 8.084 0 0 1-3.622 1.478.574.574 0 0 1-.096 0zm5.383-4.372a.565.565 0 0 1-.543-.719 6.843 6.843 0 0 0 .067-3.353.566.566 0 0 1 1.1-.268 7.97 7.97 0 0 1-.078 3.929.565.565 0 0 1-.547.409z"/>
    <path data-name="패스 15030" d="M34.115 81.718c-1.762 0-3.418-.012-4.861-.027-10.833-.118-22.945-.638-24.461-1.3-2.334-1.021-3.408-4.112-3.675-5.778-2.2-13.625-.57-34.016-.019-39.941a1.143 1.143 0 0 1 .19-.549c1.36-2.012 5.921-3.112 9.507-3.681a89.765 89.765 0 0 1 23.132-.224c6.491.768 15.371 2.574 20.818 6.818a.564.564 0 0 1-.694.89c-9.184-7.157-30.92-8.3-43.08-6.369-4.686.743-7.874 1.908-8.747 3.2v.023c-.551 5.887-2.17 26.159.007 39.65.249 1.558 1.257 4.155 3.012 4.923 1.046.458 11.169 1.066 24.021 1.206 15.331.167 23.039-.445 23.879-1.128 2.343-1.9 3.979-7.817 3.8-13.756a.564.564 0 0 1 .547-.58h.024a.564.564 0 0 1 .564.548c.16 5.453-1.238 12.241-4.22 14.665-.5.409-1.943.916-8.659 1.207-3.541.156-7.531.203-11.085.203z"/>
    <path data-name="패스 15031" d="M48.752 67.793a46.677 46.677 0 0 1-6.541-.5 1.291 1.291 0 0 1-1.077-.987c-.261-1.172-2.429-11.528 1.877-14.239a1.223 1.223 0 0 1 .619-.184c5.2-.138 13.525-.637 15.133-1.441a.564.564 0 1 1 .5 1.01c-2.348 1.174-14.257 1.523-15.608 1.559a.107.107 0 0 0-.048.01c-2.581 1.625-2.523 7.9-1.377 13.038a.16.16 0 0 0 .134.116c11.652 1.654 16.665-1.257 17.791-3.238.78-2.747.833-9.123.307-11.885-.464-2.435-2.151-2.97-2.709-2.891a.564.564 0 1 1-.16-1.117c.994-.142 3.372.617 3.978 3.8.559 2.936.5 9.473-.325 12.392a1.166 1.166 0 0 1-.109.262c-1.235 2.183-5.165 4.295-12.385 4.295z"/>
    <g data-name="그룹 28172" transform="translate(44.991 55.482)">
        <circle data-name="타원 150" cx="3.845" cy="3.845" r="3.845" transform="translate(.484 .484)" style="fill:#ff754b"/>
        <path data-name="패스 15032" d="M283.847 353.449a4.329 4.329 0 1 1 4.329-4.329 4.334 4.334 0 0 1-4.329 4.329zm0-7.69a3.361 3.361 0 1 0 3.361 3.361 3.365 3.365 0 0 0-3.361-3.362z" transform="translate(-279.518 -344.791)" style="fill:#040000"/>
    </g>
    <path data-name="패스 15033" d="M49.057 65.776c-.332 0-.673-.009-1.014-.026a.564.564 0 1 1 .057-1.127c.322.016.644.024.957.024h.008a16.718 16.718 0 0 0 2.587-.194.564.564 0 0 1 .175 1.115 17.88 17.88 0 0 1-2.763.208zm-4.622-.545a.567.567 0 0 1-.135-.016l-.169-.043a1.275 1.275 0 0 1-.936-1.116 65.119 65.119 0 0 1-.2-2.665.564.564 0 1 1 1.127-.062c.044.807.111 1.689.2 2.621a.145.145 0 0 0 .1.13l.153.039a.564.564 0 0 1-.134 1.112zm10.816-.715a.565.565 0 0 1-.245-1.073q.121-.058.242-.12a.564.564 0 0 1 .517 1q-.134.069-.269.134a.564.564 0 0 1-.245.059zm-11.725-6.269h-.034a.564.564 0 0 1-.53-.6c.132-2.246.591-3.365 1.406-3.42a1.31 1.31 0 0 1 .163 0h.019l.389.005a.565.565 0 1 1-.012 1.129l-.386-.005a5.422 5.422 0 0 0-.453 2.353.564.564 0 0 1-.562.538zm5.086-2.955a.564.564 0 0 1-.029-1.128 57.924 57.924 0 0 0 3.635-.3.564.564 0 0 1 .124 1.122 63.283 63.283 0 0 1-3.7.3zm7.311-.814a.564.564 0 0 1-.1-1.12 35.975 35.975 0 0 0 3.534-.774.564.564 0 1 1 .314 1.084 37.119 37.119 0 0 1-3.655.8.576.576 0 0 1-.093.009z"/>
</svg>
