<svg xmlns="http://www.w3.org/2000/svg" width="237.79" height="266.776" viewBox="0 0 237.79 266.776">
    <path data-name="패스 15124" d="M155.448 33.58a1.286 1.286 0 0 1-1.146-.694c-3.934-7.558-9.687-9.126-12.178-8.9a.914.914 0 0 1-.992-.827.913.913 0 0 1 .827-.992c2.807-.254 9.1 1.334 13.474 8.979 2.412-4.6 5.265-9.023 10.183-10.411 4.136-1.168 9.156-.024 15.314 3.5-2.57-7.031-1.786-16.189 8.135-21.3l-1.386-.405a1.244 1.244 0 0 1-.911-1.331 1.231 1.231 0 0 1 1.152-1.1c2.876-.224 6.473-.166 7.278 1.381a1.753 1.753 0 0 1-.368 2.016c-1.74 2.113-2.125 3.335-1.719 5.446a.913.913 0 0 1-.724 1.068.913.913 0 0 1-1.069-.724c-.512-2.665.018-4.419 2.1-6.952.021-.025.038-.048.053-.068a5.97 5.97 0 0 0-2.031-.39 1.279 1.279 0 0 1 .395.847A1.289 1.289 0 0 1 191.07 4c-13.674 6.1-8.99 18.467-7.912 20.883a1.307 1.307 0 0 1-.347 1.518 1.312 1.312 0 0 1-1.555.15c-6.288-3.832-11.243-5.158-15.148-4.057-4.537 1.281-7.093 5.646-9.523 10.391a1.277 1.277 0 0 1-1.137.7z"/>
    <path data-name="패스 15125" d="M-956.457 337.265a1.1 1.1 0 0 0-1.338.708l-1.1 3.307a1.1 1.1 0 0 1-.851.734l-3.435.6a1.1 1.1 0 0 0-.9 1.218l.443 3.458a1.1 1.1 0 0 1-.449 1.03l-2.835 2.029a1.1 1.1 0 0 0-.281 1.488l1.9 2.923a1.1 1.1 0 0 1 .043 1.123l-1.673 3.058a1.1 1.1 0 0 0 .392 1.462l2.98 1.809a1.1 1.1 0 0 1 .525.993l-.181 3.482a1.1 1.1 0 0 0 .988 1.147l3.47.337a1.1 1.1 0 0 1 .9.667l1.348 3.215a1.1 1.1 0 0 0 1.388.6l3.272-1.2a1.1 1.1 0 0 1 1.1.208l2.609 2.312a1.1 1.1 0 0 0 1.513-.057l2.427-2.5a1.1 1.1 0 0 1 1.085-.291l3.354.951a1.1 1.1 0 0 0 1.338-.708l1.1-3.308a1.1 1.1 0 0 1 .852-.734l3.434-.6a1.1 1.1 0 0 0 .9-1.218l-.443-3.458a1.1 1.1 0 0 1 .449-1.03l2.835-2.03a1.1 1.1 0 0 0 .281-1.488l-1.9-2.923a1.1 1.1 0 0 1-.043-1.123l1.673-3.058a1.1 1.1 0 0 0-.392-1.462l-2.98-1.809a1.1 1.1 0 0 1-.525-.993l.181-3.482a1.1 1.1 0 0 0-.988-1.147l-3.47-.337a1.094 1.094 0 0 1-.9-.667l-1.348-3.215a1.1 1.1 0 0 0-1.388-.6l-3.272 1.2a1.094 1.094 0 0 1-1.1-.208l-2.609-2.312a1.1 1.1 0 0 0-1.513.057l-2.427 2.5a1.1 1.1 0 0 1-1.085.291zm3.218 14.687a1.216 1.216 0 0 1-.506 1.644 1.216 1.216 0 0 1-1.644-.506 1.216 1.216 0 0 1 .506-1.644 1.216 1.216 0 0 1 1.645.507zm1.614-.854a3.042 3.042 0 0 1-1.266 4.112 3.042 3.042 0 0 1-4.109-1.266 3.042 3.042 0 0 1 1.266-4.112 3.043 3.043 0 0 1 4.11 1.268zm10.581 6.646a1.216 1.216 0 0 0 .506-1.644 1.216 1.216 0 0 0-1.644-.506 1.216 1.216 0 0 0-.506 1.644 1.216 1.216 0 0 0 1.645.507zm.854 1.614a3.043 3.043 0 0 0 1.266-4.112 3.043 3.043 0 0 0-4.112-1.266 3.042 3.042 0 0 0-1.266 4.112 3.042 3.042 0 0 0 4.113 1.267zm-7.316-12.429a.913.913 0 0 0-.965-.857.913.913 0 0 0-.857.966l.907 15.222a.913.913 0 0 0 .966.857.913.913 0 0 0 .857-.965z" transform="translate(967.378 -228.012)" style="fill-rule:evenodd"/>
    <path data-name="패스 15126" d="M219.697 90.718a18.034 18.034 0 0 1-18.093-17.933 18.034 18.034 0 0 1 18.093-17.933 18.034 18.034 0 0 1 18.093 17.933 18.034 18.034 0 0 1-18.093 17.933zm0-34.04a16.206 16.206 0 0 0-16.267 16.107 16.206 16.206 0 0 0 16.267 16.105 16.206 16.206 0 0 0 16.264-16.105 16.206 16.206 0 0 0-16.264-16.107z"/>
    <path data-name="패스 15127" d="M219.857 84.266a.913.913 0 0 1-.913-.913v-2.562a.913.913 0 0 1 .913-.913.913.913 0 0 1 .913.913v2.562a.913.913 0 0 1-.913.913z"/>
    <path data-name="패스 15128" d="M219.857 65.691a.913.913 0 0 1-.913-.913v-2.562a.913.913 0 0 1 .913-.913.913.913 0 0 1 .913.913v2.557a.913.913 0 0 1-.913.918z"/>
    <path data-name="패스 15129" d="M218.914 81.703a8.76 8.76 0 0 1-3.549-.752.913.913 0 0 1-.456-1.208.913.913 0 0 1 1.208-.456 6.833 6.833 0 0 0 3.623.536 5.189 5.189 0 0 0 2.442-.971 2.282 2.282 0 0 0 .963-2.021 3.293 3.293 0 0 0-2.077-2.487c-.342-.171-.72-.34-1.113-.517-2.391-1.077-5.665-2.552-5.115-5.968.407-2.527 2.236-3.983 5.019-3.993h.031a11.69 11.69 0 0 1 4.857 1.184.913.913 0 0 1 .411 1.224.912.912 0 0 1-1.224.411 9.779 9.779 0 0 0-4.069-.992c-2.829.011-3.126 1.853-3.223 2.458-.3 1.889 1.492 2.855 4.063 4.013.415.187.808.364 1.175.547a5.092 5.092 0 0 1 3.083 3.958 4.092 4.092 0 0 1-1.69 3.648 6.994 6.994 0 0 1-3.29 1.316 8.028 8.028 0 0 1-1.069.07z"/>
    <path data-name="패스 15130" d="M123.624 35.271a.913.913 0 0 1-.874-.65c-1.777-5.912-2.039-14.59 2.557-21.22 3.968-5.725 10.762-8.946 20.193-9.575 24.086-1.606 27.816-1.286 31.907-.631a.913.913 0 0 1 .757 1.046.912.912 0 0 1-1.046.757c-3.965-.635-7.608-.942-31.5.65-8.848.59-15.178 3.548-18.813 8.794-4.226 6.1-3.964 14.15-2.309 19.654a.913.913 0 0 1-.611 1.137.917.917 0 0 1-.261.038z"/>
    <path data-name="패스 15131" d="M77.996 208.193a.912.912 0 0 1-.74-.376.913.913 0 0 1 .2-1.275c.922-.669 22.66-16.333 30.454-11.36 3.474 2.218 4.759 3.813 4.167 5.174-.911 2.093-5.467.982-5.984.849a.913.913 0 0 1-.655-1.112.914.914 0 0 1 1.112-.655 7.2 7.2 0 0 0 3.8.187c-.115-.272-.68-1.151-3.426-2.9-5.017-3.2-19.732 5-28.4 11.3a.909.909 0 0 1-.528.168z"/>
    <path data-name="패스 15132" d="M110.69 207.876a4.115 4.115 0 0 1-1.942-.818 6.867 6.867 0 0 0-3.467-1.332h-6.79a.913.913 0 0 1-.913-.913.913.913 0 0 1 .913-.913h6.79a8.4 8.4 0 0 1 4.41 1.594c.207.128.466.289.678.4a7.6 7.6 0 0 0 0-1.039 2.858 2.858 0 0 0-1.1-2.167c-2.239-1.828-7.047-1.685-9.535-1.313a.913.913 0 0 1-1.038-.768.913.913 0 0 1 .767-1.038c3.459-.517 8.4-.383 10.96 1.7a4.651 4.651 0 0 1 1.773 3.486c.072 1.422-.039 2.463-.815 2.921a1.322 1.322 0 0 1-.691.2z"/>
    <path data-name="패스 15133" d="M107.755 211.713a9.232 9.232 0 0 1-2-.249c-5.041-1.129-6.57-.682-6.734-.624a.913.913 0 0 1-1.229-.148.913.913 0 0 1 .1-1.287c.929-.791 3.94-.69 8.26.278 1.441.323 2.487.268 2.8-.149.3-.394.144-1.36-.356-2.35a6.434 6.434 0 0 0-3.28-1.231h-6.831a.913.913 0 0 1-.913-.913.913.913 0 0 1 .913-.913h6.831a8.381 8.381 0 0 1 4.437 1.627l.2.125.135.22c.37.671 1.487 2.981.325 4.53a3.121 3.121 0 0 1-2.658 1.084zm-8.672-.919z"/>
    <path data-name="패스 15134" d="M86.144 221.331a8.322 8.322 0 0 1-6.961-3.587.913.913 0 0 1 .192-1.277.913.913 0 0 1 1.276.193c3.3 4.467 8.678 2.7 11.129 1.106a15.337 15.337 0 0 1 12.361-3.545c1.88.3 2.578.011 2.685-.183.181-.328-.228-1.537-1.467-2.953a.912.912 0 0 1 .086-1.288.913.913 0 0 1 1.288.086c.825.942 2.64 3.32 1.691 5.038-.927 1.68-3.668 1.246-4.569 1.1a13.351 13.351 0 0 0-10.863 3.109l-.134.109a12.809 12.809 0 0 1-6.714 2.092z"/>
    <path data-name="패스 15135" d="M43.062 243.733c-4.7 0-9.631-1.3-12.988-4.933-5.091-5.506-5.6-14.91-1.507-27.952.921-2.935 1.808-5.825 2.666-8.621 10.453-34.057 18.005-58.664 55.563-65.653a.914.914 0 0 1 1.065.731.913.913 0 0 1-.731 1.064c-36.471 6.786-43.888 30.95-54.152 64.393-.859 2.8-1.746 5.691-2.669 8.631-3.881 12.373-3.509 21.176 1.106 26.166 4.311 4.662 11.7 4.978 17.182 3.718l.067-.013c6.927-1.056 23.19-10.087 26.512-18.524.714-2.712 1.975-9.164-1.319-11.73-2.353-1.833-8.04-2.421-21.774 5.193a.913.913 0 0 1-1.241-.356.913.913 0 0 1 .356-1.241c11.725-6.5 19.727-8.2 23.781-5.036 4.023 3.134 2.947 9.921 1.948 13.688l-.031.1c-3.614 9.31-20.706 18.588-27.923 19.709a26.8 26.8 0 0 1-5.911.666z"/>
    <path data-name="패스 15136" d="M59.102 210.436a.9.9 0 0 1-.389-.088.913.913 0 0 1-.435-1.216c.784-1.659 1.483-3.1 2.105-4.389 4.3-8.886 4.852-10.028 4.852-22.44a.913.913 0 0 1 .913-.913.913.913 0 0 1 .913.913c0 12.831-.671 14.217-5.035 23.236-.62 1.282-1.316 2.721-2.1 4.374a.913.913 0 0 1-.824.523z"/>
    <path data-name="패스 15137" d="M-638.723 554.239a.913.913 0 0 1-.913-.913v-4.163a.913.913 0 0 1 .913-.913.913.913 0 0 1 .913.913v4.163a.913.913 0 0 1-.913.913z" transform="translate(759.31 -363.338)" style="fill:#ff754b"/>
    <path data-name="패스 15138" d="M-625.569 551.691a.908.908 0 0 1-.273-.042.913.913 0 0 1-.6-1.144l1.6-5.124a.912.912 0 0 1 1.143-.6.913.913 0 0 1 .6 1.144l-1.6 5.124a.913.913 0 0 1-.87.642z" transform="translate(750.959 -361.11)" style="fill:#ff754b"/>
    <path data-name="패스 15139" d="M-612.415 548.518a.909.909 0 0 1-.359-.075.913.913 0 0 1-.479-1.2l3.843-8.966a.912.912 0 0 1 1.2-.48.913.913 0 0 1 .479 1.2l-3.843 8.966a.914.914 0 0 1-.841.555z" transform="translate(742.607 -356.656)" style="fill:#ff754b"/>
    <path data-name="패스 15140" d="M99.405 266.776a150.236 150.236 0 0 1-39.94-5.854l-.491-.145-.133-.494c-.409-1.521-.75-2.672-1.05-3.687-1.1-3.7-1.6-5.4-2.481-15.289a.913.913 0 0 1 .828-.991.914.914 0 0 1 .99.828c.867 9.714 1.319 11.241 2.413 14.934.27.912.573 1.934.929 3.235 20.031 5.8 61.222 11.654 77.032-6.974a.913.913 0 0 1 1.287-.106.913.913 0 0 1 .105 1.286c-8.482 9.997-23.824 13.257-39.489 13.257z"/>
    <path data-name="패스 15141" d="M76.073 167.206a.911.911 0 0 1-.5-.151.913.913 0 0 1-.259-1.265l.6-.916a14.956 14.956 0 0 1 17.91-5.6 13.093 13.093 0 0 0 14.681-3.549l4.987-5.727a.914.914 0 0 1 1.288-.089.913.913 0 0 1 .089 1.288l-4.987 5.727a14.918 14.918 0 0 1-16.731 4.047 13.123 13.123 0 0 0-15.713 4.906l-.6.914a.911.911 0 0 1-.765.415z"/>
    <path data-name="패스 15142" d="M110.688 137.187c1.4-3.931.12-6.577-1.123-7.081-7.489 6.653-18.848 4.183-23.056.151-1.5 1.331-.627 5.267 0 6.476 8.11 8.709 19.655 3.831 24.179.454z"/>
    <path data-name="패스 15143" d="M132.759 72.541c-3.49 12.565-5.241 13.678-10.318 19.244 0-5.5-.946-14.735-.946-18.58-16.636 0-30.674-6.8-35.619-10.2.181 11.535-10.618 19.077-10.618 19.077s1.548 4.659 2.434 15.084c.711 8.341-1.329 6.729-2.434 4.881-3.184-10.293-8.4-7.542-10.618-4.881-27.146-44.183 14.6-52.72 22.566-51.907 6.018-5.146 14.41-9.179 20.307-9.771 21.28-2.136 30.908 16.68 25.246 37.053z"/>
    <path data-name="패스 15144" d="M98.08 132.948a19.042 19.042 0 0 1-5.757-.913c-8.951-2.831-16.1-11.665-17.791-21.983a.912.912 0 0 1 .753-1.048.913.913 0 0 1 1.048.753c1.557 9.5 8.359 17.95 16.54 20.537 6.447 2.039 12.856.243 18.045-5.055 13.99-14.284 10.66-41.469 9.407-51.7a.913.913 0 0 1 .8-1.017.912.912 0 0 1 1.017.795c1.282 10.472 4.689 38.29-9.915 53.2-4.156 4.24-9.039 6.431-14.147 6.431z"/>
    <path data-name="패스 15145" d="M75.433 110.523c-5.961 0-9-2.625-10.5-4.828a11.593 11.593 0 0 1-1.306-10.19.913.913 0 0 1 1.184-.513.912.912 0 0 1 .514 1.184 9.808 9.808 0 0 0 1.118 8.493c1.793 2.636 4.9 4.029 8.987 4.029a.913.913 0 0 1 .913.913.913.913 0 0 1-.91.912z"/>
    <path data-name="패스 15146" d="M72.23 103.158a.912.912 0 0 1-.425-.105 4.488 4.488 0 0 1-2.64-4.869.914.914 0 0 1 1.105-.667.913.913 0 0 1 .667 1.105c0 .017-.393 1.7 1.719 2.816a.913.913 0 0 1 .382 1.233.913.913 0 0 1-.808.487z"/>
    <path data-name="패스 15147" d="M121.226 108.282a.914.914 0 0 1-.842-.559.913.913 0 0 1 .487-1.2c2.8-1.18 5.707-5.919 4.677-15.392a.912.912 0 0 1 .808-1.006.914.914 0 0 1 1.006.809c1.138 10.46-2.242 15.78-5.784 17.272a.9.9 0 0 1-.352.076z"/>
    <path data-name="패스 15148" d="M101.369 119.17a5.359 5.359 0 0 1-1.541-.254.913.913 0 0 1-.611-1.137.914.914 0 0 1 1.137-.611c1.61.485 1.924-.005 2.853-1.461a13.2 13.2 0 0 1 2.016-2.591.913.913 0 0 1 1.29.027.912.912 0 0 1-.027 1.29 11.553 11.553 0 0 0-1.741 2.255c-.779 1.224-1.582 2.482-3.376 2.482z"/>
    <path data-name="패스 15149" d="M111.139 98.082a2.486 2.486 0 0 0 2.4-2.562 2.486 2.486 0 0 0-2.4-2.562 2.486 2.486 0 0 0-2.4 2.562 2.486 2.486 0 0 0 2.4 2.562z"/>
    <path data-name="패스 15150" d="M90.004 98.082a2.517 2.517 0 0 0 2.722-2.242 2.517 2.517 0 0 0-2.722-2.242 2.517 2.517 0 0 0-2.722 2.242 2.517 2.517 0 0 0 2.722 2.242z"/>
    <path data-name="패스 15151" d="M84.72 91.31a.914.914 0 0 1-.332-.062.913.913 0 0 1-.519-1.182c.64-1.643 3.278-4.512 8.686-3.613a.912.912 0 0 1 .751 1.05.914.914 0 0 1-1.05.751c-4.25-.707-6.231 1.31-6.685 2.475a.914.914 0 0 1-.851.581z"/>
    <path data-name="패스 15152" d="M114.82 88.428a.908.908 0 0 1-.42-.1 7.17 7.17 0 0 0-6.783-.035.913.913 0 0 1-1.258-.292.913.913 0 0 1 .292-1.258 9.086 9.086 0 0 1 8.589-.035.913.913 0 0 1 .39 1.231.912.912 0 0 1-.81.489z"/>
    <path data-name="패스 15153" d="M100.413 105.401a.923.923 0 0 1-.157-.013c-2.983-.517-2.459-7.6-2.1-10.615a.912.912 0 0 1 1.016-.8.913.913 0 0 1 .8 1.015c-.622 5.162.032 8.5.595 8.6a.912.912 0 0 1 .743 1.055.913.913 0 0 1-.897.758z"/>
    <path data-name="패스 15154" d="M94.58 197.947a.912.912 0 0 1-.785-.446l-8.26-13.877a3.152 3.152 0 0 1-.342-2.431 3.146 3.146 0 0 1 1.487-1.944 3.177 3.177 0 0 1 4.289 1.122l8.625 14.434a.913.913 0 0 1-.315 1.252.913.913 0 0 1-1.252-.315l-8.626-14.435a1.344 1.344 0 0 0-1.813-.474 1.332 1.332 0 0 0-.629.824 1.34 1.34 0 0 0 .145 1.034l8.26 13.877a.913.913 0 0 1-.318 1.251.911.911 0 0 1-.466.128z"/>
    <path data-name="패스 15155" d="M96.567 246.301a.914.914 0 0 1-.27-.041.913.913 0 0 1-.6-1.142 239.575 239.575 0 0 1 9.81-26.216c4.922-10.764 8.937-15.806 12.286-15.394.182.023.363.059.543.1.119.025.239.05.359.067l24.435 3.423a.913.913 0 0 1 .777 1.031.91.91 0 0 1-1.031.777l-24.435-3.423a7.161 7.161 0 0 1-.478-.088c-.131-.027-.261-.056-.392-.072-1.1-.136-4.3 1-10.4 14.341a237.705 237.705 0 0 0-9.726 26 .913.913 0 0 1-.878.637z"/>
    <path data-name="패스 15156" d="M144.282 221.321a.918.918 0 0 1-.289-.047.913.913 0 0 1-.577-1.155l2.242-6.725a.915.915 0 0 1 1.155-.577.913.913 0 0 1 .577 1.155l-2.242 6.725a.913.913 0 0 1-.866.624z"/>
    <path data-name="패스 15157" d="M130.395 253.666a5.888 5.888 0 0 1-.731-.046l-23.158-2.894a5.809 5.809 0 0 1-4.172-2.61 5.678 5.678 0 0 1-.659-4.764c3.006-9.763 10.592-32.835 16.119-36.209a.914.914 0 0 1 1.255.3.913.913 0 0 1-.3 1.255c-3.361 2.052-9.376 15.864-15.325 35.188a3.855 3.855 0 0 0 .448 3.236 3.989 3.989 0 0 0 2.865 1.79l23.157 2.894a4.022 4.022 0 0 0 4.338-2.77l1.819-5.752a.912.912 0 0 1 1.146-.595.913.913 0 0 1 .6 1.145l-1.819 5.753a5.848 5.848 0 0 1-5.583 4.079z"/>
    <path data-name="패스 15158" d="M122.025 211.399a.913.913 0 0 1-.858-.6.913.913 0 0 1 .546-1.17c1.089-.4 4.063-3.226 3.277-5.973a3.625 3.625 0 0 0-.707-1.32 2.9 2.9 0 0 0-3.968-.688c-.954.588-1.688 1.706-1.244 2.7a.913.913 0 0 1-.463 1.205.914.914 0 0 1-1.2-.463 4.067 4.067 0 0 1 1.954-5 4.733 4.733 0 0 1 6.338 1.086 5.435 5.435 0 0 1 1.051 1.98c1.107 3.872-2.636 7.541-4.411 8.186a.905.905 0 0 1-.315.057z"/>
    <path data-name="패스 15159" d="M129.475 212.997a.913.913 0 0 1-.9-.788.913.913 0 0 1 .78-1.029 5.291 5.291 0 0 0 3.634-2.444 4.159 4.159 0 0 0-.022-3.835 4.015 4.015 0 0 0-3.2-2.139 4.125 4.125 0 0 0-3.35 1.306.913.913 0 0 1-1.285.129.913.913 0 0 1-.129-1.285 5.879 5.879 0 0 1 4.905-1.971 5.887 5.887 0 0 1 4.657 3.078l.046.089a5.928 5.928 0 0 1-.028 5.513 7.057 7.057 0 0 1-4.981 3.367.928.928 0 0 1-.127.009z"/>
    <path data-name="패스 15160" d="M138.57 213.639a3.272 3.272 0 0 1-.7-.073.912.912 0 0 1-.695-1.088.912.912 0 0 1 1.088-.7 4.564 4.564 0 0 0 3.758-1.957 3.98 3.98 0 0 0-.035-4.59c-2.138-2.679-5.965-1.212-7.392-.123a.913.913 0 0 1-1.279-.172.913.913 0 0 1 .172-1.279c1.963-1.5 6.984-3.347 9.975.5l.064.094a5.724 5.724 0 0 1-.024 6.642 6.664 6.664 0 0 1-4.932 2.746z"/>
    <path data-name="패스 15161" d="M144.477 214.598a.913.913 0 0 1-.913-.913.913.913 0 0 1 .913-.913 5.41 5.41 0 0 0 4.193-2.594 3.809 3.809 0 0 0 .532-3.609 2.982 2.982 0 0 0-1.845-1.724 5.638 5.638 0 0 0-4.213.675.913.913 0 0 1-1.25-.325.913.913 0 0 1 .325-1.25 7.361 7.361 0 0 1 5.694-.839 4.8 4.8 0 0 1 2.955 2.719 5.585 5.585 0 0 1-.668 5.346 7.189 7.189 0 0 1-5.723 3.427z"/>
    <path data-name="패스 15162" d="M137.558 239.576a.905.905 0 0 1-.309-.054c-5.623-2.022-7.353-4.242-7.814-5.749a3.02 3.02 0 0 1 .378-2.695.913.913 0 0 1 1.276-.2.913.913 0 0 1 .2 1.276 1.192 1.192 0 0 0-.106 1.082c.224.73 1.322 2.636 6.686 4.565a.913.913 0 0 1 .55 1.168.912.912 0 0 1-.861.607z"/>
    <path data-name="패스 15163" d="M139.906 230.61c-2.3-.007-4.629-.153-9.962-1.891a5.532 5.532 0 0 1-2.824-2.153 2.573 2.573 0 0 1-.023-2.717 4.091 4.091 0 0 1 3.518-1.788 144.16 144.16 0 0 1 20.248 2.313.913.913 0 0 1 .724 1.069.915.915 0 0 1-1.069.724 142.057 142.057 0 0 0-19.957-2.278 2.257 2.257 0 0 0-1.9.9.756.756 0 0 0 .02.841 3.767 3.767 0 0 0 1.817 1.355c5.1 1.661 7.2 1.8 9.41 1.8a.913.913 0 0 1 .91.915.913.913 0 0 1-.912.91z"/>
    <path data-name="패스 15164" d="M137.515 235.416a.916.916 0 0 1-.292-.048 31.668 31.668 0 0 1-7.086-3.1 3.716 3.716 0 0 1-1.8-3.427 2.275 2.275 0 0 1 1.463-1.922l.295-.107.3.1c5.091 1.662 7.19 1.8 9.4 1.806a.913.913 0 0 1 .91.916.913.913 0 0 1-.913.91c-2.235-.007-4.507-.146-9.547-1.761a.71.71 0 0 0-.1.287 1.929 1.929 0 0 0 1.011 1.69 30.155 30.155 0 0 0 6.643 2.879.914.914 0 0 1 .573 1.157.913.913 0 0 1-.857.62z"/>
    <path data-name="패스 15165" d="M142.413 239.896a.912.912 0 0 1-.9-.751.913.913 0 0 1 .737-1.06c8.484-1.526 11.424-12.942 11.793-18.766 2.639-43-19.9-71.665-43.405-81a.913.913 0 0 1-.512-1.185.913.913 0 0 1 1.186-.512c13.384 5.315 25.14 15.85 33.1 29.665 8.7 15.091 12.658 33.469 11.451 53.146-.4 6.32-3.695 18.724-13.293 20.45a.913.913 0 0 1-.157.013z"/>
    <path data-name="패스 15166" d="M158.976 87.554h-.05c-.961-.025-1.492-.822-2.371-2.143a34.712 34.712 0 0 0-3.03-4.016c-4.07-4.62-14.218-3.9-20.047-2.285a.914.914 0 0 1-1.123-.637.913.913 0 0 1 .636-1.123c5.4-1.493 16.918-2.82 21.9 2.838a36.3 36.3 0 0 1 3.18 4.212 11.606 11.606 0 0 0 .919 1.275 22.552 22.552 0 0 0 2.377-2.939c.529-.709 1.147-1.539 1.879-2.5 6.93-9.076 36.792-8.243 38.061-8.2a.912.912 0 0 1 .884.941.912.912 0 0 1-.941.884c-12.1-.377-31.827 1.3-36.553 7.487-.727.952-1.342 1.776-1.867 2.481-2.057 2.765-2.772 3.725-3.854 3.725z"/>
    <path data-name="패스 15167" d="M226.902 55.924a.913.913 0 0 1-.844-.564c-.72-1.74-1.28-7.663-.036-12.123 3.22-11.537 7.209-32.28 1.736-36.841-6.45-5.375-11.386-4.6-19.563-3.313-2.369.373-5.054.8-8.1 1.118a.914.914 0 0 1-1-.812.913.913 0 0 1 .812-1c3-.317 5.657-.736 8.005-1.105 8.388-1.32 13.93-2.192 21.016 3.714 7.462 6.219.354 33.357-1.147 38.734a22.711 22.711 0 0 0-.036 10.934.913.913 0 0 1-.494 1.193.914.914 0 0 1-.349.065z"/>
    <path data-name="패스 15168" d="M147.038 63.901a1.285 1.285 0 0 1-.853-.325 1.283 1.283 0 0 1-.425-.913l-.619-20.1a1.273 1.273 0 0 1 1.11-1.306l8.883-1.185a1.28 1.28 0 0 1 .99.287 1.279 1.279 0 0 1 .456.922l.927 20.544a1.275 1.275 0 0 1-1.173 1.332l-9.194.741a1.737 1.737 0 0 1-.102.003zm-.057-20.9.586 19.032 8.093-.653-.876-19.42zm-.488.065zm.473-.56zm7.79-1.143z"/>
    <path data-name="패스 15169" d="M163.381 63.597a1.277 1.277 0 0 1-.718-.221 1.276 1.276 0 0 1-.56-1.057V37.473a1.281 1.281 0 0 1 .411-.938 1.274 1.274 0 0 1 .968-.336l9.344.742a1.275 1.275 0 0 1 1.176 1.324l-.779 20.706a1.277 1.277 0 0 1-.805 1.14l-8.566 3.4a1.273 1.273 0 0 1-.471.086zm.548-25.531v23.446l7.484-2.968.745-19.826zm7.47 20.836zm.778-20.707z"/>
    <path data-name="패스 15170" d="M190.671 60.568h-9.2a1.28 1.28 0 0 1-1.278-1.278V31.68a1.28 1.28 0 0 1 1.278-1.278h9.2a1.28 1.28 0 0 1 1.278 1.278v27.61a1.28 1.28 0 0 1-1.278 1.278zm-8.649-1.826h8.1V32.228h-8.1zm8.649-26.514z"/>
    <path data-name="패스 15171" d="M199.902 59.968a1.282 1.282 0 0 1-.785-.268 1.281 1.281 0 0 1-.494-1.04l.78-32.627a1.28 1.28 0 0 1 1.231-1.246l12.042-.451a1.266 1.266 0 0 1 .983.405 1.277 1.277 0 0 1 .336 1.01l-3.29 30.4a1.274 1.274 0 0 1-.925 1.093l-9.534 2.682a1.268 1.268 0 0 1-.344.042zm1.313-33.376-.75 31.37 8.464-2.38 3.182-29.4zm.012-.515z"/>
    <path data-name="패스 15172" d="M62.624 34.95a.911.911 0 0 1-.456-.123c-.732-.424-1.248-1.533-1.385-5.566-.1-3.031.07-6.222.125-7.129a.915.915 0 0 1 .967-.856.914.914 0 0 1 .856.967c-.318 5.216-.122 10.235.427 11.051a.913.913 0 0 1 .258 1.2.913.913 0 0 1-.792.456zm.552-1.629z"/>
    <path data-name="패스 15173" d="M55.578 30.466a.913.913 0 0 1-.9-.794.913.913 0 0 1 .786-1.024l12.169-1.6a.912.912 0 0 1 1.024.786.913.913 0 0 1-.786 1.024l-12.169 1.6a.962.962 0 0 1-.124.008z"/>
    <path data-name="패스 15174" d="M157.732 142.547a.909.909 0 0 1-.456-.123c-.733-.424-1.249-1.533-1.385-5.566-.1-3.033.07-6.223.126-7.129a.916.916 0 0 1 .967-.855.912.912 0 0 1 .855.967c-.318 5.216-.123 10.234.426 11.051a.913.913 0 0 1 .258 1.2.912.912 0 0 1-.791.455zm.551-1.629z"/>
    <path data-name="패스 15175" d="M150.686 138.062a.913.913 0 0 1-.9-.794.913.913 0 0 1 .786-1.024l12.169-1.6a.912.912 0 0 1 1.024.786.912.912 0 0 1-.786 1.024l-12.169 1.6a.894.894 0 0 1-.124.008z"/>
    <path data-name="패스 15176" d="M198.402 168.853a15.5 15.5 0 0 1-6.566-1.313c-2.367-1.143-2.72-2.477-2.72-3.17s.354-2.028 2.72-3.17a15.5 15.5 0 0 1 6.567-1.313 15.489 15.489 0 0 1 6.567 1.313c2.366 1.143 2.72 2.476 2.72 3.17s-.353 2.027-2.72 3.17a15.493 15.493 0 0 1-6.568 1.313zm0-7.141a13.853 13.853 0 0 0-5.773 1.131c-1.335.644-1.688 1.28-1.688 1.526s.353.881 1.688 1.526a13.861 13.861 0 0 0 5.773 1.132 13.858 13.858 0 0 0 5.773-1.132c1.335-.644 1.688-1.28 1.688-1.526s-.353-.881-1.688-1.526a13.854 13.854 0 0 0-5.773-1.13z"/>
    <path data-name="패스 15177" d="M198.819 174.608a15.258 15.258 0 0 1-9.531-3.352 1.262 1.262 0 0 1-.445-.967v-5.759a.913.913 0 0 1 .913-.913.913.913 0 0 1 .913.913v5.5a13.394 13.394 0 0 0 14.364 1.213.912.912 0 0 1 1.228.4.912.912 0 0 1-.4 1.227 15.4 15.4 0 0 1-7.042 1.738z"/>
    <path data-name="패스 15178" d="M21.952 59.976a15.486 15.486 0 0 1-6.567-1.313c-2.366-1.143-2.72-2.476-2.72-3.17s.353-2.028 2.72-3.17a15.483 15.483 0 0 1 6.566-1.313 15.486 15.486 0 0 1 6.567 1.313c2.366 1.142 2.72 2.476 2.72 3.17s-.353 2.027-2.72 3.17a15.483 15.483 0 0 1-6.566 1.313zm0-7.141a13.855 13.855 0 0 0-5.773 1.132c-1.335.644-1.688 1.28-1.688 1.526s.353.881 1.688 1.526a13.849 13.849 0 0 0 5.773 1.132 13.853 13.853 0 0 0 5.773-1.132c1.335-.645 1.688-1.28 1.688-1.526s-.353-.881-1.688-1.526a13.85 13.85 0 0 0-5.773-1.131z"/>
    <path data-name="패스 15179" d="M22.371 65.73a15.261 15.261 0 0 1-9.53-3.351 1.265 1.265 0 0 1-.445-.967v-5.759a.913.913 0 0 1 .913-.913.913.913 0 0 1 .913.913v5.5a13.389 13.389 0 0 0 14.364 1.213.913.913 0 0 1 1.228.4.913.913 0 0 1-.4 1.228 15.4 15.4 0 0 1-7.043 1.736z"/>
    <path data-name="패스 15180" d="M192.488 112.726a6.6 6.6 0 0 1-2.079-.384 15.494 15.494 0 0 1-5.62-3.642 15.488 15.488 0 0 1-3.787-5.522c-.9-2.469-.22-3.672.264-4.168s1.668-1.206 4.16-.373a15.493 15.493 0 0 1 5.62 3.642 15.491 15.491 0 0 1 3.787 5.523c.9 2.469.22 3.672-.264 4.168a2.781 2.781 0 0 1-2.081.756zm-9.135-12.645a1.148 1.148 0 0 0-.78.2c-.171.176-.362.877.145 2.271a13.847 13.847 0 0 0 3.346 4.839 13.854 13.854 0 0 0 4.924 3.218c1.407.47 2.1.261 2.274.085s.362-.878-.145-2.271a13.847 13.847 0 0 0-3.345-4.839 13.857 13.857 0 0 0-4.925-3.218 4.822 4.822 0 0 0-1.493-.282z"/>
    <path data-name="패스 15181" d="M187.602 116.822a.91.91 0 0 1-.271-.041 15.221 15.221 0 0 1-10.747-12.719 1.264 1.264 0 0 1 .358-1l4.017-4.125a.913.913 0 0 1 1.291-.017.914.914 0 0 1 .017 1.291l-3.837 3.939a13.391 13.391 0 0 0 9.439 10.892.913.913 0 0 1 .6 1.143.913.913 0 0 1-.867.637zm-9.352-12.491z"/>
</svg>
