<svg xmlns="http://www.w3.org/2000/svg" width="127.173" height="95.832" viewBox="0 0 127.173 95.832">
    <g>
        <path data-name="패스 15402" d="M54.788 56.667a.31.31 0 0 1-.309-.287.31.31 0 0 1 .286-.333 2.527 2.527 0 0 0 1.941-2.24.57.57 0 0 1 .455-.456l.427-.075c1.4-.247 2.618-.46 2.8-1.067.046-.151 0-.194-.021-.217-.374-.371-2.277-.16-3.665.27a.31.31 0 0 1-.388-.2.31.31 0 0 1 .2-.388c.034-.011 3.381-1.015 4.285-.118a.8.8 0 0 1 .178.837c-.293.973-1.615 1.2-3.288 1.5l-.385.068a3.1 3.1 0 0 1-2.5 2.711z"/>
        <path data-name="패스 15403" d="M52.507 53.321a.309.309 0 0 1-.236-.109.31.31 0 0 1 .035-.437c2.274-1.939 8.72-5.609 10.822-4.391.21.122.85.493.785 1.062-.076.666-1.022 1.082-2.63 1.576a.31.31 0 0 1-.388-.206.31.31 0 0 1 .206-.388c1.778-.546 2.175-.874 2.2-1.053.007-.062-.086-.227-.48-.455-1.641-.951-7.705 2.277-10.108 4.327a.309.309 0 0 1-.206.074z"/>
        <path data-name="패스 15404" d="M59.045 55.45a.31.31 0 0 1-.3-.218.31.31 0 0 1 .2-.388c2.266-.7 2.732-1.464 2.808-1.855a1.056 1.056 0 0 0-.424-.953.31.31 0 0 1-.044-.437.31.31 0 0 1 .437-.044 1.621 1.621 0 0 1 .639 1.552c-.182.936-1.27 1.72-3.233 2.329a.314.314 0 0 1-.083.014z"/>
        <path data-name="패스 15405" d="M59.35 57.274a.31.31 0 0 1-.3-.231.31.31 0 0 1 .221-.379c2.819-.744 3.315-1.6 3.4-1.932a.761.761 0 0 0-.254-.732.31.31 0 0 1-.018-.438.31.31 0 0 1 .438-.018 1.365 1.365 0 0 1 .436 1.338c-.241.972-1.533 1.773-3.842 2.383a.314.314 0 0 1-.081.009z"/>
        <path data-name="패스 15406" d="M51.857 78.681h-1.479a.31.31 0 0 1-.31-.31.31.31 0 0 1 .31-.31h.771c3.64 0 6.044.007 7.825-.952 2.187-1.178 3.408-.98 5.623-.622l.351.057a.741.741 0 0 0 .353 0 .815.815 0 0 0-.231-.362c-.56-.595-2.263-1.554-5.094-1.377a.312.312 0 0 1-.329-.29.31.31 0 0 1 .291-.329c3.356-.21 5.372 1.072 5.854 1.929a.7.7 0 0 1 .028.785c-.119.17-.383.353-.97.26l-.352-.057c-2.149-.348-3.228-.522-5.23.556-1.794.962-4.069 1.022-7.411 1.022z"/>
        <path data-name="패스 15407" d="M34.161 23.045c.631-7.12-2.45-10.865-4.07-11.848a12.065 12.065 0 0 0 12.33-.295l.591 3.164c3.59.362 4.445-4.5 4.424-6.983-.033-3.824-4.263-8.545-12.678-6.652a21.1 21.1 0 0 0-14.29 12.1c-6.025-1.656-12.5 2.852-14.98 5.313-2.567 2.554-7.973 10.277-4.177 18.9 5.121 11.634 18.742 8.745 20.966 7.6 7.677-3.955 11.095-12.399 11.884-21.299z"/>
        <path data-name="패스 15408" d="M42.929 25.915a1.571 1.571 0 0 1-.229-.017 2.268 2.268 0 0 1-1.643-1.578 6.5 6.5 0 0 1-.3-3.315 6.5 6.5 0 0 1 1.25-3.085 2.269 2.269 0 0 1 2.031-1.034 2.267 2.267 0 0 1 1.643 1.578 6.5 6.5 0 0 1 .3 3.315 6.5 6.5 0 0 1-1.25 3.086 2.412 2.412 0 0 1-1.802 1.05zm.885-8.425a1.854 1.854 0 0 0-1.325.818 5.954 5.954 0 0 0-1.12 2.787 5.957 5.957 0 0 0 .264 2.992c.279.692.7 1.128 1.159 1.2a1.716 1.716 0 0 0 1.456-.809 5.955 5.955 0 0 0 1.12-2.787 5.956 5.956 0 0 0-.264-2.992c-.279-.693-.7-1.129-1.159-1.2a.905.905 0 0 0-.127-.008z"/>
        <path data-name="패스 15409" d="M43.371 22.999c.458.068.929-.546 1.051-1.371s-.15-1.549-.609-1.617-.929.546-1.051 1.371.151 1.549.609 1.617z"/>
        <path data-name="패스 15410" d="M34.184 22.759a.311.311 0 0 1-.308-.276.311.311 0 0 1 .274-.343l6.729-.749a.311.311 0 0 1 .343.274.31.31 0 0 1-.274.343l-6.729.749z"/>
        <path data-name="패스 15411" d="M37.063 41.868a.31.31 0 0 1-.3-.226.31.31 0 0 1 .215-.383c4.276-1.2 7.049-3.112 8.477-5.839 1.216-2.321 1.528-5.341.983-9.506l-.018-.138 1.873-2.174a2.458 2.458 0 0 0 .645-1.858 3.379 3.379 0 0 0-1.4-2.267 18.277 18.277 0 0 1-4.081-5.149.31.31 0 0 1 .14-.416.31.31 0 0 1 .416.14 17.538 17.538 0 0 0 3.912 4.94 3.976 3.976 0 0 1 1.633 2.7 3.063 3.063 0 0 1-.794 2.321l-1.691 1.962c.537 4.227.2 7.324-1.067 9.736-1.512 2.886-4.41 4.9-8.859 6.148a.314.314 0 0 1-.084.009z"/>
        <path data-name="패스 15412" d="M12.473 77.042a.31.31 0 0 1-.31-.31c0-1.234-.013-2.454-.026-3.633-.057-5.381-.112-10.464 1.12-15.032a21.934 21.934 0 0 1 8.867-12.458.31.31 0 0 1 .434.068.31.31 0 0 1-.068.434c-9.942 7.253-9.85 15.957-9.732 26.977.013 1.181.026 2.4.026 3.64a.31.31 0 0 1-.311.314z"/>
        <path data-name="패스 15413" d="M28.172 51.077a.61.61 0 0 1-.4-.152l-5.363-4.693a.31.31 0 0 1-.029-.438.31.31 0 0 1 .438-.029l5.363 4.693 1.388-6.39a.613.613 0 0 1 .432-.46.614.614 0 0 1 .61.164l3.63 3.753a.31.31 0 0 1-.007.439.311.311 0 0 1-.439-.007l-3.63-3.753-1.387 6.391a.61.61 0 0 1-.408.452.623.623 0 0 1-.198.03z"/>
        <path data-name="패스 15414" d="M36.23 49.685a.31.31 0 0 1-.31-.3 15.19 15.19 0 0 0-1.071-4.544 22.828 22.828 0 0 0-1.107-2.48.31.31 0 0 1 .128-.42.31.31 0 0 1 .42.128 23.5 23.5 0 0 1 1.14 2.552 15.8 15.8 0 0 1 1.111 4.745.31.31 0 0 1-.3.32z"/>
        <path data-name="패스 15415" d="M33.255 52.859a.847.847 0 0 0 .76-.912.847.847 0 0 0-.76-.912.847.847 0 0 0-.76.912.847.847 0 0 0 .76.912z"/>
        <path data-name="패스 15416" d="M34.32 57.269a.847.847 0 0 0 .76-.912.847.847 0 0 0-.76-.912.847.847 0 0 0-.76.912.847.847 0 0 0 .76.912z"/>
        <path data-name="패스 15417" d="M44.356 34.314h-.027a2.511 2.511 0 0 1-1.859-.874 1.925 1.925 0 0 1-.379-1.462.311.311 0 0 1 .357-.256.31.31 0 0 1 .256.357 1.306 1.306 0 0 0 .257.98 1.926 1.926 0 0 0 1.423.637.31.31 0 0 1 .282.336.31.31 0 0 1-.31.282z"/>
        <path data-name="패스 15418" d="M41.327 57.274a.31.31 0 0 1-.3-.254 19.513 19.513 0 0 0-5.375-10.165.31.31 0 0 1-.025-.438.31.31 0 0 1 .438-.025 20.194 20.194 0 0 1 5.572 10.515.31.31 0 0 1-.248.362.322.322 0 0 1-.062.005z"/>
        <path data-name="패스 15419" d="M61.023 74.726a.31.31 0 0 1-.31-.31c0-.328.284-.392.8-.508.243-.055.576-.13 1.029-.248a12.984 12.984 0 0 1 2.283-.306 6.706 6.706 0 0 0 1.4-.185 6.6 6.6 0 0 0-2.5-.4 22.008 22.008 0 0 0-3.115.054.31.31 0 0 1-.351-.263.31.31 0 0 1 .263-.351 22.806 22.806 0 0 1 3.4-.052c2.458.132 2.874.529 2.956.9a.531.531 0 0 1-.091.445c-.26.349-.918.4-1.915.471a12.522 12.522 0 0 0-2.172.288c-.463.121-.8.2-1.049.253-.154.035-.3.068-.379.091a.31.31 0 0 1-.249.121zm.31-.31zm4.947-1.2z"/>
        <path data-name="패스 15420" d="M64.519 72.674a.309.309 0 0 1-.226-.1.31.31 0 0 1 .013-.439c.117-.111.126-.167.126-.167-.049-.117-.649-.4-2.188-.486a11.085 11.085 0 0 0-3.034.188.31.31 0 0 1-.386-.209.31.31 0 0 1 .209-.386c1.069-.319 5.338-.45 5.937.588.1.169.2.514-.237.923a.309.309 0 0 1-.214.088z"/>
        <path data-name="패스 15421" d="M50.073 73.206a.31.31 0 0 1-.306-.264.31.31 0 0 1 .26-.354 35.782 35.782 0 0 0 6.4-2.035c3.456-1.344 4.98-.388 5.337.388a.31.31 0 0 1-.153.411.31.31 0 0 1-.411-.153c-.2-.434-1.4-1.291-4.547-.068a36.263 36.263 0 0 1-6.528 2.07.307.307 0 0 1-.052.005z"/>
        <path data-name="패스 15422" d="M69.172 82.93a.9.9 0 0 1-.349-.07c-1.534-.644-10.4-4.5-10.635-4.653a.31.31 0 0 1-.086-.43.31.31 0 0 1 .418-.094c.353.187 8.591 3.786 10.543 4.6a.285.285 0 0 0 .212 0l15.422-5.479a.3.3 0 0 0 .207-.295.3.3 0 0 0-.211-.292l-24.464-8.249a.309.309 0 0 0-.217.007l-11.874 4.854a.311.311 0 0 1-.4-.17.311.311 0 0 1 .17-.4l11.875-4.854a.933.933 0 0 1 .65-.02l24.464 8.249a.92.92 0 0 1 .634.875.92.92 0 0 1-.619.885L69.49 82.873a.929.929 0 0 1-.318.057z"/>
        <path data-name="패스 15423" d="M86.239 76.692a4.365 4.365 0 0 1-1.286-.2.31.31 0 0 1-.2-.389.31.31 0 0 1 .389-.2 3.2 3.2 0 0 0 2.3-.1 1.789 1.789 0 0 0 .877-1.134c.395-1.36 2.4-10.337 3.719-16.278.5-2.239.893-4.007 1.067-4.765l.017-.076c.2-.855.4-1.74.073-2.228a1.159 1.159 0 0 0-.827-.438c-1.8-.3-5.307-.777-6.908-.987a.311.311 0 0 1-.267-.348.31.31 0 0 1 .348-.267c1.6.21 5.119.688 6.929.99a1.759 1.759 0 0 1 1.241.7 3.6 3.6 0 0 1 .016 2.713l-.017.075c-.173.756-.567 2.523-1.066 4.761-1.325 5.948-3.328 14.938-3.729 16.316a2.388 2.388 0 0 1-1.18 1.508 3.182 3.182 0 0 1-1.496.347z"/>
        <path data-name="패스 15424" d="M83.983 41.384h-.02l-10.8-.684a.31.31 0 0 1-.29-.329.311.311 0 0 1 .329-.29l10.8.684a.31.31 0 0 1 .29.329.31.31 0 0 1-.309.29z"/>
        <path data-name="패스 15425" d="M64.215 39.782a.761.761 0 0 1-.76-.76.761.761 0 0 1 .76-.76.761.761 0 0 1 .76.76.761.761 0 0 1-.76.76zm0-1.148a.388.388 0 0 0-.388.388.388.388 0 0 0 .388.388.388.388 0 0 0 .388-.388.388.388 0 0 0-.388-.389z"/>
        <path data-name="패스 15426" d="M66.648 39.934a.761.761 0 0 1-.76-.76.761.761 0 0 1 .76-.76.761.761 0 0 1 .76.76.761.761 0 0 1-.76.76zm0-1.148a.388.388 0 0 0-.388.388.388.388 0 0 0 .388.388.388.388 0 0 0 .388-.388.388.388 0 0 0-.388-.391z"/>
        <path data-name="패스 15427" d="M81.102 63.249a.938.938 0 0 1-.194-.021l-22.382-4.743a.31.31 0 0 1-.239-.368.311.311 0 0 1 .368-.239l22.382 4.743a.31.31 0 0 0 .365-.225l6.192-23.546a.308.308 0 0 0-.05-.263.309.309 0 0 0-.236-.126l-24.116-1.083a.311.311 0 0 0-.315.236l-2.616 10.681a.311.311 0 0 1-.375.228.311.311 0 0 1-.228-.375l2.616-10.681a.935.935 0 0 1 .946-.708l24.116 1.083a.928.928 0 0 1 .708.378.927.927 0 0 1 .15.789l-6.192 23.546a.931.931 0 0 1-.9.694z"/>
        <path data-name="패스 15428" d="M64.977 50.736h-.023a.31.31 0 0 1-.287-.332c.037-.512.24-2.21 1.285-2.582.618-.22 1.338.1 2.139.947a1.89 1.89 0 0 0 1.7.7c1.7-.251 3.353-2.852 3.8-3.743a.31.31 0 0 1 .416-.139.31.31 0 0 1 .139.416c-.019.037-1.928 3.735-4.264 4.08a2.5 2.5 0 0 1-2.246-.888c-.424-.449-1.026-.95-1.48-.789-.512.182-.812 1.187-.874 2.043a.31.31 0 0 1-.305.287z"/>
        <path data-name="패스 15429" d="M58.893 68.374a.308.308 0 0 1-.167-.049 2.386 2.386 0 0 1-1.052-2.2 60.562 60.562 0 0 1 1.456-6.362.31.31 0 0 1 .387-.207.31.31 0 0 1 .207.387 60.973 60.973 0 0 0-1.433 6.259 1.741 1.741 0 0 0 .772 1.6.31.31 0 0 1 .093.429.31.31 0 0 1-.263.143z"/>
        <path data-name="패스 15430" d="M74.931 58.342a2.765 2.765 0 0 1-1.24-.295.31.31 0 0 1-.14-.416.31.31 0 0 1 .416-.14 2.14 2.14 0 0 0 1.05.228.312.312 0 0 1 .322.3.31.31 0 0 1-.3.322zm1.292-.306a.311.311 0 0 1-.283-.182.31.31 0 0 1 .154-.411 5.242 5.242 0 0 0 1-.612.311.311 0 0 1 .435.058.311.311 0 0 1-.058.435 5.864 5.864 0 0 1-1.115.684.309.309 0 0 1-.132.026zm-3.368-.714a.31.31 0 0 1-.229-.1 6.029 6.029 0 0 1-.764-1.061.31.31 0 0 1 .114-.424.31.31 0 0 1 .424.114 5.383 5.383 0 0 0 .684.951.31.31 0 0 1-.019.438.309.309 0 0 1-.21.083zm5.351-.756a.31.31 0 0 1-.219-.091.31.31 0 0 1 0-.439c.266-.267.541-.569.816-.9a.31.31 0 0 1 .437-.039.31.31 0 0 1 .039.437c-.287.343-.574.658-.853.938a.31.31 0 0 1-.22.095zM71.587 55.2a.31.31 0 0 1-.277-.17 1.583 1.583 0 0 0-.71-.738.31.31 0 0 1-.139-.416.31.31 0 0 1 .416-.139 2.211 2.211 0 0 1 .987 1.013.31.31 0 0 1-.137.417.307.307 0 0 1-.14.034zm8.218-.53a.309.309 0 0 1-.184-.06.31.31 0 0 1-.066-.434c.231-.314.468-.652.7-1.005a.31.31 0 0 1 .43-.086.31.31 0 0 1 .086.43c-.241.361-.483.707-.72 1.029a.31.31 0 0 1-.246.128zm-11.484-.286a.31.31 0 0 1-.292-.2.31.31 0 0 1 .186-.4 4.842 4.842 0 0 1 1.294-.287.31.31 0 0 1 .33.289.31.31 0 0 1-.289.33 4.22 4.22 0 0 0-1.122.251.311.311 0 0 1-.104.019z"/>
        <path data-name="패스 15431" d="M80.221 67.217a1.323 1.323 0 0 1-.443-.078 1.546 1.546 0 0 1-.967-1.755 1.248 1.248 0 0 1 .614-.833 1.247 1.247 0 0 1 1.032-.074 1.546 1.546 0 0 1 .967 1.755 1.248 1.248 0 0 1-.613.833 1.215 1.215 0 0 1-.59.152zm-.235-.663a.636.636 0 0 0 .525-.032.635.635 0 0 0 .308-.427.921.921 0 0 0-.569-1.032.635.635 0 0 0-.525.032.635.635 0 0 0-.308.427.922.922 0 0 0 .569 1.032z"/>
        <path data-name="패스 15432" d="M85.362 73.462a1.722 1.722 0 0 1-.415-.055c-.76-.189-3.676-1.266-5.113-1.809a1.98 1.98 0 0 1-1.27-2.4l.313-1.379a.31.31 0 0 1 .371-.234.31.31 0 0 1 .234.371l-.313 1.379a1.374 1.374 0 0 0 .878 1.676c1.43.541 4.318 1.608 5.049 1.789a.706.706 0 0 0 .55-.037.659.659 0 0 0 .258-.431c.092-.438.287-1.287.494-2.186.1-.456.212-.921.307-1.344.262-1.154-.011-1.3-.655-1.531l-3.831-1.357a.31.31 0 0 1-.189-.4.311.311 0 0 1 .4-.189l3.831 1.357c.939.332 1.385.79 1.053 2.253-.1.424-.2.889-.308 1.345-.206.9-.4 1.743-.491 2.175a1.242 1.242 0 0 1-.536.829 1.135 1.135 0 0 1-.617.178z"/>
        <path data-name="패스 15433" d="M82.808 69.955a.309.309 0 0 1-.245-.119l-1.561-1.994a.31.31 0 0 1 .053-.436.31.31 0 0 1 .436.053l1.56 1.995a.31.31 0 0 1-.053.436.309.309 0 0 1-.19.065z"/>
        <path data-name="패스 15434" d="M82.808 69.956a.311.311 0 0 1-.279-.174.31.31 0 0 1 .143-.415l4.181-2.044a.31.31 0 0 1 .415.143.31.31 0 0 1-.143.415l-4.181 2.044a.308.308 0 0 1-.136.031z"/>
        <path data-name="패스 15435" d="M80.136 70.283a.31.31 0 0 1-.236-.109.31.31 0 0 1 .035-.437l1.728-1.471a.31.31 0 0 1 .438.035.31.31 0 0 1-.035.438l-1.728 1.471a.308.308 0 0 1-.202.073z"/>
        <path data-name="패스 15436" d="M85.296 72.109a.31.31 0 0 1-.272-.161l-1.426-2.588a.31.31 0 0 1 .122-.422.31.31 0 0 1 .422.122l1.426 2.588a.31.31 0 0 1-.122.422.309.309 0 0 1-.15.039z"/>
        <path data-name="패스 15437" d="M83 95.832a.93.93 0 0 1-.368-.076L54.168 83.527a.31.31 0 0 1-.163-.408.311.311 0 0 1 .408-.163l28.464 12.229a.307.307 0 0 0 .271-.012l43.567-23.657a.31.31 0 0 1 .421.125.31.31 0 0 1-.125.421L83.444 95.718a.928.928 0 0 1-.444.114z"/>
        <path data-name="패스 15438" d="M100.557 75.369a.309.309 0 0 1-.219-.091c-.093-.093-.238-.219-.4-.364a12.991 12.991 0 0 1-3.407-4.249c-.669-1.393-.717-2.479-.142-3.227a3.172 3.172 0 0 1 2.979-.834.31.31 0 0 1 .248.362.311.311 0 0 1-.363.248 2.542 2.542 0 0 0-2.372.6c-.415.54-.342 1.432.209 2.58a12.431 12.431 0 0 0 3.255 4.05c.182.159.327.285.435.392a.31.31 0 0 1 0 .439.31.31 0 0 1-.223.094z"/>
        <path data-name="패스 15439" d="M104.531 79.174a3.891 3.891 0 0 1-1.975-.5.582.582 0 0 1-.076-.054c-3.9-3.3-2.907-12.172-2.781-13.172a.554.554 0 0 1 .257-.4.567.567 0 0 1 .484-.056 15.947 15.947 0 0 0 8.464-.025.563.563 0 0 1 .467.075.563.563 0 0 1 .246.4c1.151 10.027-2.392 12.9-2.8 13.193a.545.545 0 0 1-.078.047 5.273 5.273 0 0 1-2.208.492zm-1.657-1.036a4.118 4.118 0 0 0 3.585-.013c1.364-.991 3.429-4.744 2.547-12.548a16.714 16.714 0 0 1-8.7.019c-.435 3.522-.374 10.045 2.568 12.541zm3.591-.016z"/>
        <ellipse data-name="타원 180" cx="4.866" cy=".912" rx="4.866" ry=".912" transform="translate(99.797 64.263)"/>
        <path data-name="패스 15440" d="M105.753 62.293a.31.31 0 0 1-.232-.1.31.31 0 0 1 .026-.438c.777-.689 1.764-2.79-.06-5.816-2.038-3.381.131-6.53 1.562-7.723a.31.31 0 0 1 .437.04.31.31 0 0 1-.04.437c-1.29 1.075-3.248 3.906-1.428 6.926 2.034 3.375.85 5.794-.06 6.6a.309.309 0 0 1-.205.074z"/>
        <path data-name="패스 15441" d="M103.446 59.099a.31.31 0 0 1-.249-.126c-1.222-1.647-2.993-5.5-.949-8.276a.31.31 0 0 1 .434-.066.31.31 0 0 1 .066.434c-1.829 2.487-.18 6.019.947 7.538a.31.31 0 0 1-.064.434.309.309 0 0 1-.185.062z"/>
        <path data-name="패스 15442" d="M111.641 78.44c2.123-1.166-1.677-.941-3.751-.911l-1.1 1.093a8.722 8.722 0 0 0 4.851-.182z"/>
        <path data-name="패스 15443" d="M46.928 67.161a.31.31 0 0 1-.268-.153.31.31 0 0 1 .111-.425 10.616 10.616 0 0 0 5.244-6.387 5.482 5.482 0 0 0-.259-3.942c-.476-.807-1.014-1.262-1.553-1.316a1.333 1.333 0 0 0-1.085.453l-.021.023-3.225 2.375a.31.31 0 0 1-.434-.066.31.31 0 0 1 .066-.434l3.175-2.339a1.957 1.957 0 0 1 1.586-.63 2.832 2.832 0 0 1 2.026 1.618 6.019 6.019 0 0 1 .326 4.413 11.23 11.23 0 0 1-5.53 6.766.309.309 0 0 1-.159.044z"/>
        <path data-name="패스 15444" d="M41.655 74.36a10.9 10.9 0 0 1-6.083-1.884c-4.215-2.773-6.521-7.826-6.768-9.792a.31.31 0 0 1 .269-.346.31.31 0 0 1 .346.269 16.409 16.409 0 0 0 6.493 9.351 10.372 10.372 0 0 0 8.952 1.307l2.77-.9a.311.311 0 0 1 .391.2.31.31 0 0 1-.2.391l-2.78.906a12.149 12.149 0 0 1-3.39.498z"/>
        <path data-name="패스 15445" d="M37.483 83.901a29.186 29.186 0 0 1-8.565-1.284c-3.99-1.234-6.948-3.18-7.912-5.205a.31.31 0 0 1 .147-.414.31.31 0 0 1 .414.147c.878 1.844 3.765 3.713 7.535 4.879a28.218 28.218 0 0 0 13.136.837.311.311 0 0 1 .361.25.311.311 0 0 1-.25.361 27.319 27.319 0 0 1-4.866.429z"/>
        <path data-name="패스 15446" d="m41.671 83.535.362-.541a21.021 21.021 0 0 0 2.784-6.71.31.31 0 0 1 .375-.228.31.31 0 0 1 .228.375 22.376 22.376 0 0 1-2.528 6.372c1.856-.166 3.479-.441 5.1-3.328a6.356 6.356 0 0 0-.419-6.58.31.31 0 0 1 .054-.436.311.311 0 0 1 .436.054 7.019 7.019 0 0 1 .471 7.266c-1.863 3.323-3.811 3.49-5.874 3.668l-.339.03z"/>
    </g>
</svg>
