<svg xmlns="http://www.w3.org/2000/svg" width="87" height="87" viewBox="0 0 87 87">
    <g data-name="타원 101" style="fill:#fff;stroke:#000;stroke-dasharray:5">
        <circle cx="43.5" cy="43.5" r="43.5" style="stroke:none"/>
        <circle cx="43.5" cy="43.5" r="43" style="fill:none"/>
    </g>
    <path data-name="패스 15448" d="M1301.633 962.156a.858.858 0 0 0-.529-.157 8.223 8.223 0 0 0-3.016 1.16 32.047 32.047 0 0 0-3.335 2.045 66.905 66.905 0 0 0-12.193 11.368 118.454 118.454 0 0 0-10.636 14.633l-.006.01a2.622 2.622 0 0 1-.087.138.141.141 0 0 1-.122.066.131.131 0 0 1-.125-.08l-.022-.05-.029-.041a69.047 69.047 0 0 0-7.959-9.433 4.046 4.046 0 0 0-2.8-1.123 4.055 4.055 0 0 0-3.5 1.982l-.073.123a4.071 4.071 0 0 0 .889 5.209c4.921 4.12 8.883 9.7 12.714 15.094l.551.775a1.123 1.123 0 0 0 1.934-.179c5.064-10.932 13.281-26.8 26.121-38.369l.02-.018.018-.02a7.7 7.7 0 0 1 .78-.711 4.606 4.606 0 0 0 1.574-1.875l.109-.333z" transform="translate(-1235.629 -939.999)" style="fill:#ff754b"/>
</svg>
