<svg xmlns="http://www.w3.org/2000/svg" width="94.76" height="81.87" viewBox="0 0 94.76 81.87">
    <g>
        <path data-name="패스 15034" d="m6.536 61.332-3.033-5.568L32.44 39.651l.506 5.315.675 1.519z"/>
        <path data-name="패스 15035" d="M19.921 81.869a4.294 4.294 0 0 1-3.742-1.834l-.023-.038L.796 51.969c-1.74-3.481-.3-5.392 1.21-6.383l.037-.022L16 37.875a.57.57 0 0 1 .549 1L2.611 46.55c-1.642 1.086-1.9 2.689-.8 4.9l15.338 27.979c1.281 1.928 4.148 1.307 5.025.743l.03-.018 22.191-12.4a.245.245 0 0 0 .119-.155.254.254 0 0 0-.031-.2 9.9 9.9 0 0 1-1.383-2.5c-.076-.382-.363-3.795-.483-5.244a.243.243 0 0 0-.107-.182l-6.119-4.13a1.383 1.383 0 0 1-.6-.977l-.606-4.925a.245.245 0 0 0-.039-.106l-2.644-3.966a1.387 1.387 0 0 1-.228-.657l-.376-4.743a.245.245 0 0 0-.095-.174l-3.547-2.717a1.375 1.375 0 0 1-.361-.414l-2.028-3.569a.57.57 0 1 1 .99-.562l2.028 3.569a.243.243 0 0 0 .064.073l3.547 2.717a1.384 1.384 0 0 1 .537.988l.376 4.743a.244.244 0 0 0 .04.116l2.644 3.966a1.388 1.388 0 0 1 .222.6l.606 4.925a.244.244 0 0 0 .105.172l6.119 4.13a1.375 1.375 0 0 1 .6 1.032c.226 2.734.415 4.813.463 5.1a18.933 18.933 0 0 0 1.234 2.129 1.4 1.4 0 0 1 .169 1.086 1.372 1.372 0 0 1-.666.866L22.772 81.14a5.613 5.613 0 0 1-2.851.729z"/>
        <path data-name="패스 15036" d="m91.322 49.944-2.953 5.652-25.732-14.089 1.1-2.109 3.8-2.362z"/>
        <path data-name="패스 15037" d="M75.079 76.238A6.937 6.937 0 0 1 72 75.425l-.019-.01-13.8-7.551a.57.57 0 0 1 .547-1l13.789 7.546c3.345 1.667 5.1 0 5.98-1.7l14.596-27.243c1.2-2.476.153-4.428-.928-4.969l-.017-.009-21.67-11.775a.243.243 0 0 0-.326.09l-1.608 2.7a.244.244 0 0 0-.034.11l-.3 4.945a1.381 1.381 0 0 1-.665 1.1l-3.49 2.109a.247.247 0 0 0-.09.1l-2.431 4.626a1.371 1.371 0 0 1-.36.436l-3.359 2.687a.243.243 0 0 0-.091.19v8.3a1.386 1.386 0 0 1-.573 1.12l-4.064 2.935a.243.243 0 0 0-.073.084l-1.683 3.205a.57.57 0 1 1-1.008-.529l1.683-3.205a1.39 1.39 0 0 1 .414-.478l4.064-2.935a.245.245 0 0 0 .1-.2v-8.3a1.376 1.376 0 0 1 .518-1.079l3.359-2.687a.24.24 0 0 0 .063-.076l2.431-4.627a1.382 1.382 0 0 1 .509-.54l3.491-2.109a.243.243 0 0 0 .117-.194l.3-4.945a1.387 1.387 0 0 1 .192-.624l1.608-2.7a1.378 1.378 0 0 1 1.847-.508l21.662 11.771c1.486.751 2.964 3.325 1.429 6.489l-.011.02-14.594 27.253a4.913 4.913 0 0 1-4.426 2.99z"/>
        <circle data-name="타원 151" cx="3.375" cy="3.375" r="3.375" transform="rotate(-85.935 48.964 27.615)"/>
        <path data-name="패스 15038" d="M24.925 73.059a3.375 3.375 0 1 1 3.375-3.375 3.379 3.379 0 0 1-3.375 3.375zm0-5.936a2.562 2.562 0 1 0 2.562 2.561 2.564 2.564 0 0 0-2.562-2.561z"/>
        <path data-name="패스 15039" d="M48.127 39.651a19.826 19.826 0 1 1 19.826-19.826 19.848 19.848 0 0 1-19.826 19.826zm0-38.513a18.687 18.687 0 1 0 18.687 18.687A18.708 18.708 0 0 0 48.127 1.138z"/>
        <g data-name="그룹 28174" transform="translate(45.361 26.509)">
            <circle data-name="타원 152" cx="2.278" cy="2.278" r="2.278" transform="translate(.488 .488)" style="fill:#ff754b"/>
            <path data-name="패스 15040" d="M2.766 5.531a2.766 2.766 0 1 1 2.766-2.766 2.769 2.769 0 0 1-2.766 2.766zm0-4.556a1.79 1.79 0 1 0 1.79 1.79A1.792 1.792 0 0 0 2.766.972z"/>
        </g>
        <g data-name="그룹 28175">
            <path data-name="패스 15041" d="M282.074 50.846c-2.59 0-2.866 5.512-2.694 8.32s1.034 8.216 2.694 8.216 2.59-4.992 2.8-8.216c.173-2.737-.229-8.32-2.8-8.32z" transform="translate(-233.997 -42.578)" style="fill:#ff754b"/>
            <path data-name="패스 15042" d="M48.078 25.291c-1 0-1.776-1.119-2.377-3.42a29.9 29.9 0 0 1-.8-5.254c-.062-1.012-.28-6.159 1.546-8.1a2.18 2.18 0 0 1 3.28.014c1.6 1.7 1.771 6.035 1.639 8.088-.061.887-.638 8.672-3.288 8.672zm0-16.535a1.228 1.228 0 0 0-.924.429c-1.126 1.2-1.455 4.565-1.283 7.373.245 3.988 1.318 7.758 2.207 7.758.948 0 2.049-3.7 2.311-7.759.137-2.131-.116-6.013-1.377-7.358a1.244 1.244 0 0 0-.934-.443z"/>
        </g>
    </g>
</svg>
