<svg xmlns="http://www.w3.org/2000/svg" width="78.722" height="28.669" viewBox="0 0 78.722 28.669">
    <g data-name="그룹 27799">
        <path data-name="패스 2464" d="M596.411 826.207a1.426 1.426 0 0 1-.346.9 3.94 3.94 0 0 1-.879.8q-.266.179-.542.334t-.564.283q-.288.128-.542.224t-.476.162a5.556 5.556 0 0 0-.657.263l-.073.038-.106.057a.7.7 0 0 1-.193.084 2.563 2.563 0 0 1-.42.073.445.445 0 0 1-.3-.106.5.5 0 0 1-.164-.281q-.037-.153-.053-.255a1.042 1.042 0 0 1-.016-.157.759.759 0 0 1 .022-.15.7.7 0 0 0 .026-.171 1.226 1.226 0 0 1 .007-.126q.007-.071.022-.162l.024-.148.013-.086.055-.345q.04-.254.1-.673.036-.222.084-.471t.109-.529c0-.017.01-.039.016-.066l.024-.095q.029-.109.044-.186a.793.793 0 0 0 .015-.146.185.185 0 0 0-.044-.124.642.642 0 0 0-.124-.106.657.657 0 0 1-.108-.1.179.179 0 0 1-.031-.115.452.452 0 0 1 .124-.292.357.357 0 0 1 .266-.15 4.106 4.106 0 0 1 .449.033 3.857 3.857 0 0 0 .387.033q.186 0 .565-.022t.562-.022a5.633 5.633 0 0 1 1 .084 2.614 2.614 0 0 1 .843.3 3.091 3.091 0 0 1 .3.208 1.4 1.4 0 0 1 .39.547 1.66 1.66 0 0 1 .191.661zm-.635 0a.9.9 0 0 0-.372-.777 2.042 2.042 0 0 0-.876-.35q-.252-.04-.512-.062t-.535-.022c-.056 0-.114 0-.175.005l-.193.013-.38.036q-.179.018-.387.026-.051.241-.1.5t-.1.545c-.007.046-.018.106-.033.181l-.055.275c-.022.109-.038.209-.056.3a6.12 6.12 0 0 0-.082.495 9.838 9.838 0 0 0-.057.51 3.282 3.282 0 0 0-.009.235.97.97 0 0 0 .084.434 3.687 3.687 0 0 0 .558-.12 7.335 7.335 0 0 0 .623-.204l.3-.108c.086-.031.161-.055.224-.075a4.347 4.347 0 0 0 1.463-.689 1.678 1.678 0 0 0 .124-.131q.069-.08.153-.193a3.227 3.227 0 0 0 .285-.456.864.864 0 0 0 .109-.368z" transform="translate(-591.082 -802.736)" style="fill:#ffb198"/>
        <path data-name="패스 2465" d="M634.164 826.818a.407.407 0 0 1-.164.3.466.466 0 0 1-.314.146 2.449 2.449 0 0 1-.857-.576 4.473 4.473 0 0 1-.407-.4q-.2-.224-.454-.534c-.027-.034-.06-.074-.1-.12s-.085-.1-.139-.157l-.268-.312a2.766 2.766 0 0 1-.21-.275q-.175.135-.372.316a5.2 5.2 0 0 0-.372.377q-.354.383-.66.77-.051.062-.12.15l-.16.2q-.091.113-.166.213t-.137.192l-.047.08c-.019.034-.04.068-.062.1a.591.591 0 0 1-.068.088c-.023.024-.042.034-.056.029q-.088 0-.16-.15a.811.811 0 0 1-.069-.357 1.093 1.093 0 0 1 .274-.628 7.026 7.026 0 0 1 .7-.751l.4-.379.359-.343q.339-.321.339-.427a4.082 4.082 0 0 0-.379-.766l-.317-.574-.2-.359a.944.944 0 0 1-.135-.4.84.84 0 0 1 .091-.343q.095-.2.208-.2t.208.2c.019.039.041.086.064.14l.082.188.088.2.08.186q.069.164.148.315t.162.3q.088.146.2.317t.246.372q.2-.23.423-.445l.492-.492q.27-.27.376-.387.051-.055.122-.137c.048-.055.1-.115.148-.18q.04-.051.069-.091a.756.756 0 0 1 .055-.069l.064-.082.089-.111a.518.518 0 0 1 .43-.193.258.258 0 0 1 .135.035.323.323 0 0 1 .1.091.41.41 0 0 1 .06.133.62.62 0 0 1 .02.157q0 .226-.314.226a.206.206 0 0 0-.128.058 1.132 1.132 0 0 0-.141.144 2.968 2.968 0 0 0-.139.181l-.115.161q-.139.19-.276.345t-.268.283l-.16.15q-.106.1-.27.244t-.283.266q-.122.12-.206.215.168.208.332.407t.328.388q.164.19.336.372t.357.361a4.428 4.428 0 0 0 .356.31 2.775 2.775 0 0 0 .33.222 1.145 1.145 0 0 0 .175.084l.084.029.04.015a.178.178 0 0 1 .123.182z" transform="translate(-623.166 -800.472)" style="fill:#ffb198"/>
        <path data-name="패스 2466" d="M695.794 824.708a.17.17 0 0 1-.038.109.373.373 0 0 1-.1.084.751.751 0 0 1-.129.062 1.02 1.02 0 0 1-.135.04q-.15.033-.306.062l-.347.062a.377.377 0 0 0-.113.038.261.261 0 0 0-.1.082 1.6 1.6 0 0 0-.131.217q-.062.122-.122.248l-.119.246a1.478 1.478 0 0 1-.12.208q-.124.175-.212.307a.566.566 0 0 0-.088.157q0 .087.281.2a1.561 1.561 0 0 0 .591.117 1.156 1.156 0 0 0 .131-.013l.2-.029.2-.029a1.086 1.086 0 0 1 .133-.013.528.528 0 0 1 .212.038.165.165 0 0 1 .088.17c0 .015-.021.046-.064.095a.845.845 0 0 1-.184.15 1.451 1.451 0 0 1-.288.137 1.108 1.108 0 0 1-.376.06 2.173 2.173 0 0 1-1-.193.6.6 0 0 0-.115-.08q-.082-.047-.17-.093l-.153-.078-.069-.033a.523.523 0 0 0-.06.035l-.142.086-.184.113-.182.113-.142.088-.058.037-.212.078q-.117.042-.235.078t-.232.06a1.013 1.013 0 0 1-.2.024 2.366 2.366 0 0 1-.985-.2 1.183 1.183 0 0 1-.316-.212 1.466 1.466 0 0 1-.237-.283 1.317 1.317 0 0 1-.148-.312 1 1 0 0 1-.051-.3.98.98 0 0 1 .034-.226 2.511 2.511 0 0 1 .09-.283q.055-.144.119-.273a1.133 1.133 0 0 1 .118-.2 3.419 3.419 0 0 1 .445-.461 3.805 3.805 0 0 1 .529-.374.214.214 0 0 0 .051-.06.151.151 0 0 0 .029-.068c0-.053 0-.132-.015-.235s-.02-.212-.031-.325-.021-.221-.029-.325-.013-.182-.013-.235a2.306 2.306 0 0 1 .062-.549 1.282 1.282 0 0 1 .193-.44.908.908 0 0 1 .336-.29 1.075 1.075 0 0 1 .492-.1.669.669 0 0 1 .354.093.837.837 0 0 1 .255.241 1.106 1.106 0 0 1 .153.33 1.356 1.356 0 0 1 .051.365 1.137 1.137 0 0 1-.069.4 1.557 1.557 0 0 1-.181.341 2.114 2.114 0 0 1-.255.3q-.144.14-.3.275l-.284.252c-.039.036-.058.066-.058.087a.46.46 0 0 0 .033.146q.033.091.079.188t.095.184q.049.088.078.131.127.182.25.337t.248.29a2.719 2.719 0 0 0 .263.248 2.557 2.557 0 0 0 .3.211.168.168 0 0 0 .109-.042.478.478 0 0 0 .1-.113 1.736 1.736 0 0 0 .089-.159l.091-.182q.036-.069.08-.17l.089-.206.086-.2q.041-.095.066-.164-.073 0-.175-.015l-.2-.022-.162-.018-.069-.007-.151-.048a.21.21 0 0 1-.09-.053.2.2 0 0 1-.046-.1 1.426 1.426 0 0 1-.02-.184.124.124 0 0 1 .049-.1.426.426 0 0 1 .117-.069.855.855 0 0 1 .135-.042.542.542 0 0 1 .108-.015.429.429 0 0 1 .15.026l.151.057a1.618 1.618 0 0 0 .188.056 1.139 1.139 0 0 0 .263.025q.073 0 .186-.009l.246-.022.273-.029.266-.029.224-.022c.066-.006.115-.009.149-.009a.568.568 0 0 1 .223.036.124.124 0 0 1 .08.121zm-3.126 2.072a1.451 1.451 0 0 0-.162-.182q-.107-.106-.224-.213t-.219-.206a1.309 1.309 0 0 1-.15-.164 8.31 8.31 0 0 1-.144-.224l-.166-.27-.159-.255a2.76 2.76 0 0 0-.122-.18 1.455 1.455 0 0 0-.43.325 2.01 2.01 0 0 0-.172.215 1.922 1.922 0 0 0-.148.25 1.568 1.568 0 0 0-.1.266.986.986 0 0 0-.038.264.531.531 0 0 0 .1.321.964.964 0 0 0 .261.243 1.3 1.3 0 0 0 .339.153 1.219 1.219 0 0 0 .336.053 1.174 1.174 0 0 0 .292-.04 2.977 2.977 0 0 0 .316-.1q.158-.06.31-.128zm-.233-3.841a.28.28 0 0 0-.036-.142.647.647 0 0 0-.1-.142.616.616 0 0 0-.137-.109.254.254 0 0 0-.141-.04.3.3 0 0 0-.208.11.7.7 0 0 0-.118.221 1.1 1.1 0 0 0-.053.259q-.011.133-.011.224v.3q0 .14.005.25a1.2 1.2 0 0 0 .022.188.275.275 0 0 0 .045.115 1.956 1.956 0 0 0 .283-.261 2.254 2.254 0 0 0 .246-.323 1.249 1.249 0 0 0 .202-.651z" transform="translate(-675.019 -800.7)" style="fill:#ffb198"/>
        <path data-name="패스 2467" d="M756.082 824.3c.029-.114.064-.258.1-.432s.082-.363.124-.567.086-.418.13-.64.084-.438.12-.647.068-.4.095-.587.045-.338.055-.467a1.483 1.483 0 0 0 0-.162.843.843 0 0 1 .005-.168.455.455 0 0 1 .051-.157.312.312 0 0 1 .142-.126.44.44 0 0 1 .226-.055.554.554 0 0 1 .222.073.16.16 0 0 1 .051.08 1.562 1.562 0 0 1 .049.153c.016.058.03.12.044.184s.026.12.038.166a2.884 2.884 0 0 0 .155.42q.111.252.275.553t.37.638q.206.338.434.675t.467.658q.239.321.472.595.1-.379.171-.722t.133-.673q.06-.33.115-.657t.109-.677q.029-.179.062-.4t.062-.445q.029-.225.049-.434t.024-.363v-.124q0-.062.005-.119a.427.427 0 0 1 .025-.109.247.247 0 0 1 .064-.093.5.5 0 0 1 .212-.128.887.887 0 0 1 .2-.022.122.122 0 0 1 .095.058.625.625 0 0 1 .076.139 1.08 1.08 0 0 1 .053.166.932.932 0 0 1 .024.137.687.687 0 0 1-.015.151c-.012.069-.027.144-.046.224s-.037.159-.057.237l-.047.182q-.084.332-.169.732t-.164.808q-.079.409-.148.8t-.12.7q-.051.314-.078.52a1.836 1.836 0 0 0-.024.246c0 .036 0 .078.006.124s0 .092 0 .137v.128a.862.862 0 0 0 0 .093.35.35 0 0 1-.016.151.335.335 0 0 1-.148.179.576.576 0 0 1-.088.042.9.9 0 0 1-.109.026.7.7 0 0 1-.122.011.658.658 0 0 1-.113-.009.129.129 0 0 1-.078-.038 2.107 2.107 0 0 1-.232-.254.664.664 0 0 1-.122-.239.332.332 0 0 0-.036-.089q-.029-.053-.064-.106l-.067-.1a.596.596 0 0 0-.055-.071q-.237-.306-.467-.62t-.462-.668q-.232-.354-.469-.759t-.492-.886q-.1.365-.182.777t-.146.81q-.066.4-.117.753l-.088.608a1.242 1.242 0 0 0-.011.181v.217q0 .109-.007.206a.534.534 0 0 1-.029.151.6.6 0 0 1-.057.095.835.835 0 0 1-.088.106.527.527 0 0 1-.106.086.212.212 0 0 1-.111.035.349.349 0 0 1-.166-.033.221.221 0 0 1-.093-.1.517.517 0 0 1-.047-.159q-.015-.095-.026-.219a.849.849 0 0 1 .009-.151 4.994 4.994 0 0 1 .089-.491c.02-.09.052-.164.074-.245z" transform="translate(-731.29 -798.603)" style="fill:#ffb198"/>
        <path data-name="패스 2468" d="M801.959 833a.494.494 0 0 1-.08.193 6.685 6.685 0 0 1-.425.547 6.54 6.54 0 0 1-1.051.979 4.525 4.525 0 0 1-.578.368 3.03 3.03 0 0 1-.582.239 1.915 1.915 0 0 1-.56.08 1.192 1.192 0 0 1-.907-.339 1.438 1.438 0 0 1-.323-1.025 3.553 3.553 0 0 1 .177-1.113 3.084 3.084 0 0 1 .6-1.04 1.564 1.564 0 0 1 .181-.168 1.533 1.533 0 0 1 .212-.142 1.2 1.2 0 0 1 .23-.1 1.034 1.034 0 0 1 .239-.044.622.622 0 0 1 .08.007.721.721 0 0 1 .109.026.758.758 0 0 1 .113.046.261.261 0 0 1 .087.067 1.1 1.1 0 0 1 .162.241.7.7 0 0 1 .067.274 1.048 1.048 0 0 1-.038.33 1.263 1.263 0 0 1-.153.332 2.209 2.209 0 0 1-.283.35 5.621 5.621 0 0 1-.423.388l-.348.29a4.915 4.915 0 0 1-.461.334.673.673 0 0 0 .213.538.867.867 0 0 0 .586.184 1.67 1.67 0 0 0 .419-.055 2.768 2.768 0 0 0 .416-.144 3.494 3.494 0 0 0 .4-.2q.192-.115.359-.235.31-.226.562-.451t.5-.472l.2-.2a.522.522 0 0 1 .259-.157c.027.002.041.025.041.072zm-2.787-.726a.655.655 0 0 0-.016-.108.314.314 0 0 0-.038-.093.231.231 0 0 0-.058-.064.127.127 0 0 0-.077-.024.577.577 0 0 0-.387.235 2.568 2.568 0 0 0-.365.593 1.159 1.159 0 0 0-.071.18q-.031.1-.058.2t-.048.206l-.035.182.35-.263a3.823 3.823 0 0 0 .3-.248c.058-.053.118-.111.179-.173a1.8 1.8 0 0 0 .166-.2.959.959 0 0 0 .118-.212.545.545 0 0 0 .04-.212z" transform="translate(-766.618 -808.737)" style="fill:#ffb198"/>
        <path data-name="패스 2469" d="M830.949 834.663a.881.881 0 0 1-.069.316 1.3 1.3 0 0 1-.19.33 4.331 4.331 0 0 1-.345.39q-.191.193-.4.37t-.423.328a4.476 4.476 0 0 1-.418.262 2.591 2.591 0 0 1-.381.175.949.949 0 0 1-.314.064.712.712 0 0 1-.3-.058.68.68 0 0 1-.221-.159.881.881 0 0 1-.155-.235 2.273 2.273 0 0 1-.108-.285 2.756 2.756 0 0 1-.075-.308l-.055-.308-.206.312q-.115.173-.241.352t-.255.345q-.13.166-.243.29a2.975 2.975 0 0 1-.279.259 2.079 2.079 0 0 1-.321.217 1.863 1.863 0 0 1-.356.149 1.307 1.307 0 0 1-.383.057.52.52 0 0 1-.452-.237.952.952 0 0 1-.161-.547 2.054 2.054 0 0 1 .024-.3q.024-.159.055-.316t.06-.308a2.654 2.654 0 0 0 .04-.286c0-.036 0-.082.005-.137s0-.118 0-.191V834.866c0-.05.006-.1.011-.148s.012-.1.022-.153a.449.449 0 0 1 .1-.215.3.3 0 0 1 .241-.091q.336 0 .336.463a1.077 1.077 0 0 1-.016.177c-.011.065-.024.131-.038.2l-.046.212c-.016.072-.03.142-.042.21l-.073.284q-.037.142-.068.277c-.021.09-.037.177-.049.261a1.612 1.612 0 0 0-.018.232.586.586 0 0 0 .014.122.56.56 0 0 0 .044.128.289.289 0 0 0 .079.1.176.176 0 0 0 .115.04.809.809 0 0 0 .39-.108 2.09 2.09 0 0 0 .378-.266 3.742 3.742 0 0 0 .339-.339q.159-.181.279-.33a2.81 2.81 0 0 0 .232-.354q.115-.2.219-.425t.2-.44l.171-.394q.171-.4.306-.4a.2.2 0 0 1 .131.031.175.175 0 0 1 .033.126 1.559 1.559 0 0 1-.016.2q-.016.124-.038.259t-.038.259a1.566 1.566 0 0 0-.016.193v.151c0 .059 0 .121.005.184s.007.126.013.188a1.337 1.337 0 0 0 .024.159 1.53 1.53 0 0 0 .051.188 1.345 1.345 0 0 0 .093.217.683.683 0 0 0 .137.181.264.264 0 0 0 .186.075 1.074 1.074 0 0 0 .447-.117 3.4 3.4 0 0 0 .512-.3 6.094 6.094 0 0 0 .522-.412q.259-.228.481-.451l.177-.175a1.973 1.973 0 0 1 .164-.146.555.555 0 0 1 .12-.077q.053-.027.053.021z" transform="translate(-789.71 -810.834)" style="fill:#ffb198"/>
        <path data-name="패스 2470" d="M866.081 836.1v.064a.354.354 0 0 1-.018.084.385.385 0 0 1-.035.075.06.06 0 0 1-.053.033h-.073l-.108-.005-.108-.005h-.073a1.728 1.728 0 0 0-1.16.511 3.907 3.907 0 0 0-.788 1.219q-.062.157-.122.325t-.115.354a1.622 1.622 0 0 0-.042.18 1.074 1.074 0 0 1-.042.166q-.007.029-.062.057a.9.9 0 0 1-.122.049 1.27 1.27 0 0 1-.129.036.462.462 0 0 1-.084.015q-.252.014-.284-.522c-.007-.1-.01-.186-.009-.264s0-.156.009-.23.011-.152.02-.233.018-.173.027-.275q.018-.19.044-.438t.058-.5q.033-.252.069-.48a3.817 3.817 0 0 1 .077-.377.61.61 0 0 1 .111-.255.28.28 0 0 1 .21-.091.184.184 0 0 1 .078.02.3.3 0 0 1 .077.053.39.39 0 0 1 .058.069.164.164 0 0 1 .027.066 1.913 1.913 0 0 1 0 .2c-.005.072-.013.146-.026.222a5.225 5.225 0 0 1-.095.455q-.051.208-.078.356t-.046.286q-.018.139-.036.3t-.047.392q.062-.139.108-.237t.082-.173c.024-.05.047-.094.067-.133s.043-.08.068-.122l.08-.141.11-.186a3.122 3.122 0 0 1 .547-.691 2.071 2.071 0 0 1 .562-.385 1.433 1.433 0 0 1 .5-.157 1.586 1.586 0 0 1 .226.011 1.223 1.223 0 0 1 .252.055.729.729 0 0 1 .206.1.189.189 0 0 1 .082.147z" transform="translate(-822.073 -812.267)" style="fill:#ffb198"/>
        <path data-name="패스 2471" d="M891.03 834.349a.317.317 0 0 1-.027.126.641.641 0 0 1-.071.124.94.94 0 0 1-.1.113.575.575 0 0 1-.108.086 1.288 1.288 0 0 1-.363.148 2.438 2.438 0 0 1-1.14-.007 1.856 1.856 0 0 1-.54-.235.716.716 0 0 1 .108.245 1.428 1.428 0 0 1 .024.277 1.5 1.5 0 0 1-.146.613 2.641 2.641 0 0 1-.368.609 2.609 2.609 0 0 1-.478.467 1.762 1.762 0 0 1-.312.184 2.157 2.157 0 0 1-.356.127 2.767 2.767 0 0 1-.387.073 3.434 3.434 0 0 1-.405.024.488.488 0 0 1-.277-.091 1.089 1.089 0 0 1-.241-.222 1.184 1.184 0 0 1-.17-.281.7.7 0 0 1-.064-.27 2.029 2.029 0 0 1 .079-.567 2.772 2.772 0 0 1 .212-.525 4.09 4.09 0 0 1 .308-.5q.175-.242.372-.483a2.545 2.545 0 0 1 .25-.264 2.4 2.4 0 0 1 .294-.232 1.747 1.747 0 0 1 .31-.166.794.794 0 0 1 .3-.064.549.549 0 0 1 .2.033.594.594 0 0 1 .159.093 1.175 1.175 0 0 1 .153.151q.078.091.181.2a.72.72 0 0 0 .181.1 3.223 3.223 0 0 0 .35.124q.2.06.425.106a2.025 2.025 0 0 0 .405.046q.182 0 .336-.013a2.6 2.6 0 0 0 .3-.042 2.045 2.045 0 0 0 .286-.08q.142-.051.306-.124a.374.374 0 0 1 .014.097zm-2.725.875a1.371 1.371 0 0 0-.015-.232 1.061 1.061 0 0 0-.064-.244.534.534 0 0 0-.12-.188.211.211 0 0 0-.184-.058 1.451 1.451 0 0 1-.277-.139.352.352 0 0 0-.168-.073.2.2 0 0 0-.095.027.577.577 0 0 0-.106.075 1.24 1.24 0 0 0-.111.111q-.057.064-.111.133l-.2.259q-.091.117-.175.232-.082.115-.159.241c-.051.084-.1.178-.153.283a.9.9 0 0 0-.058.157 2.15 2.15 0 0 0-.08.554.275.275 0 0 0 .033.115.663.663 0 0 0 .086.131.535.535 0 0 0 .12.108.244.244 0 0 0 .133.044 2.578 2.578 0 0 0 .317-.016 1.051 1.051 0 0 0 .243-.058 1.173 1.173 0 0 0 .224-.115q.113-.073.263-.19a1.223 1.223 0 0 0 .144-.128q.071-.073.14-.155t.131-.168c.041-.057.08-.114.117-.17a.543.543 0 0 0 .062-.135 1.3 1.3 0 0 0 .04-.161c.01-.053.016-.1.02-.146s.003-.073.003-.093z" transform="translate(-841.605 -810.627)" style="fill:#ffb198"/>
        <path data-name="패스 2472" d="M919.839 824.144a.366.366 0 0 1-.046.151 1.917 1.917 0 0 1-.109.192q-.064.1-.13.184l-.1.133q-.135.161-.3.343t-.356.363q-.188.181-.389.345a4.023 4.023 0 0 1-.4.292 2.258 2.258 0 0 1-.4.2 1.036 1.036 0 0 1-.37.075.462.462 0 0 1-.44-.263.814.814 0 0 1-.08-.27 2.434 2.434 0 0 1-.02-.317q0-.08.016-.266t.036-.4.036-.4.016-.266a.869.869 0 0 0-.005-.11c0-.027-.008-.053-.013-.08q-.23.04-.507.084t-.562.082q-.285.038-.56.066t-.5.038v.208q0 .124-.007.27c0 .1-.007.2-.011.3l-.013.312q-.022.529-.056 1t-.091.866a4.559 4.559 0 0 1-.148.688 1.488 1.488 0 0 1-.226.471.277.277 0 0 1-.067.06.571.571 0 0 1-.089.047.552.552 0 0 1-.1.031.464.464 0 0 1-.095.011.451.451 0 0 1-.358-.161.568.568 0 0 1-.135-.383c0-.041.027-.062.08-.062a.4.4 0 0 1 .122.024.376.376 0 0 0 .111.024.236.236 0 0 0 .2-.1.8.8 0 0 0 .118-.239 1.607 1.607 0 0 0 .062-.283l.029-.231q.069-.653.091-1.348t.026-1.472l-.153.016a.617.617 0 0 1-.077.005h-.255a.769.769 0 0 1-.122-.011.522.522 0 0 1-.126-.036.28.28 0 0 1-.1-.067.148.148 0 0 1-.038-.1.326.326 0 0 1 .018-.117.15.15 0 0 1 .071-.076.425.425 0 0 1 .144-.042 1.805 1.805 0 0 1 .237-.013h.2a1.435 1.435 0 0 0 .2-.022 7.133 7.133 0 0 1 .101-1.083 3.392 3.392 0 0 1 .082-.372 2.751 2.751 0 0 1 .235-.6 1.891 1.891 0 0 1 .3-.421 1.18 1.18 0 0 1 .343-.248.835.835 0 0 1 .35-.082.668.668 0 0 1 .478.162.683.683 0 0 1 .171.516 1.09 1.09 0 0 1-.015.148.91.91 0 0 1-.047.184.347.347 0 0 1-.064.122.088.088 0 0 1-.06.031q-.033 0-.08-.168a1.421 1.421 0 0 0-.057-.161.588.588 0 0 0-.073-.128.309.309 0 0 0-.1-.086.292.292 0 0 0-.139-.031.537.537 0 0 0-.374.144 1.077 1.077 0 0 0-.264.419 3.007 3.007 0 0 0-.159.68 7.279 7.279 0 0 0-.053.93c.083 0 .173-.007.272-.013s.2-.013.3-.022.209-.019.314-.033.2-.03.3-.049a6.519 6.519 0 0 0 .64-.15 4.8 4.8 0 0 0 .556-.2.9.9 0 0 0 .084-.04.172.172 0 0 1 .084-.018.148.148 0 0 1 .122.086.509.509 0 0 1 .053.261q0 .219-.022.447t-.046.454l-.046.447q-.022.221-.022.425a.791.791 0 0 0 .011.131.51.51 0 0 0 .035.12.238.238 0 0 0 .062.088.143.143 0 0 0 .1.033.7.7 0 0 0 .29-.073 2.007 2.007 0 0 0 .323-.19 3.86 3.86 0 0 0 .326-.261q.163-.144.306-.284t.257-.265l.182-.2q.113-.128.2-.235l.149-.188a1.34 1.34 0 0 1 .109-.124.127.127 0 0 1 .078-.044.115.115 0 0 1 .106.053.256.256 0 0 1 .043.142zm-1.868-2.7a.32.32 0 0 1-.007.068.383.383 0 0 1-.031.084 1.19 1.19 0 0 1-.068.12l-.113.181-.073.044a.9.9 0 0 1-.093.048.956.956 0 0 1-.095.036.257.257 0 0 1-.075.014.266.266 0 0 1-.248-.142.543.543 0 0 1 .047-.133q.037-.075.082-.151t.1-.146a.992.992 0 0 1 .095-.113.326.326 0 0 1 .215-.128.244.244 0 0 1 .095.02.355.355 0 0 1 .086.051.272.272 0 0 1 .062.069.147.147 0 0 1 .021.075z" transform="translate(-865.091 -799.932)" style="fill:#ffb198"/>
        <path data-name="패스 2473" d="M959.662 836.128a.445.445 0 0 1-.024.141 1.172 1.172 0 0 1-.058.142 1.315 1.315 0 0 1-.078.139l-.084.13a3.358 3.358 0 0 1-.248.334q-.142.169-.3.33t-.334.3a4.012 4.012 0 0 1-.336.252l-.25.164a1.879 1.879 0 0 1-.239.131 1.47 1.47 0 0 1-.252.088 1.19 1.19 0 0 1-.288.033.759.759 0 0 1-.492-.153.708.708 0 0 1-.166-.2 1.562 1.562 0 0 1-.124-.272 2.849 2.849 0 0 1-.091-.317q-.038-.168-.064-.332l-.062-.367a1.9 1.9 0 0 0-.068-.273.494.494 0 0 0-.093-.172.184.184 0 0 0-.142-.06.582.582 0 0 0-.131.015.419.419 0 0 0-.129.058.933.933 0 0 0-.148.124q-.081.08-.188.212t-.246.321q-.139.19-.325.452-.091.128-.215.281t-.254.292a3.122 3.122 0 0 1-.253.244.659.659 0 0 1-.219.135q-.321-.069-.321-.8a5.863 5.863 0 0 1 .044-.587q.022-.179.051-.374t.073-.39q.044-.2.1-.379a2.34 2.34 0 0 1 .133-.341.464.464 0 0 1 .077-.115.271.271 0 0 1 .169-.088.81.81 0 0 1 .093-.005c.039 0 .074.027.1.08a.452.452 0 0 1 .046.222.886.886 0 0 1-.015.164 1.345 1.345 0 0 1-.04.157l-.055.173q-.029.093-.058.213l-.049.219c-.018.08-.035.162-.051.244s-.029.164-.04.243a1.6 1.6 0 0 0-.016.213.441.441 0 0 0 .022.135q.1-.011.335-.306l.265-.328q.144-.179.312-.394.124-.16.246-.3a1.972 1.972 0 0 1 .253-.243 1.141 1.141 0 0 1 .279-.164.854.854 0 0 1 .326-.06.566.566 0 0 1 .316.082.6.6 0 0 1 .2.226 1.312 1.312 0 0 1 .119.345q.042.2.067.441l.042.4a1.455 1.455 0 0 0 .078.359.628.628 0 0 0 .168.257.453.453 0 0 0 .314.1.837.837 0 0 0 .328-.073 2.118 2.118 0 0 0 .361-.2 4.435 4.435 0 0 0 .392-.3q.2-.175.417-.383a2.236 2.236 0 0 0 .184-.2q.1-.122.2-.235t.181-.193a.232.232 0 0 1 .135-.08.206.206 0 0 1 .071.022.075.075 0 0 1 .049.071z" transform="translate(-899.293 -811.956)" style="fill:#ffb198"/>
        <path data-name="패스 2474" d="M994.363 840.641a.36.36 0 0 1-.011.081.589.589 0 0 1-.031.094.969.969 0 0 1-.044.092.3.3 0 0 1-.049.069 2.535 2.535 0 0 1-.064.061l-.093.083-.111.095c-.04.033-.082.065-.126.095q-.226.161-.443.312a3.7 3.7 0 0 1-.447.267 2.606 2.606 0 0 1-.48.185 1.941 1.941 0 0 1-.542.067 1.006 1.006 0 0 1-.272-.038 1.08 1.08 0 0 1-.257-.109.851.851 0 0 1-.208-.17.584.584 0 0 1-.124-.218l-.222.177q-.117.092-.243.185t-.261.181q-.135.088-.277.161-.08.04-.191.085t-.234.083a2.423 2.423 0 0 1-.244.062 1.166 1.166 0 0 1-.221.024.45.45 0 0 1-.257-.072.655.655 0 0 1-.179-.177.791.791 0 0 1-.106-.223.768.768 0 0 1-.035-.212 1.131 1.131 0 0 1 .069-.381 2.091 2.091 0 0 1 .18-.38 2.986 2.986 0 0 1 .248-.352 3.932 3.932 0 0 1 .268-.3 2.68 2.68 0 0 1 .328-.27 3.352 3.352 0 0 1 .394-.24 2.739 2.739 0 0 1 .4-.171 1.138 1.138 0 0 1 .35-.065h.162c.057 0 .114 0 .17.007a1.523 1.523 0 0 1 .164.023.609.609 0 0 1 .146.046.305.305 0 0 1 .077.065.833.833 0 0 1 .082.107.847.847 0 0 1 .064.119.26.26 0 0 1 .026.093.8.8 0 0 1-.055.249q-.058.195-.108.355a1.1 1.1 0 0 0-.049.329.528.528 0 0 0 .04.2.594.594 0 0 0 .3.317.549.549 0 0 0 .243.052 1.534 1.534 0 0 0 .456-.072 2.761 2.761 0 0 0 .472-.2 4.512 4.512 0 0 0 .476-.291q.237-.165.467-.352l.064-.058c.03-.027.062-.055.095-.082a1.211 1.211 0 0 1 .1-.073.152.152 0 0 1 .069-.033q.074.002.074.118zm-3.247-.235a1.149 1.149 0 0 0-.007-.119.2.2 0 0 0-.047-.116.122.122 0 0 0-.1-.044h-.117a.967.967 0 0 0-.246.031 1.249 1.249 0 0 0-.232.086 1.643 1.643 0 0 0-.217.127q-.1.072-.2.151a1.7 1.7 0 0 0-.177.161 2.61 2.61 0 0 0-.182.211q-.089.114-.173.24a2.383 2.383 0 0 0-.146.249 1.625 1.625 0 0 0-.1.237.688.688 0 0 0-.036.208.4.4 0 0 0 .009.075.392.392 0 0 0 .029.091.224.224 0 0 0 .055.075.123.123 0 0 0 .086.031 1.406 1.406 0 0 0 .419-.082 2.356 2.356 0 0 0 .622-.309 2.164 2.164 0 0 0 .476-.454 1.438 1.438 0 0 0 .284-.849z" transform="translate(-929.197 -815.785)" style="fill:#ffb198"/>
        <path data-name="패스 2475" d="M1030.366 836.128a.441.441 0 0 1-.023.141 1.211 1.211 0 0 1-.058.142 1.338 1.338 0 0 1-.079.139l-.084.13a3.382 3.382 0 0 1-.248.334q-.142.169-.3.33t-.334.3a4.033 4.033 0 0 1-.336.252l-.25.164a1.886 1.886 0 0 1-.239.131 1.471 1.471 0 0 1-.252.088 1.19 1.19 0 0 1-.288.033.76.76 0 0 1-.492-.153.71.71 0 0 1-.166-.2 1.589 1.589 0 0 1-.124-.272 2.9 2.9 0 0 1-.092-.317 5.098 5.098 0 0 1-.064-.332l-.062-.367a1.932 1.932 0 0 0-.067-.273.5.5 0 0 0-.093-.172.185.185 0 0 0-.142-.06.581.581 0 0 0-.131.015.422.422 0 0 0-.129.058.927.927 0 0 0-.148.124q-.08.08-.188.212t-.246.321q-.139.19-.325.452-.091.128-.215.281t-.254.292a3.1 3.1 0 0 1-.253.244.659.659 0 0 1-.219.135q-.321-.069-.321-.8a5.826 5.826 0 0 1 .044-.587c.015-.119.031-.244.051-.374s.044-.26.073-.39.063-.257.1-.379a2.34 2.34 0 0 1 .133-.341.47.47 0 0 1 .076-.115.284.284 0 0 1 .082-.062.279.279 0 0 1 .088-.026.8.8 0 0 1 .093-.005c.039 0 .074.027.1.08a.452.452 0 0 1 .046.222.9.9 0 0 1-.015.164 1.37 1.37 0 0 1-.04.157l-.055.173q-.029.093-.058.213l-.049.219q-.027.119-.051.244-.024.124-.04.243a1.6 1.6 0 0 0-.016.213.448.448 0 0 0 .022.135q.1-.011.335-.306l.265-.328q.144-.179.312-.394.124-.16.246-.3a1.988 1.988 0 0 1 .253-.243 1.139 1.139 0 0 1 .279-.164.854.854 0 0 1 .326-.06.568.568 0 0 1 .316.082.6.6 0 0 1 .2.226 1.3 1.3 0 0 1 .119.345q.042.2.067.441l.042.4a1.466 1.466 0 0 0 .078.359.633.633 0 0 0 .168.257.452.452 0 0 0 .313.1.838.838 0 0 0 .329-.073 2.122 2.122 0 0 0 .361-.2 4.434 4.434 0 0 0 .392-.3q.2-.175.418-.383a2.255 2.255 0 0 0 .184-.2q.1-.122.2-.235t.181-.193a.232.232 0 0 1 .135-.08.2.2 0 0 1 .071.022.075.075 0 0 1 .048.071z" transform="translate(-959.433 -811.956)" style="fill:#ffb198"/>
        <path data-name="패스 2476" d="M1064.921 834.585a.347.347 0 0 1-.095.237 1.287 1.287 0 0 1-.1.1 2.07 2.07 0 0 0-.124.115l-.336.336c-.063.063-.122.12-.177.17l-.144.129-.253.21-.341.283a6.642 6.642 0 0 1-.7.514 3.182 3.182 0 0 1-.687.316 2.511 2.511 0 0 1-.775.118.966.966 0 0 1-.45-.088.989.989 0 0 1-.336-.257 1.121 1.121 0 0 1-.208-.381 1.418 1.418 0 0 1-.068-.463 2.466 2.466 0 0 1 .206-.97 4.84 4.84 0 0 1 .549-.956 3.02 3.02 0 0 1 .449-.474.754.754 0 0 1 .471-.226q.113 0 .259.19a2.22 2.22 0 0 1 .139.2 2.09 2.09 0 0 1 .12.228.97.97 0 0 1 .109.343.793.793 0 0 1-.066.274q-.066.168-.157.168-.131 0-.219-.179a1.2 1.2 0 0 1-.064-.155q-.02-.064-.046-.137a2.1 2.1 0 0 0-.142-.314.662.662 0 0 0-.4.237 2.2 2.2 0 0 0-.159.228q-.082.133-.173.3a2.213 2.213 0 0 0-.135.3 3.068 3.068 0 0 0-.106.337 3.481 3.481 0 0 0-.069.347 2.213 2.213 0 0 0-.025.323.611.611 0 0 0 .182.412.552.552 0 0 0 .4.193 2.412 2.412 0 0 0 .886-.164 3.78 3.78 0 0 0 .806-.438 7.7 7.7 0 0 0 .777-.624l.374-.338.337-.3a.757.757 0 0 1 .442-.233c.028-.009.049.024.049.089z" transform="translate(-990.041 -810.315)" style="fill:#ffb198"/>
        <path data-name="패스 2477" d="M1092.291 833a.492.492 0 0 1-.08.193 6.67 6.67 0 0 1-.425.547 6.54 6.54 0 0 1-1.051.979 4.517 4.517 0 0 1-.578.368 3.028 3.028 0 0 1-.582.239 1.916 1.916 0 0 1-.56.08 1.192 1.192 0 0 1-.907-.339 1.438 1.438 0 0 1-.323-1.025 3.554 3.554 0 0 1 .177-1.113 3.083 3.083 0 0 1 .6-1.04 1.561 1.561 0 0 1 .181-.168 1.522 1.522 0 0 1 .212-.142 1.194 1.194 0 0 1 .229-.1 1.038 1.038 0 0 1 .239-.044.621.621 0 0 1 .08.007.721.721 0 0 1 .109.026.75.75 0 0 1 .113.046.261.261 0 0 1 .088.067 1.1 1.1 0 0 1 .162.241.7.7 0 0 1 .067.274 1.048 1.048 0 0 1-.038.33 1.261 1.261 0 0 1-.153.332 2.212 2.212 0 0 1-.283.35 5.643 5.643 0 0 1-.423.388l-.349.29a4.916 4.916 0 0 1-.461.334.673.673 0 0 0 .213.538.868.868 0 0 0 .586.184 1.67 1.67 0 0 0 .419-.055 2.763 2.763 0 0 0 .416-.144 3.505 3.505 0 0 0 .4-.2q.192-.115.359-.235.31-.226.562-.451t.5-.472l.2-.2a.522.522 0 0 1 .259-.157c.027.002.042.025.042.072zm-2.787-.726a.648.648 0 0 0-.016-.108.307.307 0 0 0-.038-.093.23.23 0 0 0-.058-.064.126.126 0 0 0-.076-.024.577.577 0 0 0-.387.235 2.568 2.568 0 0 0-.365.593 1.183 1.183 0 0 0-.071.18q-.031.1-.058.2t-.048.206l-.035.182.35-.263a3.8 3.8 0 0 0 .3-.248c.058-.053.118-.111.179-.173a1.819 1.819 0 0 0 .166-.2.961.961 0 0 0 .118-.212.546.546 0 0 0 .035-.212z" transform="translate(-1013.57 -808.737)" style="fill:#ffb198"/>
    </g>
    <text transform="translate(0 13)" style="font-size:13px;font-family:FuturaBT-Medium,Futura Md BT;font-weight:500;letter-spacing:.35em;fill:#ffb198"><tspan x="0" y="0">DNEURO</tspan></text>
</svg>
