<svg xmlns="http://www.w3.org/2000/svg" width="170.273" height="134.814" viewBox="0 0 170.273 134.814">
    <path data-name="패스 14985" d="M39.67 126.154H29.518a.935.935 0 0 1 0-1.87H39.67a4.412 4.412 0 0 0 4.407-4.407v-53.16a4.412 4.412 0 0 0-4.407-4.408H6.277a4.412 4.412 0 0 0-4.407 4.407v31.923a.935.935 0 1 1-1.87 0V66.717a6.284 6.284 0 0 1 6.277-6.277H39.67a6.284 6.284 0 0 1 6.277 6.277v53.161a6.284 6.284 0 0 1-6.277 6.276z"/>
    <path data-name="패스 14986" d="M12.155 82.611a.935.935 0 0 1-.935-.935V68.854a.935.935 0 1 1 1.87 0v12.822a.935.935 0 0 1-.935.935z"/>
    <path data-name="패스 14987" d="M12.155 88.755a.935.935 0 0 1-.935-.935v-1.87a.935.935 0 1 1 1.87 0v1.87a.935.935 0 0 1-.935.935z"/>
    <g data-name="그룹 28168">
        <path data-name="사각형 11521" transform="translate(31.655 62.176)" style="fill:#ff754b" d="M0 0h7.48v62.242H0z"/>
        <path data-name="패스 14988" d="M125.1 291.377h-9.082v-63.844h9.082zm-7.48-1.6h5.88v-60.641h-5.877z" transform="translate(-85.162 -166.158)" style="fill:#040000"/>
    </g>
    <circle data-name="타원 147" cx="7.747" cy="7.747" r="7.747" transform="translate(3.072 107.054)"/>
    <path data-name="패스 14989" d="M10.82 130.979a8.079 8.079 0 0 1-8.017-8.125 8.214 8.214 0 0 1 .433-2.641.668.668 0 1 1 1.265.429 6.874 6.874 0 0 0-.362 2.212 6.679 6.679 0 1 0 13.357 0 6.877 6.877 0 0 0-.362-2.212.668.668 0 1 1 1.265-.429 8.209 8.209 0 0 1 .433 2.641 8.079 8.079 0 0 1-8.012 8.125z"/>
    <path data-name="패스 14990" d="M165.198 87.821a1.035 1.035 0 0 1-.728-.347 2.949 2.949 0 0 1-.594-.944 9.143 9.143 0 0 1 0-6.234 2.964 2.964 0 0 1 .594-.945.941.941 0 0 1 1.456 0 2.969 2.969 0 0 1 .594.945 9.143 9.143 0 0 1 0 6.234 2.958 2.958 0 0 1-.6.945 1.031 1.031 0 0 1-.722.346zm0-7.2a2.44 2.44 0 0 0-.093.2 7.85 7.85 0 0 0 0 5.191c.032.076.064.141.093.2.029-.057.061-.123.093-.2a7.85 7.85 0 0 0 0-5.19c-.032-.08-.065-.145-.093-.202z"/>
    <path data-name="패스 14991" d="M60.001 57.648c-2.763 0-7.469-1.137-8.452-5.613-.587-2.673-.462-4.194.394-4.787a1.488 1.488 0 0 1 1.69.076 1.563 1.563 0 0 1 .7 1.068c.155.868-.28 1.969-1.327 3.366a.67.67 0 0 1-.119.122c.925 3.778 5.336 4.547 7.561 4.42a.668.668 0 1 1 .075 1.333c-.166.01-.34.015-.522.015zm-7.3-9.292c-.048.063-.257.42-.133 1.66a2.283 2.283 0 0 0 .452-1.39.238.238 0 0 0-.108-.181.545.545 0 0 0-.215-.089z"/>
    <path data-name="패스 14992" d="M49.159 56.29a4.472 4.472 0 0 1-2.8-.966 4.182 4.182 0 0 1-1.632-3.166c0-1.628 1.119-4.322 2.394-4.322a1.079 1.079 0 0 1 1.017.816 4.49 4.49 0 0 1 .2 1.5c0 1.958.759 2.737 1.409 2.809a.668.668 0 1 1-.147 1.327c-1.2-.133-2.6-1.3-2.6-4.136a5.343 5.343 0 0 0-.04-.716 5.391 5.391 0 0 0-.895 2.72 2.823 2.823 0 0 0 1.124 2.117 3.289 3.289 0 0 0 2.862.572.668.668 0 1 1 .309 1.3 5.16 5.16 0 0 1-1.201.145z"/>
    <path data-name="패스 14993" d="M57.873 60.647a8.92 8.92 0 0 1-5.673-2.2c-1.745-1.514-3.786-4.463-3.6-9.916a4.025 4.025 0 0 1 1.851-3.4 4.259 4.259 0 0 1 4.042-.122l.037.019a3.855 3.855 0 0 1 1.9 3.319 6.967 6.967 0 0 1-2.5 5.69.668.668 0 0 1-.776-1.087 5.615 5.615 0 0 0 1.947-4.525 2.594 2.594 0 0 0-1.2-2.218 2.923 2.923 0 0 0-2.757.062 2.681 2.681 0 0 0-1.214 2.3c-.164 4.927 1.62 7.539 3.145 8.862a7.163 7.163 0 0 0 5.555 1.812.668.668 0 1 1 .232 1.315 5.722 5.722 0 0 1-.989.089z"/>
    <path data-name="패스 14994" d="M162.26 97.705c-2.14 0-4.153-1.473-5.667-4.147a22.522 22.522 0 0 1 0-20.022c1.514-2.674 3.526-4.147 5.667-4.147s4.153 1.473 5.667 4.147a22.525 22.525 0 0 1 0 20.022c-1.514 2.674-3.526 4.147-5.667 4.147zm0-26.98c-1.639 0-3.238 1.232-4.5 3.469a21.207 21.207 0 0 0 0 18.707c1.266 2.237 2.866 3.469 4.5 3.469s3.238-1.232 4.5-3.469a21.208 21.208 0 0 0 0-18.707c-1.262-2.242-2.861-3.47-4.5-3.47z"/>
    <path data-name="패스 14995" d="M160.39 89.424a1.036 1.036 0 0 1-.728-.347 2.963 2.963 0 0 1-.594-.943 9.143 9.143 0 0 1 0-6.234 2.966 2.966 0 0 1 .595-.945.941.941 0 0 1 1.456 0 2.96 2.96 0 0 1 .594.945 9.143 9.143 0 0 1 0 6.233 2.947 2.947 0 0 1-.6.945 1.034 1.034 0 0 1-.723.346zm0-7.2a2.44 2.44 0 0 0-.093.2 7.85 7.85 0 0 0 0 5.19c.032.076.064.142.093.2.029-.057.061-.123.093-.2a7.85 7.85 0 0 0 0-5.19 1.955 1.955 0 0 0-.093-.201z"/>
    <path data-name="패스 14996" d="M146.366 95.701a.667.667 0 0 1-.6-.366c-3.915-7.721-1.986-16.677-.419-20.332a.668.668 0 1 1 1.228.526c-1.482 3.458-3.31 11.921.382 19.2a.669.669 0 0 1-.6.97z"/>
    <path data-name="패스 14997" d="M161.459 70.724h-.036l-12.422-.668a.668.668 0 0 1 .072-1.333l12.422.668a.668.668 0 0 1-.035 1.334z"/>
    <path data-name="패스 14998" d="M147.701 100.376a.668.668 0 0 1-.161-1.316 43.027 43.027 0 0 1 6.573-.287A18.9 18.9 0 0 0 163 96.322a.668.668 0 1 1 .658 1.162 20.267 20.267 0 0 1-9.545 2.624 44.689 44.689 0 0 0-6.249.247.682.682 0 0 1-.163.021z"/>
    <path data-name="패스 14999" d="M139.955 116.271a.668.668 0 0 1-.337-1.245c7.471-4.358 12.794-12.208 14.565-15.749a.668.668 0 0 1 1.194.6c-1.833 3.665-7.344 11.79-15.086 16.306a.665.665 0 0 1-.336.088z"/>
    <path data-name="패스 15000" d="M134.352 133.584a34.3 34.3 0 0 1-8.888-1.45.668.668 0 0 1 .4-1.275c3.992 1.244 10.853 2.306 13.391.13 2.567-2.2 3.264-11.514 3.106-17.239a.668.668 0 0 1 1.335-.037c.017.607.364 14.916-3.572 18.29-1.389 1.19-3.541 1.581-5.772 1.581z"/>
    <path data-name="패스 15001" d="M117.328 134.81a53.091 53.091 0 0 1-8.026-.647c-.84-.045-2.062-.954-2.841-3.4-.948-2.98-1.733-13.337-1.766-13.776a.668.668 0 1 1 1.332-.1c.32 4.263 1.038 11.369 1.707 13.471.627 1.971 1.456 2.452 1.644 2.474l.1.009c3 .5 9.7 1.145 13.6.017 3.324-.962 4.009-10.5 3.66-16.281a.668.668 0 0 1 1.333-.08c.04.654.9 16.045-4.621 17.645a23.14 23.14 0 0 1-6.122.668z"/>
    <path data-name="패스 15002" d="M128.898 120.657a7.185 7.185 0 0 1-1.357-.125.668.668 0 1 1 .252-1.311c2.632.506 5.5-.987 6.609-1.653a.668.668 0 1 1 .687 1.145 12.946 12.946 0 0 1-6.191 1.944z"/>
    <path data-name="패스 15003" d="M100.085 123.973c-4.74 0-11.165-.449-14.953-2.58a.668.668 0 1 1 .655-1.164c5.822 3.276 18.613 2.308 20.052 2.187a.668.668 0 0 1 .112 1.331c-.572.049-2.886.226-5.866.226z"/>
    <path data-name="패스 15004" d="M86.558 130.85c-1.659 0-3.219-.263-3.974-1.018a.668.668 0 0 1 .944-.944c.986.986 5.542.7 7.732-.028 1.028-.343 2.093-3.251 2.49-5.749a.668.668 0 0 1 1.319.21c-.1.613-1.021 6.018-3.386 6.807a18.532 18.532 0 0 1-5.125.722z"/>
    <path data-name="패스 15005" d="M77.028 132.177c-3.6 0-7.532-.765-10.447-3.389-4.221-3.8-2.3-18.143-2.218-18.752a.668.668 0 1 1 1.323.182c-.786 5.711-.958 15.105 1.789 17.577 3.674 3.307 9.289 3.334 13.353 2.774 2.082-.287 3.651-6.63 3.966-12.6a.66.66 0 0 1 .7-.631.667.667 0 0 1 .631.7c-.071 1.355-.821 13.257-5.117 13.85a29.331 29.331 0 0 1-3.98.289z"/>
    <path data-name="패스 15006" d="M64.624 114.133a.667.667 0 0 1-.513-.24c-6.932-8.29-17.128-30.162-6.1-53.6 6.491-13.8 18.635-19.969 27.68-22.713a.668.668 0 0 1 .388 1.278c-8.786 2.666-20.577 8.647-26.859 22-10.738 22.832-.824 44.116 5.919 52.179a.668.668 0 0 1-.512 1.1z"/>
    <path data-name="패스 15007" d="M110.303 36.531a.748.748 0 0 1-.08 0 53.51 53.51 0 0 0-7.759-.306.668.668 0 0 1-.039-1.335 54.867 54.867 0 0 1 7.957.314.668.668 0 0 1-.079 1.331z"/>
    <path data-name="패스 15008" d="M154.246 70.057a.668.668 0 0 1-.623-.427c-8.208-21.238-27.062-30.3-36.909-32.31a.668.668 0 0 1 .267-1.309c10.113 2.062 29.472 11.361 37.888 33.137a.668.668 0 0 1-.623.909z"/>
    <circle data-name="타원 148" cx="4.007" cy="4.007" r="4.007" transform="translate(131.005 58.437)"/>
    <ellipse data-name="타원 149" cx="3.339" cy="3.473" rx="3.339" ry="3.473" transform="translate(144.095 53.895)"/>
    <path data-name="패스 15009" d="M134.878 43.477a.668.668 0 0 1-.615-.927c.706-1.677 1.575-4.664 1.3-6.057a.668.668 0 1 1 1.309-.262c.355 1.776-.627 5.062-1.375 6.837a.668.668 0 0 1-.619.409z"/>
    <path data-name="패스 15010" d="M130.07 40.771a.668.668 0 0 1-.555-1.038c.838-1.257 2.819-4.115 4.314-5.931.9-1.1 1.693-1.546 2.419-1.376a1.408 1.408 0 0 1 1.018 1.116.668.668 0 1 1-1.3.3.4.4 0 0 0-.042-.109c-.1.024-.44.161-1.063.918-1.462 1.775-3.409 4.585-4.234 5.823a.667.667 0 0 1-.557.297z"/>
    <path data-name="패스 15011" d="M137.149 47.217a.669.669 0 0 1-.642-.852c1.952-6.8 2.636-14.356.4-15.221-2.665-1.031-8.062 4.716-10.837 8.582a.668.668 0 0 1-1.085-.779c.8-1.109 7.909-10.79 12.4-9.049 4.577 1.772.842 15.3.4 16.835a.669.669 0 0 1-.636.484z"/>
    <path data-name="패스 15012" d="M109.099 58.837a.668.668 0 0 1-.665-.619c-.055-.757-1.313-18.6 2.267-23.42a2.432 2.432 0 0 1 2.195-1.062c4.379.3 10.888 11.966 11.616 13.294a.668.668 0 1 1-1.171.642c-3.359-6.134-8.057-12.432-10.537-12.6a1.109 1.109 0 0 0-1.031.527c-2.439 3.284-2.537 15.271-2.007 22.526a.668.668 0 0 1-.618.714z"/>
    <path data-name="패스 15013" d="M113.509 54.563a.668.668 0 0 1-.633-.454c-.159-.471-3.848-11.578.232-14.638a1.813 1.813 0 0 1 1.615-.2c1.346.413 3.472 2.271 5.954 8.776a.668.668 0 1 1-1.248.476c-2.571-6.738-4.552-7.808-5.1-7.975a.549.549 0 0 0-.44 0c-2.425 1.82-1.137 9.021.25 13.13a.668.668 0 0 1-.633.881z"/>
    <g data-name="그룹 28169">
        <path data-name="패스 15014" d="M369.517 12.29c-7.172 5.9-11.173 18.217-12.3 23.792 0-15.206 2.579-21.948 4.36-24.067a.643.643 0 0 0-.168-1.015 121.9 121.9 0 0 0-13.356-3.125.519.519 0 0 1-.4-.676 23.639 23.639 0 0 1 3.372-6.244.523.523 0 0 1 .729-.093c3.833 2.821 12.882 7.91 17.689 10.515a.553.553 0 0 1 .074.913z" transform="translate(-254.91 .049)" style="fill:#ff754b"/>
        <path data-name="패스 15015" d="m355.808 34.034-1.587-.158c0-17.156 3.237-22.9 4.425-24.431a126.528 126.528 0 0 0-12.94-2.989 1.327 1.327 0 0 1-.9-.635 1.313 1.313 0 0 1-.109-1.087 24.393 24.393 0 0 1 3.494-6.472 1.316 1.316 0 0 1 1.84-.252c3.493 2.571 11.662 7.239 17.6 10.456a1.338 1.338 0 0 1 .694 1.051 1.364 1.364 0 0 1-.493 1.186c-6.942 5.705-10.9 17.756-12.024 23.331zm-9.486-29.093a117.473 117.473 0 0 1 13.16 3.1 1.3 1.3 0 0 1 .822.905 1.549 1.549 0 0 1-.308 1.38c-.6.716-3.275 4.566-3.994 17 2.02-5.966 5.509-13.334 10.532-17.625-2.289-1.246-12.7-6.958-17.238-10.238a23.154 23.154 0 0 0-2.974 5.478zm20.488 4.523z" transform="translate(-252.711 2.256)" style="fill:#040000"/>
    </g>
    <path data-name="패스 15016" d="M84.862 45.095a2.026 2.026 0 0 1-1.7-3.121l.2-.3a1.929 1.929 0 0 1 .765-.685 17.8 17.8 0 0 1 2.073-.841.668.668 0 0 1 .431 1.264 16.476 16.476 0 0 0-1.916.776.6.6 0 0 0-.233.213l-.2.3a.672.672 0 0 0 0 .732.681.681 0 0 0 .672.321 162.523 162.523 0 0 1 16.949-1.426h.179a.645.645 0 0 0 .537-.262 8.774 8.774 0 0 0 1.5-3.042.077.077 0 0 0-.018-.078.443.443 0 0 0-.338-.111 88.68 88.68 0 0 0-1.151.055.668.668 0 0 1-.072-1.333c.41-.022.8-.041 1.169-.056a1.756 1.756 0 0 1 1.4.569 1.4 1.4 0 0 1 .325 1.193 10.244 10.244 0 0 1-1.718 3.567 1.979 1.979 0 0 1-1.633.835h-.175a164.286 164.286 0 0 0-16.784 1.415 2.092 2.092 0 0 1-.262.015z"/>
    <path data-name="패스 15017" d="M83.723 42.809c3.633-1.923 16.607-2.716 20.168-2.805a4.719 4.719 0 0 1-1.335 2.538c-4.007-.134-15.895 1.6-18.566 1.6z"/>
    <path data-name="패스 15018" d="M86.817 42.545a.668.668 0 0 1-.645-.5c-3.323-12.671-1.624-27.408-.1-34.118a1.183 1.183 0 0 1 1.139-.921c6.011-.1 14.294 1.836 19.557 3.513a1.2 1.2 0 0 1 .789.811 1.255 1.255 0 0 1-.237 1.155c-4.889 5.914-4.72 20.627-3.948 27.581a.668.668 0 1 1-1.327.147c-.848-7.632-.917-22.167 4.159-28.472-5.056-1.6-12.818-3.4-18.576-3.4h-.28c-1.494 6.645-3.126 21.018.112 33.366a.669.669 0 0 1-.646.837z"/>
</svg>
