<svg xmlns="http://www.w3.org/2000/svg" width="285.066" height="219.312" viewBox="0 0 285.066 219.312">
    <path data-name="패스 15248" d="M81.021 177.334a2.41 2.41 0 0 1-2.382-2.135l-1.591-14.586a.217.217 0 0 0-.174-.19l-12.3-2.406a.219.219 0 0 0-.217.084l-7.839 10.713a2.4 2.4 0 0 1-1.666.965 2.4 2.4 0 0 1-1.838-.574l-17.022-14.82a2.407 2.407 0 0 1-.438-3.105l9.065-14.009a.221.221 0 0 0 .012-.217l-7.251-14.5a.217.217 0 0 0-.195-.121h-12.25a2.4 2.4 0 0 1-2.393-2.393v-17.779a2.392 2.392 0 0 1 1.965-2.355l15.053-2.737a.216.216 0 0 0 .16-.126l4.868-11.088a.216.216 0 0 0-.044-.239L33.023 73.927a2.4 2.4 0 0 1-.677-1.815 2.4 2.4 0 0 1 .888-1.722l19.849-15.989a2.372 2.372 0 0 1 1.779-.514 2.377 2.377 0 0 1 1.614.91l12.137 15.644a.217.217 0 0 0 .305.039l7.842-6.071a.219.219 0 0 0 .082-.2l-2.43-17.011a2.391 2.391 0 0 1 .561-1.906 2.391 2.391 0 0 1 1.808-.826h20.72a2.4 2.4 0 0 1 2.393 2.393v13.982a.219.219 0 0 0 .142.2l14.929 5.529a.217.217 0 0 0 .217-.04l11.535-9.925a2.368 2.368 0 0 1 1.78-.569 2.374 2.374 0 0 1 1.646.883l10.9 13.56a2.387 2.387 0 0 1-.287 3.3l-10.9 9.575a.217.217 0 0 0-.059.242l5.032 12.989a.218.218 0 0 0 .267.129l14.167-4.379a2.392 2.392 0 0 1 2 .272 2.39 2.39 0 0 1 1.081 1.7l2.712 20.611a2.392 2.392 0 0 1-1.641 2.591l-14.485 4.646a.216.216 0 0 0-.144.15l-3.328 12.2a.218.218 0 0 0 .027.174l7.88 12.227a2.4 2.4 0 0 1-.6 3.231l-16.258 11.848a2.383 2.383 0 0 1-2.838-.013l-10.439-7.763a.215.215 0 0 0-.243-.01l-9.464 5.783a.218.218 0 0 0-.1.23l2.568 12.324a2.4 2.4 0 0 1-.425 1.92 2.4 2.4 0 0 1-1.718.953l-22.626 1.909a1.068 1.068 0 0 1-.201.016zm-16.487-21.5a2.4 2.4 0 0 1 .457.044l12.3 2.406a2.381 2.381 0 0 1 1.92 2.089l1.591 14.586a.219.219 0 0 0 .234.193l22.626-1.908a.212.212 0 0 0 .156-.087.212.212 0 0 0 .038-.175l-2.568-12.324a2.4 2.4 0 0 1 1.1-2.531l9.464-5.783a2.382 2.382 0 0 1 2.676.121l10.44 7.763a.219.219 0 0 0 .258 0l16.258-11.849a.217.217 0 0 0 .054-.293l-7.879-12.227a2.4 2.4 0 0 1-.3-1.927l3.328-12.2a2.386 2.386 0 0 1 1.579-1.649l14.484-4.645a.217.217 0 0 0 .149-.235l-2.712-20.611a.212.212 0 0 0-.1-.155.213.213 0 0 0-.182-.024l-14.167 4.379a2.4 2.4 0 0 1-2.938-1.421l-5.036-12.989a2.4 2.4 0 0 1 .652-2.664l10.9-9.575a.217.217 0 0 0 .026-.3l-10.895-13.558a.214.214 0 0 0-.15-.08.209.209 0 0 0-.162.052L116.6 68.182a2.39 2.39 0 0 1-2.392.43l-14.929-5.529a2.4 2.4 0 0 1-1.562-2.244V46.858a.218.218 0 0 0-.218-.218h-20.72a.213.213 0 0 0-.165.075.212.212 0 0 0-.051.173l2.43 17.01a2.4 2.4 0 0 1-.9 2.231l-7.843 6.072a2.4 2.4 0 0 1-3.356-.426L54.757 56.132a.211.211 0 0 0-.147-.083.211.211 0 0 0-.162.047l-19.85 15.989a.211.211 0 0 0-.08.157.212.212 0 0 0 .061.165l11.52 11.788a2.38 2.38 0 0 1 .48 2.635l-4.867 11.087a2.39 2.39 0 0 1-1.762 1.393l-15.054 2.737a.217.217 0 0 0-.178.214v17.775a.218.218 0 0 0 .218.218h12.25a2.381 2.381 0 0 1 2.141 1.323l7.251 14.5a2.406 2.406 0 0 1-.131 2.37l-9.065 14.009a.22.22 0 0 0 .04.283l17.021 14.825a.215.215 0 0 0 .167.052.215.215 0 0 0 .151-.088l7.839-10.713a2.4 2.4 0 0 1 1.935-.977z"/>
    <path data-name="패스 15249" d="M79.179 178.558a2.379 2.379 0 0 1-2.373-2.134l-1.591-14.587a.218.218 0 0 0-.175-.191l-12.3-2.406a.223.223 0 0 0-.218.085l-7.839 10.713a2.4 2.4 0 0 1-1.665.964 2.39 2.39 0 0 1-1.838-.573l-17.021-14.827a2.4 2.4 0 0 1-.437-3.1l9.065-14.009a.218.218 0 0 0 .012-.215l-7.251-14.5a.216.216 0 0 0-.195-.121H23.102a2.4 2.4 0 0 1-2.393-2.393v-17.78a2.394 2.394 0 0 1 1.965-2.355l15.054-2.737a.216.216 0 0 0 .16-.127l4.867-11.087a.218.218 0 0 0-.044-.24L31.191 75.15a2.4 2.4 0 0 1-.678-1.815 2.4 2.4 0 0 1 .888-1.722l19.848-15.989a2.375 2.375 0 0 1 1.78-.514 2.375 2.375 0 0 1 1.613.91l12.137 15.644a.218.218 0 0 0 .3.038l7.937-6.144a.217.217 0 0 0 .084-.172V47.081a1.088 1.088 0 0 1 1.088-1.088 1.088 1.088 0 0 1 1.088 1.088v18.307a2.41 2.41 0 0 1-.928 1.893l-7.937 6.144A2.4 2.4 0 0 1 65.055 73L52.918 57.356a.212.212 0 0 0-.147-.083.221.221 0 0 0-.162.047L32.761 73.309a.212.212 0 0 0-.081.157.213.213 0 0 0 .062.165l11.52 11.788a2.383 2.383 0 0 1 .479 2.635l-4.867 11.087a2.389 2.389 0 0 1-1.764 1.393l-15.053 2.736a.219.219 0 0 0-.179.215v17.774a.218.218 0 0 0 .218.218h12.251a2.38 2.38 0 0 1 2.141 1.323l7.251 14.5a2.4 2.4 0 0 1-.131 2.37l-9.065 14.01a.218.218 0 0 0 .04.282l17.022 14.826a.213.213 0 0 0 .168.052.211.211 0 0 0 .151-.087l7.839-10.713a2.4 2.4 0 0 1 2.391-.936l12.3 2.407a2.384 2.384 0 0 1 1.919 2.089l1.591 14.586a.22.22 0 0 0 .235.194l22.626-1.908a.214.214 0 0 0 .156-.087.215.215 0 0 0 .039-.175l-2.568-12.324a2.4 2.4 0 0 1 1.1-2.531l9.464-5.784a2.383 2.383 0 0 1 2.676.121l10.433 7.758a.215.215 0 0 0 .259 0l18.169-13.479a1.088 1.088 0 0 1 1.522.225 1.088 1.088 0 0 1-.225 1.522l-18.168 13.484a2.379 2.379 0 0 1-2.855 0l-10.432-7.757a.22.22 0 0 0-.244-.011l-9.463 5.783a.22.22 0 0 0-.1.232l2.568 12.324a2.4 2.4 0 0 1-.424 1.919 2.393 2.393 0 0 1-1.718.954l-22.626 1.908c-.071.001-.14.004-.209.004z"/>
    <path data-name="패스 15250" d="M89.027 133.566a22.64 22.64 0 0 1-22.614-22.614 22.64 22.64 0 0 1 22.614-22.615 22.64 22.64 0 0 1 22.614 22.615 22.639 22.639 0 0 1-22.614 22.614zm0-43.053a20.462 20.462 0 0 0-20.441 20.439 20.461 20.461 0 0 0 20.438 20.438 20.461 20.461 0 0 0 20.438-20.438 20.462 20.462 0 0 0-20.435-20.439z"/>
    <path data-name="패스 15251" d="M91.777 132.821a1.089 1.089 0 0 1-1.054-.824 1.088 1.088 0 0 1 .792-1.32c9.243-2.31 14.761-9.684 14.761-19.725 0-9.938-6.344-20-18.47-20a1.088 1.088 0 0 1-1.088-1.088 1.088 1.088 0 0 1 1.088-1.088c13.554 0 20.646 11.155 20.646 22.174 0 11.1-6.135 19.268-16.409 21.836a1.091 1.091 0 0 1-.266.035z"/>
    <path data-name="패스 15252" d="M225.935 62.666a15.3 15.3 0 0 1-15.28-15.28 15.3 15.3 0 0 1 15.28-15.28 15.3 15.3 0 0 1 15.28 15.28 15.3 15.3 0 0 1-15.28 15.28zm0-28.384a13.119 13.119 0 0 0-13.1 13.1 13.119 13.119 0 0 0 13.1 13.1 13.119 13.119 0 0 0 13.1-13.1 13.119 13.119 0 0 0-13.1-13.099z"/>
    <path data-name="패스 15253" d="M227.161 62.226a1.089 1.089 0 0 1-1-.654 1.088 1.088 0 0 1 .564-1.431c7.427-3.229 10.332-6.794 10.348-12.707-.569-6.371-3.838-10.432-10.286-12.777a1.088 1.088 0 0 1-.651-1.394 1.089 1.089 0 0 1 1.394-.651c7.252 2.638 11.084 7.439 11.714 14.68v.094c0 8.509-5.6 12.118-11.656 14.749a1.075 1.075 0 0 1-.427.091z"/>
    <path data-name="패스 15254" d="M208.516 191.629a13.156 13.156 0 0 1-13.141-13.143 13.156 13.156 0 0 1 13.141-13.141 13.156 13.156 0 0 1 13.141 13.141 13.156 13.156 0 0 1-13.141 13.143zm0-24.106a10.977 10.977 0 0 0-10.965 10.963 10.978 10.978 0 0 0 10.965 10.965 10.978 10.978 0 0 0 10.965-10.965 10.977 10.977 0 0 0-10.965-10.963z"/>
    <path data-name="패스 15255" d="M208.822 191.189a1.088 1.088 0 0 1-1.049-.8 1.088 1.088 0 0 1 .763-1.336c7.235-1.973 9.211-6.565 9.594-10.07.809-7.4-5.546-10.112-7.514-10.767a1.087 1.087 0 0 1-.688-1.376 1.091 1.091 0 0 1 1.376-.688c4.86 1.62 9.773 5.9 8.988 13.068-.646 5.9-4.618 10.142-11.184 11.933a1.091 1.091 0 0 1-.286.036z"/>
    <path data-name="패스 15256" d="M228.296 94.925h-17.558a2.4 2.4 0 0 1-2.393-2.393v-9.195a.217.217 0 0 0-.12-.195l-6.552-3.276a.217.217 0 0 0-.217.013l-9.129 6a2.38 2.38 0 0 1-3.1-.4l-9.146-10.191a2.379 2.379 0 0 1 .036-3.236l7.754-8.271a.216.216 0 0 0 .04-.238l-3.326-7.419a.217.217 0 0 0-.166-.127l-8.083-1.225a2.379 2.379 0 0 1-1.572-.952 2.38 2.38 0 0 1-.434-1.786l2.068-13.186a2.382 2.382 0 0 1 2.365-2.023h8.264a.216.216 0 0 0 .182-.1l6.069-9.235a.216.216 0 0 0-.026-.271l-6.624-6.87a2.4 2.4 0 0 1 .054-3.377l9.3-9.041a2.4 2.4 0 0 1 3.03-.252l10.528 7.288a.217.217 0 0 0 .184.03l7.016-2a.219.219 0 0 0 .158-.209V4.225a2.4 2.4 0 0 1 2.091-2.374L233.38.02a2.4 2.4 0 0 1 2.668 2.045l1.271 9.153a.219.219 0 0 0 .092.149l8.471 5.824a.218.218 0 0 0 .266-.015l7.656-6.669a2.4 2.4 0 0 1 1.819-.576 2.4 2.4 0 0 1 1.662.936l6.986 9.232a2.407 2.407 0 0 1-.315 3.23l-6.9 6.159a.218.218 0 0 0-.047.264l5.246 9.966a.209.209 0 0 0 .2.116l8.543-.488a2.389 2.389 0 0 1 1.737.61 2.377 2.377 0 0 1 .791 1.662l.793 16.127a2.408 2.408 0 0 1-2.074 2.49l-11.921 1.59a.217.217 0 0 0-.161.108l-4.138 7.242a.219.219 0 0 0 .017.241l5.788 7.549a2.39 2.39 0 0 1-.248 3.189L250.4 90.816a2.386 2.386 0 0 1-1.9.648 2.389 2.389 0 0 1-1.725-1.027l-5.892-8.592a.219.219 0 0 0-.255-.081l-9.8 3.612a.218.218 0 0 0-.142.2v6.952a2.4 2.4 0 0 1-2.39 2.397zm-26.719-17.256a2.39 2.39 0 0 1 1.07.252l6.551 3.276a2.38 2.38 0 0 1 1.323 2.141v9.195a.218.218 0 0 0 .218.218h17.559a.218.218 0 0 0 .218-.218V85.58a2.4 2.4 0 0 1 1.567-2.246l9.8-3.612a2.391 2.391 0 0 1 2.8.892l5.893 8.593a.211.211 0 0 0 .157.094.213.213 0 0 0 .173-.059l11.182-10.662a.217.217 0 0 0 .023-.29l-5.788-7.549a2.389 2.389 0 0 1-.175-2.643l4.139-7.243a2.4 2.4 0 0 1 1.762-1.185l11.921-1.59a.219.219 0 0 0 .188-.227l-.793-16.127a.212.212 0 0 0-.072-.151.2.2 0 0 0-.158-.055l-8.543.488a2.4 2.4 0 0 1-2.255-1.275l-5.246-9.966a2.392 2.392 0 0 1 .524-2.9l6.9-6.159a.219.219 0 0 0 .028-.294l-6.986-9.231a.212.212 0 0 0-.151-.086.221.221 0 0 0-.165.053l-7.656 6.668a2.393 2.393 0 0 1-2.928.167l-8.471-5.823a2.4 2.4 0 0 1-1.015-1.644L233.9 2.365a.216.216 0 0 0-.243-.186l-14.389 1.83a.218.218 0 0 0-.191.216v8.562a2.4 2.4 0 0 1-1.735 2.3l-7.017 2a2.387 2.387 0 0 1-2.02-.333l-10.527-7.283a.217.217 0 0 0-.275.023l-9.3 9.041a.218.218 0 0 0-.005.307l6.625 6.87a2.382 2.382 0 0 1 .277 2.976l-6.068 9.235a2.388 2.388 0 0 1-2 1.079h-8.264a.216.216 0 0 0-.215.184l-2.068 13.186a.213.213 0 0 0 .039.162.215.215 0 0 0 .143.087l8.083 1.225a2.386 2.386 0 0 1 1.826 1.387l3.326 7.419a2.385 2.385 0 0 1-.439 2.616l-7.754 8.271a.218.218 0 0 0 0 .293l9.146 10.192a.215.215 0 0 0 .282.037l9.129-6a2.4 2.4 0 0 1 1.311-.392z"/>
    <path data-name="패스 15257" d="M180.706 74.756a1.082 1.082 0 0 1-.671-.232 1.088 1.088 0 0 1-.184-1.527l6.236-7.936a.218.218 0 0 0 .027-.224l-3.358-7.493a.218.218 0 0 0-.166-.126l-8.082-1.225a2.379 2.379 0 0 1-1.572-.951 2.379 2.379 0 0 1-.435-1.786l2.068-13.186a2.382 2.382 0 0 1 2.365-2.023h8.264a.216.216 0 0 0 .181-.1l6.069-9.236a.216.216 0 0 0-.025-.27l-6.625-6.87a2.4 2.4 0 0 1 .055-3.378l9.3-9.041a2.4 2.4 0 0 1 3.031-.252l10.528 7.288a.219.219 0 0 0 .184.03l7.016-2a.219.219 0 0 0 .158-.209V5.447a2.4 2.4 0 0 1 2.091-2.374l14.387-1.831a2.4 2.4 0 0 1 2.673 2.045l1.271 9.153a.219.219 0 0 0 .092.149l8.469 5.823a.216.216 0 0 0 .266-.015l7.656-6.668a2.4 2.4 0 0 1 1.817-.576 2.4 2.4 0 0 1 1.663.936l7.713 10.192a1.088 1.088 0 0 1-.211 1.524 1.088 1.088 0 0 1-1.524-.211l-7.713-10.192a.213.213 0 0 0-.151-.085.217.217 0 0 0-.165.052l-7.656 6.669a2.393 2.393 0 0 1-2.928.168l-8.471-5.824a2.4 2.4 0 0 1-1.014-1.643l-1.271-9.153a.217.217 0 0 0-.243-.186l-14.386 1.831a.218.218 0 0 0-.19.216v8.565a2.4 2.4 0 0 1-1.736 2.3l-7.016 2a2.387 2.387 0 0 1-2.02-.334l-10.527-7.288a.218.218 0 0 0-.275.023l-9.3 9.041a.218.218 0 0 0 0 .307l6.624 6.87a2.38 2.38 0 0 1 .277 2.976l-6.069 9.235a2.386 2.386 0 0 1-2 1.079h-8.264a.216.216 0 0 0-.215.184l-2.068 13.186a.214.214 0 0 0 .04.163.212.212 0 0 0 .143.086l8.083 1.225a2.387 2.387 0 0 1 1.826 1.386l3.358 7.494a2.387 2.387 0 0 1-.3 2.458l-6.236 7.936a1.086 1.086 0 0 1-.864.417z"/>
    <path data-name="패스 15258" d="M200.701 219.312a2.355 2.355 0 0 1-.688-.1l-11.54-3.513a2.4 2.4 0 0 1-1.461-1.252 2.4 2.4 0 0 1-.065-1.926l3.338-8.344a.216.216 0 0 0-.091-.267l-7.522-4.514a.218.218 0 0 0-.229 0l-4.821 3.068a2.4 2.4 0 0 1-1.923.287 2.4 2.4 0 0 1-1.5-1.236l-4.9-9.805a2.385 2.385 0 0 1 .99-3.169l7.693-4.219a.217.217 0 0 0 .113-.191v-8.582a.217.217 0 0 0-.1-.185l-6.344-3.9a2.4 2.4 0 0 1-.924-3.028l3.621-7.967a2.389 2.389 0 0 1 2.936-1.28l7.071 2.357a.216.216 0 0 0 .254-.092l3.926-6.38a.215.215 0 0 0 0-.227l-3.8-6.182a2.382 2.382 0 0 1 .723-3.255l9.342-6.146a2.4 2.4 0 0 1 1.923-.315 2.4 2.4 0 0 1 1.52 1.217l3.86 7.478a.215.215 0 0 0 .193.117h10.478a.216.216 0 0 0 .207-.15l2.337-7.244a2.4 2.4 0 0 1 1.256-1.43 2.4 2.4 0 0 1 1.9-.062l10.707 4.233a2.4 2.4 0 0 1 1.4 2.963l-2.7 8.344a.219.219 0 0 0 .076.241l4.9 3.73a.219.219 0 0 0 .263 0l6.54-4.9a2.385 2.385 0 0 1 1.962-.42 2.39 2.39 0 0 1 1.593 1.222l5.14 9.791a2.4 2.4 0 0 1-.856 3.146l-7.214 4.477a.22.22 0 0 0-.1.185v8.169a.215.215 0 0 0 .137.2l5.817 2.327a2.4 2.4 0 0 1 1.46 2.679l-1.728 8.885a2.4 2.4 0 0 1-2.349 1.937h-9.884a.218.218 0 0 0-.174.087l-3.655 4.873a.216.216 0 0 0-.01.245l4.891 7.827a2.4 2.4 0 0 1 .281 1.893 2.4 2.4 0 0 1-1.2 1.495l-9.856 5.174a2.382 2.382 0 0 1-3.2-.946l-4.5-8.009a.217.217 0 0 0-.189-.111h-9.345a.216.216 0 0 0-.2.138l-3.516 9.042a2.407 2.407 0 0 1-2.264 1.52zm-18.142-22.128a2.4 2.4 0 0 1 1.232.344l7.522 4.514a2.384 2.384 0 0 1 .991 2.941l-3.338 8.344a.215.215 0 0 0 .006.176.211.211 0 0 0 .132.113l11.54 3.513a.219.219 0 0 0 .266-.13l3.516-9.042a2.377 2.377 0 0 1 2.231-1.525h9.345a2.4 2.4 0 0 1 2.086 1.22l4.5 8.008a.218.218 0 0 0 .291.086l9.854-5.174a.213.213 0 0 0 .109-.136.211.211 0 0 0-.026-.172l-4.891-7.827a2.409 2.409 0 0 1 .114-2.7l3.655-4.874a2.406 2.406 0 0 1 1.915-.957h9.884a.218.218 0 0 0 .214-.176l1.728-8.885a.217.217 0 0 0-.133-.243l-5.816-2.327a2.382 2.382 0 0 1-1.5-2.222v-8.169a2.38 2.38 0 0 1 1.131-2.034l7.213-4.477a.22.22 0 0 0 .078-.287l-5.14-9.79a.21.21 0 0 0-.145-.111.21.21 0 0 0-.178.038l-6.541 4.906a2.4 2.4 0 0 1-2.887-.011l-4.9-3.731a2.4 2.4 0 0 1-.827-2.641l2.7-8.344a.218.218 0 0 0-.127-.269l-10.706-4.233a.209.209 0 0 0-.173.006.214.214 0 0 0-.114.13l-2.337 7.243a2.386 2.386 0 0 1-2.278 1.658h-10.472a2.381 2.381 0 0 1-2.127-1.3l-3.86-7.477a.211.211 0 0 0-.138-.11.215.215 0 0 0-.176.029l-9.342 6.146a.216.216 0 0 0-.066.3l3.8 6.183a2.381 2.381 0 0 1 0 2.508l-3.926 6.38a2.384 2.384 0 0 1-2.795 1.016l-7.072-2.357a.217.217 0 0 0-.267.117l-3.621 7.966a.217.217 0 0 0 .083.275l6.344 3.9a2.408 2.408 0 0 1 1.139 2.038v8.582a2.392 2.392 0 0 1-1.243 2.1l-7.693 4.219a.217.217 0 0 0-.09.288l4.9 9.8a.214.214 0 0 0 .137.113.214.214 0 0 0 .174-.026l4.822-3.068a2.389 2.389 0 0 1 1.293-.375z"/>
    <path data-name="패스 15259" d="M221.636 217.337a2.38 2.38 0 0 1-2.08-1.228l-4.356-7.771a.219.219 0 0 0-.19-.111h-9.019a.218.218 0 0 0-.2.145l-2.665 7.487a1.089 1.089 0 0 1-1.39.66 1.088 1.088 0 0 1-.661-1.389l2.665-7.487a2.4 2.4 0 0 1 2.255-1.591h9.019a2.4 2.4 0 0 1 2.088 1.223l4.356 7.771a.217.217 0 0 0 .291.087l9.527-5.019a.212.212 0 0 0 .108-.136.212.212 0 0 0-.025-.171l-4.733-7.6a2.379 2.379 0 0 1 .115-2.7l3.534-4.729a2.4 2.4 0 0 1 1.917-.96h9.568a.219.219 0 0 0 .214-.176l1.671-8.626a.218.218 0 0 0-.132-.244l-5.614-2.253a2.383 2.383 0 0 1-1.5-2.221v-7.941a2.379 2.379 0 0 1 1.128-2.031l6.98-4.348a.218.218 0 0 0 .078-.286l-4.97-9.5a.214.214 0 0 0-.145-.111.213.213 0 0 0-.179.039l-6.305 4.745a2.4 2.4 0 0 1-2.893-.011l-4.725-3.612a2.4 2.4 0 0 1-.824-2.635l2.625-8.141a.216.216 0 0 0-.12-.266l-9.916-4.3a1.088 1.088 0 0 1-.565-1.431 1.088 1.088 0 0 1 1.431-.565l9.915 4.3a2.383 2.383 0 0 1 1.325 2.93l-2.625 8.14a.217.217 0 0 0 .075.239l4.725 3.612a.216.216 0 0 0 .263 0l6.305-4.745a2.387 2.387 0 0 1 1.966-.423 2.39 2.39 0 0 1 1.594 1.225l4.97 9.5a2.4 2.4 0 0 1-.856 3.142l-6.979 4.347a.22.22 0 0 0-.1.185v7.941a.218.218 0 0 0 .137.2l5.614 2.252a2.4 2.4 0 0 1 1.458 2.678l-1.671 8.626a2.4 2.4 0 0 1-2.35 1.938h-9.579a.219.219 0 0 0-.174.087l-3.534 4.729a.221.221 0 0 0-.01.246l4.733 7.6a2.4 2.4 0 0 1 .279 1.89 2.4 2.4 0 0 1-1.195 1.493l-9.527 5.018a2.4 2.4 0 0 1-1.122.283z"/>
    <path data-name="패스 15260" d="M-886.169 233.011h-.06c-2.611 0-5.25-.087-7.841-.259a1.087 1.087 0 0 1-1.014-1.157 1.084 1.084 0 0 1 1.158-1.014c2.544.168 5.134.254 7.7.254h.06a1.088 1.088 0 0 1 1.088 1.088 1.088 1.088 0 0 1-1.091 1.088zm7.827-.265a1.088 1.088 0 0 1-1.084-1.015 1.088 1.088 0 0 1 1.012-1.158c2.6-.175 5.192-.439 7.718-.784a1.089 1.089 0 0 1 1.225.93 1.087 1.087 0 0 1-.93 1.225c-2.575.352-5.222.621-7.867.8zm-23.449-.776a1.129 1.129 0 0 1-.148-.01 111.754 111.754 0 0 1-7.792-1.338 1.088 1.088 0 0 1-.842-1.288 1.088 1.088 0 0 1 1.288-.842c2.5.522 5.066.963 7.639 1.311a1.089 1.089 0 0 1 .932 1.225 1.088 1.088 0 0 1-1.078.943zm38.958-1.36a1.089 1.089 0 0 1-1.063-.861 1.088 1.088 0 0 1 .837-1.291c2.59-.554 5.111-1.2 7.494-1.93a1.091 1.091 0 0 1 1.358.723 1.088 1.088 0 0 1-.723 1.358 93.362 93.362 0 0 1-7.674 1.977 1.115 1.115 0 0 1-.23.025zm-54.272-1.853a1.091 1.091 0 0 1-.3-.043 99.804 99.804 0 0 1-7.51-2.5 1.089 1.089 0 0 1-.631-1.4 1.089 1.089 0 0 1 1.4-.631 96.89 96.89 0 0 0 7.343 2.447 1.088 1.088 0 0 1 .742 1.347 1.088 1.088 0 0 1-1.045.781zm69.22-2.769a1.089 1.089 0 0 1-1-.66 1.088 1.088 0 0 1 .572-1.428 48.921 48.921 0 0 0 6.8-3.517 1.088 1.088 0 0 1 1.5.34 1.088 1.088 0 0 1-.34 1.5 51.078 51.078 0 0 1-7.1 3.676 1.089 1.089 0 0 1-.433.09zm-83.841-2.789a1.083 1.083 0 0 1-.471-.108 86.056 86.056 0 0 1-6.977-3.757 1.088 1.088 0 0 1-.373-1.493 1.087 1.087 0 0 1 1.493-.373 84.596 84.596 0 0 0 6.8 3.662 1.088 1.088 0 0 1 .508 1.452 1.088 1.088 0 0 1-.981.618zm-13.4-8.054a1.082 1.082 0 0 1-.646-.213 79.656 79.656 0 0 1-6.137-5.032 1.088 1.088 0 0 1-.074-1.537 1.087 1.087 0 0 1 1.537-.074 77.634 77.634 0 0 0 5.968 4.894 1.088 1.088 0 0 1 .227 1.521 1.086 1.086 0 0 1-.878.442zm-11.574-10.512a1.087 1.087 0 0 1-.81-.361 78.506 78.506 0 0 1-4.99-6.172 1.088 1.088 0 0 1 .238-1.52 1.088 1.088 0 0 1 1.52.238 76.137 76.137 0 0 0 4.853 6 1.088 1.088 0 0 1-.084 1.536 1.082 1.082 0 0 1-.727.279zM-965.907 192a1.087 1.087 0 0 1-.939-.537 84.948 84.948 0 0 1-3.686-7.018 1.088 1.088 0 0 1 .525-1.446 1.089 1.089 0 0 1 1.446.525 83.345 83.345 0 0 0 3.591 6.837 1.088 1.088 0 0 1-.387 1.489 1.082 1.082 0 0 1-.55.15zm-6.635-14.158a1.088 1.088 0 0 1-1.021-.714 124.29 124.29 0 0 1-2.484-7.5 1.087 1.087 0 0 1 .735-1.351 1.086 1.086 0 0 1 1.352.735 121.095 121.095 0 0 0 2.44 7.368 1.088 1.088 0 0 1-.647 1.4 1.1 1.1 0 0 1-.376.067zm-4.419-15.017a1.089 1.089 0 0 1-1.061-.854c-.573-2.6-1.047-5.219-1.411-7.787a1.088 1.088 0 0 1 .924-1.23 1.088 1.088 0 0 1 1.23.925c.356 2.513.821 5.078 1.382 7.623a1.088 1.088 0 0 1-.828 1.3 1.089 1.089 0 0 1-.237.028zm217.637-12.725c-2.039 0-4.1-.079-6.118-.235a1.087 1.087 0 0 1-1-1.168 1.08 1.08 0 0 1 1.168-1c2.549.2 5.146.265 7.719.209a1.073 1.073 0 0 1 1.112 1.063 1.088 1.088 0 0 1-1.063 1.112q-.909.019-1.818.019zm9.6-.589a1.088 1.088 0 0 1-1.078-.954 1.089 1.089 0 0 1 .946-1.214 74.612 74.612 0 0 0 7.6-1.339 1.087 1.087 0 0 1 1.3.815 1.088 1.088 0 0 1-.816 1.305 76.866 76.866 0 0 1-7.824 1.378 1.092 1.092 0 0 1-.126.006zm-23.4-.646a1.085 1.085 0 0 1-.2-.018 71.568 71.568 0 0 1-7.729-1.856 1.087 1.087 0 0 1-.729-1.355 1.09 1.09 0 0 1 1.355-.729 69.579 69.579 0 0 0 7.493 1.8 1.088 1.088 0 0 1 .875 1.265 1.089 1.089 0 0 1-1.063.889zm-206.019-1.529a1.088 1.088 0 0 1-1.085-1.024 91.288 91.288 0 0 1-.125-7.918 1.091 1.091 0 0 1 1.118-1.057 1.088 1.088 0 0 1 1.057 1.118 89.506 89.506 0 0 0 .123 7.733 1.089 1.089 0 0 1-1.022 1.151zm244.656-1.363a1.089 1.089 0 0 1-1.026-.727 1.087 1.087 0 0 1 .664-1.387 62.364 62.364 0 0 0 7.089-3 1.089 1.089 0 0 1 1.459.488 1.088 1.088 0 0 1-.487 1.459 64.476 64.476 0 0 1-7.337 3.1 1.074 1.074 0 0 1-.36.064zm-53.6-1.642a1.087 1.087 0 0 1-.439-.094 56.3 56.3 0 0 1-7.057-3.729 1.088 1.088 0 0 1-.345-1.5 1.089 1.089 0 0 1 1.5-.346 54.124 54.124 0 0 0 6.783 3.583 1.088 1.088 0 0 1 .555 1.435 1.089 1.089 0 0 1-.991.648zm67.558-5.374a1.087 1.087 0 0 1-.9-.471 1.088 1.088 0 0 1 .279-1.513 48.337 48.337 0 0 0 5.945-4.816 1.087 1.087 0 0 1 1.538.036 1.088 1.088 0 0 1-.036 1.538 50.564 50.564 0 0 1-6.213 5.035 1.087 1.087 0 0 1-.607.188zm-80.75-2.957a1.085 1.085 0 0 1-.72-.273 42.71 42.71 0 0 1-5.494-5.847 1.088 1.088 0 0 1 .2-1.527 1.089 1.089 0 0 1 1.527.2 40.457 40.457 0 0 0 5.214 5.548 1.088 1.088 0 0 1 .094 1.535 1.086 1.086 0 0 1-.821.364zm-177.416-4.3a1.084 1.084 0 0 1-.129-.007 1.088 1.088 0 0 1-.952-1.209 85.136 85.136 0 0 1 1.3-7.816 1.088 1.088 0 0 1 1.292-.836 1.088 1.088 0 0 1 .836 1.292 83.645 83.645 0 0 0-1.265 7.617 1.088 1.088 0 0 1-1.082.959zm269.416-3.546a1.081 1.081 0 0 1-.642-.211 1.088 1.088 0 0 1-.235-1.52q.177-.242.35-.486a1.088 1.088 0 0 1 1.517-.257 1.088 1.088 0 0 1 .257 1.517q-.183.257-.369.511a1.086 1.086 0 0 1-.878.45zm-101.479-4.487a1.087 1.087 0 0 1-.979-.612 38.812 38.812 0 0 1-1.808-4.388c-.346-1.013-.7-2.026-1.063-3.009a1.088 1.088 0 0 1 .648-1.4 1.087 1.087 0 0 1 1.4.648c.365 1 .728 2.025 1.079 3.052a36.512 36.512 0 0 0 1.706 4.141 1.088 1.088 0 0 1-.5 1.454 1.083 1.083 0 0 1-.483.118zm-164.664-7.249a1.093 1.093 0 0 1-.326-.05 1.088 1.088 0 0 1-.712-1.364 86 86 0 0 1 2.722-7.444 1.087 1.087 0 0 1 1.423-.584 1.088 1.088 0 0 1 .584 1.424 83.846 83.846 0 0 0-2.652 7.256 1.089 1.089 0 0 1-1.038.766zm158.954-7.321a1.088 1.088 0 0 1-1-.659 126.441 126.441 0 0 0-3.272-7.033 1.088 1.088 0 0 1 .482-1.461 1.089 1.089 0 0 1 1.461.482c1.156 2.293 2.276 4.7 3.329 7.155a1.088 1.088 0 0 1-.571 1.429 1.081 1.081 0 0 1-.428.09zM-969.39 102a1.084 1.084 0 0 1-.508-.126 1.088 1.088 0 0 1-.453-1.47 93.607 93.607 0 0 1 4-6.837 1.088 1.088 0 0 1 1.5-.324 1.087 1.087 0 0 1 .325 1.5 90.583 90.583 0 0 0-3.91 6.674 1.088 1.088 0 0 1-.954.583zm145.865-6.85a1.088 1.088 0 0 1-.936-.533 103.23 103.23 0 0 0-4.2-6.5 1.087 1.087 0 0 1 .261-1.517 1.088 1.088 0 0 1 1.516.262 104.64 104.64 0 0 1 4.3 6.638 1.088 1.088 0 0 1-.379 1.491 1.084 1.084 0 0 1-.562.154zm-137.391-6.3a1.083 1.083 0 0 1-.663-.226 1.088 1.088 0 0 1-.2-1.526 99.68 99.68 0 0 1 5.078-6.077 1.088 1.088 0 0 1 1.537-.076 1.088 1.088 0 0 1 .076 1.537 97.692 97.692 0 0 0-4.967 5.944 1.086 1.086 0 0 1-.86.417zm128.369-6.464a1.086 1.086 0 0 1-.833-.388 82.585 82.585 0 0 0-5.236-5.674 1.088 1.088 0 0 1-.011-1.538 1.088 1.088 0 0 1 1.539-.011 85.915 85.915 0 0 1 5.374 5.823 1.088 1.088 0 0 1-.132 1.533 1.085 1.085 0 0 1-.701.248zm-117.868-5.156a1.085 1.085 0 0 1-.79-.34 1.088 1.088 0 0 1 .041-1.538c1.9-1.8 3.9-3.561 5.945-5.227a1.087 1.087 0 0 1 1.531.156 1.087 1.087 0 0 1-.156 1.531c-2 1.632-3.961 3.354-5.823 5.12a1.085 1.085 0 0 1-.748.298zm106.73-5.813a1.083 1.083 0 0 1-.683-.242 75.662 75.662 0 0 0-6.239-4.534 1.088 1.088 0 0 1-.318-1.505 1.088 1.088 0 0 1 1.505-.318 77.873 77.873 0 0 1 6.42 4.665 1.088 1.088 0 0 1 .162 1.53 1.086 1.086 0 0 1-.848.404zm-94.591-4.084a1.087 1.087 0 0 1-.893-.465 1.088 1.088 0 0 1 .269-1.515 103.787 103.787 0 0 1 6.661-4.284 1.088 1.088 0 0 1 1.49.384 1.088 1.088 0 0 1-.384 1.49c-2.2 1.3-4.393 2.709-6.521 4.195a1.083 1.083 0 0 1-.623.196zm81.494-4.444a1.083 1.083 0 0 1-.5-.12 78.565 78.565 0 0 0-7.034-3.181 1.088 1.088 0 0 1-.613-1.411 1.089 1.089 0 0 1 1.411-.613c2.472.974 4.9 2.074 7.23 3.269a1.088 1.088 0 0 1 .471 1.465 1.089 1.089 0 0 1-.966.591zm-68-3.5a1.088 1.088 0 0 1-.98-.615 1.087 1.087 0 0 1 .507-1.453 81.966 81.966 0 0 1 7.306-3.116 1.089 1.089 0 0 1 1.4.645 1.088 1.088 0 0 1-.645 1.4 80.293 80.293 0 0 0-7.112 3.033 1.083 1.083 0 0 1-.473.108zm53.453-2.249a1.078 1.078 0 0 1-.3-.043 92.24 92.24 0 0 0-7.519-1.831 1.087 1.087 0 0 1-.854-1.28 1.09 1.09 0 0 1 1.28-.854 94.1 94.1 0 0 1 7.7 1.875 1.088 1.088 0 0 1 .742 1.348 1.089 1.089 0 0 1-1.045.787zm-38.744-3.081a1.088 1.088 0 0 1-1.06-.848 1.088 1.088 0 0 1 .82-1.3 36.589 36.589 0 0 1 7.984-1 1.1 1.1 0 0 1 1.1 1.088 1.08 1.08 0 0 1-1.079 1.088 34.444 34.444 0 0 0-7.52.944 1.071 1.071 0 0 1-.241.03zm23.4-.011a1.083 1.083 0 0 1-.135-.008 126.63 126.63 0 0 0-7.736-.695 1.088 1.088 0 0 1-1.022-1.15 1.09 1.09 0 0 1 1.15-1.022c2.7.16 5.352.4 7.873.708a1.088 1.088 0 0 1 .947 1.212 1.088 1.088 0 0 1-1.072.956z" transform="translate(980.387 -28.758)" style="fill:#ff754b"/>
    <path data-name="패스 15261" d="M-350.8 182.79a2.176 2.176 0 0 1 3.091 2.156l-1.215 14.184a2.176 2.176 0 0 1-3.413 1.6l-11.676-8.144a2.176 2.176 0 0 1 .322-3.755z" transform="translate(632.768 -103.128)" style="fill:#ff805a"/>
</svg>
