<svg xmlns="http://www.w3.org/2000/svg" width="379.943" height="163" viewBox="0 0 379.943 163">
    <defs>
        <linearGradient id="w3arg37ula" x1=".5" x2=".5" y2="1" gradientUnits="objectBoundingBox">
            <stop offset="0" stop-color="#fd3f01" stop-opacity=".212"/>
            <stop offset="1" stop-color="#fd3f01" stop-opacity="0"/>
        </linearGradient>
    </defs>
    <g data-name="그룹 29729">
        <path data-name="선 34" transform="translate(1.77 .5)" style="stroke:#b3b3b3;fill:none" d="M0 0h375"/>
        <path data-name="패스 15459" d="M0 0h375" transform="translate(1.77 81.5)" style="stroke:#b3b3b3;fill:none"/>
        <path data-name="선 34" transform="translate(1.77 162.5)" style="stroke:#000;fill:none" d="M0 0h375"/>
    </g>
    <path data-name="패스 15460" d="M-10800.894 10675s31.332-21.734 54.453-20.346 44.355 35.417 78.7 23.719 52.253-.925 78.147 16.185 51.327 9.71 60.575 3.7 11.867-13.149 23.473-23.257 26 3.65 44 3.373 34.264-39.75 39.35-44.373" transform="translate(10801.464 -10606.5)" style="stroke:#fd3f01;stroke-width:2px;fill:none"/>
    <path data-name="패스 15461" d="M-10424.688 10637.354c-7.014 10.4-21.284 37.832-36.854 38.055-18 .258-32.4-12.506-44-3.13s-14.225 16-23.473 21.576-34.681 12.44-60.575-3.432-43.8-25.867-78.147-15.015-55.581-20.718-78.7-22c-20.855-1.163-48.392 15.129-53.333 18.177.021 0 0 95.631 0 95.631h375.085z" transform="translate(10801.464 -10604.713)" style="fill:url(#w3arg37ula)"/>
    <g data-name="icon_goal_yellow" style="fill:#fdbf2e">
        <path d="M8.563 21.257a60.497 60.497 0 0 1-4.009-4.67C1.902 13.136.5 10.363.5 8.567.5 4.118 4.118.5 8.566.5c4.447 0 8.065 3.618 8.065 8.066 0 1.798-1.408 4.579-4.073 8.041a60.29 60.29 0 0 1-3.995 4.65z" style="stroke:none" transform="translate(152.77 39.904)"/>
        <path d="M8.566 1C4.394 1 1 4.394 1 8.566c0 1.653 1.392 4.378 3.918 7.675a60.252 60.252 0 0 0 3.645 4.289 59.553 59.553 0 0 0 3.627-4.265c2.542-3.309 3.941-6.043 3.941-7.7C16.131 4.395 12.737 1 8.566 1m0-1a8.566 8.566 0 0 1 8.565 8.566c0 4.73-8.571 13.43-8.565 13.405C8.559 21.996 0 13.296 0 8.566A8.566 8.566 0 0 1 8.566 0z" style="fill:#000;stroke:none" transform="translate(152.77 39.904)"/>
    </g>
    <g data-name="icon_goal_blue" style="fill:#3e7ad3">
        <path d="M8.563 21.257a60.497 60.497 0 0 1-4.009-4.67C1.902 13.136.5 10.363.5 8.567.5 4.118 4.118.5 8.566.5c4.447 0 8.065 3.618 8.065 8.066 0 1.798-1.408 4.579-4.073 8.041a60.29 60.29 0 0 1-3.995 4.65z" style="stroke:none" transform="translate(192.161 50.889)"/>
        <path d="M8.566 1C4.394 1 1 4.394 1 8.566c0 1.653 1.392 4.378 3.918 7.675a60.252 60.252 0 0 0 3.645 4.289 59.553 59.553 0 0 0 3.627-4.265c2.542-3.309 3.941-6.043 3.941-7.7C16.131 4.395 12.737 1 8.566 1m0-1a8.566 8.566 0 0 1 8.565 8.566c0 4.73-8.571 13.43-8.565 13.405C8.559 21.996 0 13.296 0 8.566A8.566 8.566 0 0 1 8.566 0z" style="fill:#000;stroke:none" transform="translate(192.161 50.889)"/>
    </g>
    <g data-name="icon_goal_green" style="fill:#2e9875">
        <path d="M8.563 21.257a60.497 60.497 0 0 1-4.009-4.67C1.902 13.136.5 10.363.5 8.567.5 4.118 4.118.5 8.566.5c4.447 0 8.065 3.618 8.065 8.066 0 1.798-1.408 4.579-4.073 8.041a60.29 60.29 0 0 1-3.995 4.65z" style="stroke:none" transform="translate(47.204 20.5)"/>
        <path d="M8.566 1C4.394 1 1 4.394 1 8.566c0 1.653 1.392 4.378 3.918 7.675a60.252 60.252 0 0 0 3.645 4.289 59.553 59.553 0 0 0 3.627-4.265c2.542-3.309 3.941-6.043 3.941-7.7C16.131 4.395 12.737 1 8.566 1m0-1a8.566 8.566 0 0 1 8.565 8.566c0 4.73-8.571 13.43-8.565 13.405C8.559 21.996 0 13.296 0 8.566A8.566 8.566 0 0 1 8.566 0z" style="fill:#000;stroke:none" transform="translate(47.204 20.5)"/>
    </g>
</svg>
