<svg xmlns="http://www.w3.org/2000/svg" width="295.76" height="101.227" viewBox="0 0 295.76 101.227">
    <g data-name="그룹 28019">
        <g data-name="그룹 28012">
            <g data-name="그룹 28010">
                <path data-name="패스 14829" d="M668.36 977.124v6.215c0 1.883-2.176 3.772-6.552 5.233-8.752 2.921-23.036 3.045-32.185.313-.15-.045-.3-.091-.446-.137-4.636-1.459-6.964-3.4-6.967-5.344v-6.215c0 1.945 2.331 3.885 6.967 5.344q.221.07.446.137c9.149 2.732 23.433 2.609 32.185-.313 4.377-1.457 6.555-3.349 6.552-5.233z" transform="translate(-616.903 -892.005)" style="fill:#fff"/>
                <path data-name="패스 14830" d="M28.298 99.207a56.874 56.874 0 0 1-15.672-2c-.152-.045-.3-.091-.451-.138-4.646-1.462-7.206-3.477-7.209-5.674V85.18a.355.355 0 0 1 .346-.346.346.346 0 0 1 .346.345c0 1.843 2.454 3.671 6.725 5.015.146.046.293.091.441.135 9.037 2.7 23.381 2.56 31.976-.31 4.016-1.341 6.318-3.128 6.315-4.9a.346.346 0 0 1 .345-.346.346.346 0 0 1 .346.345v6.212c0 2.124-2.408 4.1-6.788 5.561a55.319 55.319 0 0 1-16.72 2.316zM5.651 87.119v4.28c0 1.842 2.454 3.67 6.725 5.014.146.046.293.091.441.135 9.037 2.7 23.381 2.559 31.976-.31 4.016-1.34 6.318-3.128 6.315-4.9v-4.281c-1.005 1.372-3.086 2.62-6.1 3.626-8.857 2.956-23.086 3.1-32.393.316-.152-.045-.3-.091-.451-.138-3.232-1.023-5.457-2.312-6.513-3.742z"/>
            </g>
            <g data-name="그룹 28011">
                <path data-name="패스 14831" d="M660.945 957.555c.151.045.3.09.448.137 9.125 2.872 9.312 7.607.416 10.577-8.752 2.922-23.035 3.045-32.185.313-.15-.045-.3-.09-.446-.137-9.125-2.872-9.311-7.608-.415-10.577 8.751-2.921 23.037-3.045 32.182-.313z" transform="translate(-616.903 -877.918)" style="fill:#fff"/>
                <path data-name="패스 14832" d="M28.293 92.991a56.887 56.887 0 0 1-15.672-2c-.152-.045-.3-.091-.451-.138-4.63-1.457-7.19-3.465-7.209-5.654-.018-2.132 2.392-4.114 6.788-5.581 8.856-2.956 23.083-3.1 32.391-.317.153.045.3.091.452.138 4.63 1.457 7.191 3.465 7.21 5.654.018 2.132-2.392 4.114-6.788 5.581a55.334 55.334 0 0 1-16.721 2.317zm.2-14.958a55.016 55.016 0 0 0-16.522 2.245c-4.029 1.345-6.331 3.138-6.315 4.919.016 1.837 2.467 3.659 6.725 5 .146.046.293.091.441.135 9.037 2.7 23.381 2.559 31.976-.309 4.029-1.345 6.331-3.138 6.315-4.919-.016-1.837-2.468-3.66-6.726-5a25.527 25.527 0 0 0-.442-.135 56.408 56.408 0 0 0-15.454-1.936z"/>
            </g>
        </g>
        <g data-name="그룹 28015">
            <g data-name="그룹 28013">
                <path data-name="패스 14833" d="M654.012 955.9v6.215c0 1.883-2.176 3.772-6.552 5.233-8.752 2.921-23.035 3.045-32.185.313-.15-.045-.3-.091-.446-.137-4.636-1.459-6.964-3.4-6.967-5.344v-6.215c0 1.945 2.332 3.885 6.967 5.344q.221.069.446.137c9.15 2.732 23.433 2.609 32.185-.313 4.376-1.465 6.554-3.354 6.552-5.233z" transform="translate(-607.516 -878.119)" style="fill:#fff"/>
                <path data-name="패스 14834" d="M23.338 91.865a56.909 56.909 0 0 1-15.672-2l-.451-.138C2.57 88.265.009 86.25.006 84.053v-6.215a.346.346 0 0 1 .345-.346.346.346 0 0 1 .346.345c0 1.843 2.454 3.671 6.725 5.015.146.046.293.091.441.135 9.036 2.7 23.381 2.559 31.976-.31 4.016-1.34 6.318-3.128 6.315-4.9a.345.345 0 0 1 .345-.346.346.346 0 0 1 .346.345v6.212c0 2.124-2.408 4.1-6.788 5.561a55.32 55.32 0 0 1-16.719 2.316zM.695 79.777v4.28c0 1.842 2.454 3.67 6.725 5.014.146.046.292.091.441.135 9.036 2.7 23.381 2.56 31.976-.31 4.016-1.341 6.318-3.128 6.315-4.9v-4.281c-1 1.372-3.086 2.62-6.1 3.626-8.857 2.956-23.086 3.1-32.393.316-.152-.045-.3-.091-.451-.138-3.238-1.023-5.463-2.311-6.515-3.742z"/>
            </g>
            <g data-name="그룹 28014">
                <path data-name="패스 14835" d="M646.6 936.326c.151.045.3.09.447.137 9.126 2.872 9.312 7.607.417 10.577-8.752 2.922-23.036 3.045-32.185.313-.15-.045-.3-.09-.446-.137-9.125-2.872-9.311-7.607-.415-10.577 8.747-2.921 23.029-3.045 32.182-.313z" transform="translate(-607.516 -864.031)" style="fill:#fff"/>
                <path data-name="패스 14836" d="M23.331 85.652a56.889 56.889 0 0 1-15.672-2c-.152-.045-.3-.091-.451-.138-4.63-1.457-7.19-3.465-7.209-5.653-.019-2.132 2.392-4.114 6.788-5.581 8.856-2.956 23.084-3.1 32.391-.317.153.046.3.092.452.139 4.63 1.457 7.191 3.465 7.21 5.654.019 2.132-2.392 4.114-6.788 5.581a55.32 55.32 0 0 1-16.721 2.315zm.2-14.959A55.013 55.013 0 0 0 7.01 72.939C2.981 74.284.679 76.077.695 77.858c.016 1.837 2.467 3.66 6.725 5 .146.046.293.091.441.135 9.036 2.7 23.381 2.559 31.976-.31 4.029-1.345 6.331-3.138 6.315-4.919-.016-1.837-2.467-3.659-6.726-5a46.172 46.172 0 0 0-.442-.136 56.41 56.41 0 0 0-15.456-1.938z"/>
            </g>
        </g>
        <g data-name="그룹 28018">
            <g data-name="그룹 28016">
                <path data-name="패스 14837" d="M50.649 68.818v6.215c0 1.883-2.176 3.772-6.552 5.233-8.752 2.921-23.035 3.045-32.185.313-.15-.045-.3-.09-.446-.137-4.636-1.459-6.964-3.4-6.967-5.344v-6.215c0 1.945 2.331 3.885 6.967 5.344l.446.137c9.149 2.732 23.433 2.609 32.185-.313 4.376-1.461 6.554-3.35 6.552-5.233z"/>
                <path data-name="패스 14838" d="M27.489 82.906a56.888 56.888 0 0 1-15.672-2c-.152-.045-.3-.091-.451-.138-4.646-1.462-7.206-3.477-7.209-5.673V68.88a.341.341 0 0 1 .346-.346.346.346 0 0 1 .346.345c0 1.843 2.453 3.67 6.725 5.015.146.046.293.091.441.135 9.037 2.7 23.381 2.559 31.976-.31 4.016-1.341 6.318-3.128 6.315-4.9a.346.346 0 0 1 .345-.346.346.346 0 0 1 .346.345v6.212c0 2.124-2.408 4.1-6.788 5.561a55.33 55.33 0 0 1-16.72 2.315zM4.846 70.818v4.28c0 1.842 2.454 3.67 6.725 5.015.146.046.293.091.441.135 9.037 2.7 23.381 2.559 31.976-.309 4.016-1.34 6.318-3.128 6.315-4.9v-4.281c-1 1.372-3.086 2.62-6.1 3.626-8.857 2.956-23.086 3.1-32.393.316l-.451-.138c-3.236-1.025-5.461-2.313-6.513-3.744z"/>
            </g>
            <g data-name="그룹 28017">
                <path data-name="패스 14839" d="M658.606 910.42c.151.045.3.09.448.137 9.126 2.872 9.312 7.607.416 10.577-8.752 2.922-23.036 3.045-32.185.313-.15-.045-.3-.09-.446-.137-9.125-2.872-9.311-7.607-.415-10.577 8.751-2.92 23.033-3.044 32.182-.313z" transform="translate(-615.373 -847.084)" style="fill:#fff"/>
                <path data-name="패스 14840" d="M27.481 76.691a56.9 56.9 0 0 1-15.672-2l-.451-.138c-4.63-1.457-7.19-3.465-7.209-5.654-.018-2.132 2.392-4.114 6.788-5.582 8.856-2.956 23.084-3.1 32.391-.316.153.045.3.091.452.139 4.631 1.457 7.191 3.465 7.21 5.653.018 2.132-2.392 4.114-6.788 5.581a55.335 55.335 0 0 1-16.721 2.317zm.2-14.958a55.028 55.028 0 0 0-16.522 2.245c-4.029 1.345-6.331 3.138-6.315 4.919.016 1.837 2.467 3.66 6.725 5 .146.046.293.091.441.135 9.037 2.7 23.381 2.559 31.976-.31 4.029-1.345 6.331-3.138 6.315-4.919-.016-1.837-2.467-3.66-6.726-5a25.527 25.527 0 0 0-.442-.135 56.408 56.408 0 0 0-15.452-1.936z"/>
            </g>
            <path data-name="패스 14841" d="m40.424 66.898.8.961-2.776.389a1.353 1.353 0 0 1 .137 1.568l-3.8.215a1.265 1.265 0 0 0-.1-1.562 1.778 1.778 0 0 0-.992-.561 4.153 4.153 0 0 0-1.472-.035 1.858 1.858 0 0 0-1.739 1.557c-.357 1.353-1.7 2.066-4.541 2.464a15.05 15.05 0 0 1-5.295-.131 6.133 6.133 0 0 1-1.989-.8l-3.218.451-.8-.961 3-.42a1.529 1.529 0 0 1-.025-1.857l3.935-.222a1.379 1.379 0 0 0-.039 1.822 2.037 2.037 0 0 0 1.129.625 4.445 4.445 0 0 0 1.606.043c1.2-.168 1.7-.588 1.883-1.424.266-1.208 1.25-2.145 4.311-2.573a14.325 14.325 0 0 1 5.079.125 6.331 6.331 0 0 1 1.91.745z"/>
        </g>
    </g>
    <g data-name="그룹 28038">
        <g data-name="그룹 28022">
            <g data-name="그룹 28020">
                <path data-name="패스 14842" d="M131.164 85.234v6.171c0 1.87-2.16 3.745-6.505 5.2-8.69 2.9-22.872 3.023-31.957.311-.149-.045-.3-.09-.443-.136-4.6-1.449-6.915-3.375-6.918-5.306v-6.171c0 1.931 2.315 3.858 6.918 5.306.146.046.293.091.443.136 9.085 2.712 23.267 2.59 31.957-.311 4.342-1.455 6.508-3.33 6.505-5.2z"/>
                <path data-name="패스 14843" d="M108.174 99.207a56.474 56.474 0 0 1-15.556-1.981c-.151-.045-.3-.091-.448-.137-4.605-1.45-7.143-3.445-7.147-5.618V85.3a.327.327 0 0 1 .327-.327.327.327 0 0 1 .327.327c0 1.837 2.44 3.658 6.689 4.995l.438.134c8.976 2.68 23.223 2.542 31.76-.308 3.994-1.333 6.284-3.114 6.282-4.884a.328.328 0 0 1 .327-.328.327.327 0 0 1 .327.327v6.171c0 2.1-2.387 4.057-6.729 5.506a54.928 54.928 0 0 1-16.597 2.294zm-22.5-12.036v4.3c0 1.837 2.441 3.658 6.689 4.994a28 28 0 0 0 .438.134c8.976 2.68 23.223 2.542 31.76-.308 3.995-1.333 6.284-3.114 6.282-4.884v-4.3c-.984 1.375-3.059 2.627-6.076 3.634-8.792 2.935-22.916 3.072-32.154.314-.151-.045-.3-.091-.448-.137-3.248-1.022-5.466-2.314-6.491-3.747z"/>
            </g>
            <g data-name="그룹 28021">
                <path data-name="패스 14844" d="M123.801 79.791c.15.045.3.09.444.136 9.061 2.852 9.246 7.554.413 10.5-8.69 2.9-22.872 3.023-31.957.311q-.224-.067-.443-.136c-9.06-2.852-9.245-7.554-.412-10.5 8.69-2.9 22.87-3.027 31.955-.311z"/>
                <path data-name="패스 14845" d="M108.164 93.035a56.481 56.481 0 0 1-15.556-1.981c-.151-.045-.3-.091-.448-.137-4.59-1.445-7.128-3.433-7.146-5.6-.018-2.109 2.372-4.072 6.729-5.526 8.791-2.934 22.914-3.072 32.152-.314.151.045.3.091.449.137 4.59 1.445 7.129 3.433 7.148 5.6.018 2.109-2.372 4.072-6.729 5.526a54.928 54.928 0 0 1-16.599 2.295zm.2-14.853a54.654 54.654 0 0 0-16.41 2.23c-4.007 1.338-6.3 3.124-6.282 4.9.016 1.832 2.454 3.647 6.689 4.98a28 28 0 0 0 .438.134c8.975 2.68 23.223 2.542 31.76-.307 4.007-1.338 6.3-3.124 6.282-4.9-.016-1.832-2.454-3.647-6.69-4.98-.145-.046-.291-.09-.44-.135a56.029 56.029 0 0 0-15.351-1.925z"/>
            </g>
        </g>
        <g data-name="그룹 28025">
            <g data-name="그룹 28023">
                <path data-name="패스 14846" d="M815.636 949.106v6.171c0 1.87-2.16 3.745-6.505 5.2-8.69 2.9-22.872 3.023-31.957.311-.15-.044-.3-.09-.443-.136-4.6-1.448-6.915-3.375-6.918-5.306v-6.171c0 1.932 2.315 3.858 6.918 5.307l.443.136c9.085 2.713 23.267 2.59 31.957-.311 4.345-1.456 6.508-3.331 6.505-5.201z" transform="translate(-683.205 -872.431)" style="fill:#fff"/>
                <path data-name="패스 14847" d="M109.436 90.647a56.476 56.476 0 0 1-15.556-1.981c-.151-.045-.3-.091-.447-.137-4.606-1.45-7.144-3.445-7.147-5.618V76.74a.328.328 0 0 1 .327-.328.327.327 0 0 1 .327.327c0 1.837 2.441 3.658 6.689 4.995l.438.134c8.976 2.68 23.223 2.542 31.76-.308 3.994-1.333 6.284-3.114 6.282-4.885a.327.327 0 0 1 .327-.328.327.327 0 0 1 .327.327v6.168c0 2.1-2.387 4.057-6.729 5.506a54.927 54.927 0 0 1-16.598 2.299zm-22.5-12.036v4.3c0 1.837 2.441 3.658 6.689 4.994a28 28 0 0 0 .438.134c8.975 2.68 23.223 2.542 31.76-.307 3.994-1.333 6.284-3.114 6.282-4.885v-4.3c-.984 1.375-3.059 2.627-6.076 3.634-8.792 2.935-22.916 3.072-32.154.314-.151-.045-.3-.091-.448-.137-3.242-1.017-5.459-2.317-6.49-3.746z"/>
            </g>
            <g data-name="그룹 28024">
                <path data-name="패스 14848" d="M808.274 928.458c.15.045.3.09.444.136 9.061 2.852 9.246 7.554.414 10.5-8.691 2.9-22.872 3.023-31.957.311-.15-.045-.3-.09-.443-.136-9.06-2.852-9.245-7.554-.412-10.5 8.688-2.9 22.869-3.023 31.954-.311z" transform="translate(-683.205 -857.226)" style="fill:#fff"/>
                <path data-name="패스 14849" d="M109.431 84.478a56.461 56.461 0 0 1-15.556-1.981c-.151-.045-.3-.091-.448-.137-4.59-1.445-7.128-3.433-7.146-5.6-.018-2.109 2.371-4.072 6.729-5.526 8.791-2.934 22.913-3.072 32.152-.314.151.045.3.091.449.137 4.591 1.445 7.129 3.433 7.148 5.6.018 2.109-2.372 4.072-6.729 5.526a54.916 54.916 0 0 1-16.599 2.295zm.2-14.853a54.64 54.64 0 0 0-16.41 2.231c-4.008 1.338-6.3 3.123-6.282 4.9.016 1.832 2.454 3.647 6.688 4.98a28 28 0 0 0 .438.134c8.975 2.68 23.223 2.542 31.76-.308 4.008-1.338 6.3-3.123 6.282-4.9-.016-1.832-2.454-3.647-6.69-4.98-.146-.046-.291-.09-.439-.134a56.034 56.034 0 0 0-15.351-1.924z"/>
            </g>
        </g>
        <g data-name="그룹 28028">
            <g data-name="그룹 28026">
                <path data-name="패스 14850" d="M804.539 922.746v6.171c0 1.87-2.16 3.745-6.505 5.2-8.69 2.9-22.872 3.023-31.957.311-.149-.045-.3-.09-.443-.136-4.6-1.448-6.915-3.375-6.918-5.306v-6.171c0 1.931 2.315 3.858 6.918 5.307l.443.136c9.085 2.713 23.267 2.59 31.957-.311 4.345-1.456 6.508-3.331 6.505-5.201z" transform="translate(-675.739 -854.696)" style="fill:#fff"/>
                <path data-name="패스 14851" d="M105.805 82.022a56.475 56.475 0 0 1-15.556-1.981c-.151-.045-.3-.091-.448-.137-4.605-1.449-7.143-3.445-7.147-5.618v-6.171a.327.327 0 0 1 .327-.328.327.327 0 0 1 .327.327c0 1.837 2.441 3.657 6.689 4.995.145.045.29.09.438.134 8.975 2.68 23.223 2.542 31.76-.308 3.995-1.333 6.284-3.114 6.282-4.884a.327.327 0 0 1 .327-.328.327.327 0 0 1 .327.327v6.171c0 2.1-2.387 4.056-6.729 5.506a54.924 54.924 0 0 1-16.597 2.295zm-22.5-12.036v4.3c0 1.837 2.441 3.657 6.689 4.995a28 28 0 0 0 .438.134c8.975 2.68 23.223 2.542 31.76-.308 3.995-1.333 6.284-3.114 6.282-4.885v-4.3c-.984 1.375-3.059 2.627-6.076 3.634-8.792 2.934-22.916 3.072-32.154.314-.151-.045-.3-.091-.448-.137-3.243-1.021-5.462-2.313-6.49-3.746z"/>
            </g>
            <g data-name="그룹 28027">
                <path data-name="패스 14852" d="M797.176 902.1c.15.045.3.09.444.136 9.061 2.852 9.246 7.554.413 10.5-8.69 2.9-22.872 3.023-31.957.311-.149-.045-.3-.09-.443-.136-9.06-2.852-9.245-7.554-.412-10.5 8.69-2.903 22.87-3.026 31.955-.311z" transform="translate(-675.739 -839.49)" style="fill:#fff"/>
                <path data-name="패스 14853" d="M105.8 75.851a56.465 56.465 0 0 1-15.556-1.981c-.151-.045-.3-.091-.448-.137-4.59-1.445-7.128-3.433-7.146-5.6-.018-2.109 2.372-4.072 6.729-5.526 8.791-2.934 22.914-3.072 32.152-.314.152.045.3.091.449.138 4.59 1.445 7.129 3.433 7.148 5.6.018 2.109-2.372 4.072-6.729 5.526a54.934 54.934 0 0 1-16.599 2.294zm.2-14.853a54.642 54.642 0 0 0-16.41 2.231c-4.008 1.338-6.3 3.124-6.282 4.9.016 1.832 2.454 3.647 6.689 4.98l.438.134c8.975 2.68 23.223 2.542 31.76-.308 4.007-1.338 6.3-3.123 6.282-4.9-.016-1.832-2.454-3.647-6.69-4.98-.145-.046-.291-.09-.44-.135a56.026 56.026 0 0 0-15.351-1.922z"/>
            </g>
        </g>
        <g data-name="그룹 28031">
            <g data-name="그룹 28029">
                <path data-name="패스 14854" d="M133.305 60.945v6.171c0 1.87-2.16 3.745-6.505 5.2-8.691 2.9-22.872 3.023-31.957.311-.149-.045-.3-.09-.443-.136-4.6-1.449-6.915-3.375-6.917-5.306v-6.171c0 1.931 2.315 3.858 6.918 5.306.147.047.293.091.443.136 9.085 2.712 23.267 2.59 31.957-.311 4.34-1.455 6.504-3.33 6.504-5.2z"/>
                <path data-name="패스 14855" d="M110.306 74.918a56.46 56.46 0 0 1-15.556-1.982c-.151-.045-.3-.091-.448-.137-4.605-1.45-7.143-3.445-7.146-5.618V61.01a.327.327 0 0 1 .327-.328.327.327 0 0 1 .327.327c0 1.837 2.441 3.658 6.689 4.995l.438.134c8.976 2.68 23.223 2.542 31.76-.308 3.995-1.333 6.284-3.114 6.282-4.884a.328.328 0 0 1 .327-.328.327.327 0 0 1 .327.327v6.168c0 2.1-2.387 4.057-6.729 5.506a54.924 54.924 0 0 1-16.598 2.299zm-22.5-12.036v4.3c0 1.837 2.44 3.657 6.689 4.994a28 28 0 0 0 .438.134c8.975 2.68 23.223 2.542 31.76-.308 3.995-1.333 6.284-3.114 6.282-4.885v-4.3c-.984 1.375-3.059 2.627-6.076 3.634-8.792 2.935-22.916 3.072-32.155.314-.151-.045-.3-.091-.447-.137-3.243-1.021-5.461-2.313-6.49-3.746z"/>
            </g>
            <g data-name="그룹 28030">
                <path data-name="패스 14856" d="M810.933 880.382c.15.045.3.09.444.136 9.061 2.852 9.246 7.554.413 10.5-8.69 2.9-22.872 3.023-31.957.311-.149-.045-.3-.09-.443-.136-9.06-2.852-9.245-7.554-.412-10.5 8.69-2.9 22.871-3.023 31.955-.311z" transform="translate(-684.995 -824.88)" style="fill:#fff"/>
                <path data-name="패스 14857" d="M110.301 68.746a56.476 56.476 0 0 1-15.557-1.981c-.151-.045-.3-.091-.447-.137-4.59-1.445-7.128-3.433-7.147-5.6-.018-2.109 2.372-4.072 6.729-5.526 8.791-2.934 22.914-3.072 32.152-.314.151.045.3.091.449.137 4.59 1.445 7.129 3.433 7.148 5.6.018 2.109-2.372 4.072-6.729 5.526a54.927 54.927 0 0 1-16.598 2.295zm.2-14.853a54.653 54.653 0 0 0-16.41 2.231c-4.007 1.338-6.3 3.124-6.282 4.9.016 1.832 2.454 3.647 6.689 4.98l.438.134c8.976 2.68 23.223 2.542 31.76-.308 4.007-1.338 6.3-3.124 6.282-4.9-.016-1.832-2.454-3.647-6.69-4.98-.146-.046-.291-.09-.439-.135a56.03 56.03 0 0 0-15.352-1.922z"/>
            </g>
        </g>
        <g data-name="그룹 28034">
            <g data-name="그룹 28032">
                <path data-name="패스 14858" d="M802.023 879.52v6.171c0 1.87-2.16 3.745-6.505 5.2-8.69 2.9-22.872 3.023-31.957.311-.149-.045-.3-.09-.443-.136-4.6-1.449-6.915-3.375-6.918-5.307v-6.171c0 1.931 2.315 3.857 6.918 5.306l.443.136c9.085 2.713 23.267 2.59 31.957-.311 4.345-1.454 6.508-3.329 6.505-5.199z" transform="translate(-674.046 -825.613)" style="fill:#fff"/>
                <path data-name="패스 14859" d="M104.982 67.88a56.451 56.451 0 0 1-15.556-1.981c-.151-.045-.3-.091-.447-.137-4.606-1.45-7.144-3.445-7.147-5.618v-6.171a.327.327 0 0 1 .327-.328.327.327 0 0 1 .327.327c0 1.837 2.441 3.658 6.689 4.995a28 28 0 0 0 .438.134c8.975 2.68 23.223 2.542 31.76-.308 3.994-1.334 6.284-3.114 6.282-4.885a.314.314 0 0 1 .327-.327.327.327 0 0 1 .327.327v6.171c0 2.1-2.387 4.057-6.729 5.506a54.927 54.927 0 0 1-16.598 2.295zm-22.5-12.036v4.3c0 1.837 2.441 3.657 6.689 4.995a28 28 0 0 0 .438.134c8.976 2.68 23.223 2.542 31.76-.308 3.995-1.333 6.284-3.114 6.282-4.884v-4.3c-.984 1.375-3.058 2.627-6.076 3.634-8.792 2.935-22.916 3.072-32.154.314q-.226-.067-.448-.137c-3.246-1.023-5.461-2.314-6.49-3.748z"/>
            </g>
            <g data-name="그룹 28033">
                <path data-name="패스 14860" d="M794.661 858.872c.15.045.3.09.444.136 9.061 2.852 9.246 7.554.414 10.5-8.69 2.9-22.873 3.023-31.957.311-.149-.045-.3-.09-.443-.136-9.06-2.852-9.245-7.553-.412-10.5 8.688-2.9 22.869-3.023 31.954-.311z" transform="translate(-674.046 -810.407)" style="fill:#fff"/>
                <path data-name="패스 14861" d="M104.977 61.708a56.461 56.461 0 0 1-15.556-1.981q-.226-.067-.448-.137c-4.59-1.445-7.128-3.433-7.147-5.6-.018-2.109 2.372-4.072 6.729-5.526 8.791-2.934 22.914-3.072 32.152-.314.151.045.3.091.448.138 4.591 1.445 7.129 3.433 7.148 5.6.018 2.109-2.372 4.071-6.729 5.526a54.926 54.926 0 0 1-16.597 2.294zm.2-14.853a54.64 54.64 0 0 0-16.41 2.231c-4.008 1.338-6.3 3.124-6.282 4.9.016 1.832 2.454 3.647 6.689 4.98.145.046.291.09.439.134 8.975 2.68 23.223 2.542 31.76-.307 4.007-1.338 6.3-3.124 6.282-4.9-.016-1.832-2.454-3.647-6.69-4.98a25.29 25.29 0 0 0-.44-.135 56.028 56.028 0 0 0-15.352-1.923z"/>
            </g>
        </g>
        <g data-name="그룹 28037">
            <g data-name="그룹 28035">
                <path data-name="패스 14862" d="M813.873 855.276v6.171c0 1.87-2.16 3.745-6.505 5.2-8.69 2.9-22.872 3.023-31.957.311-.149-.045-.3-.09-.443-.136-4.6-1.449-6.915-3.375-6.918-5.307v-6.171c0 1.932 2.315 3.858 6.918 5.307.146.046.293.091.443.136 9.084 2.713 23.267 2.59 31.957-.311 4.345-1.455 6.508-3.33 6.505-5.2z" transform="translate(-682.019 -809.302)" style="fill:#fff"/>
                <path data-name="패스 14863" d="M108.859 59.946a56.474 56.474 0 0 1-15.556-1.981c-.151-.045-.3-.091-.448-.137-4.605-1.45-7.143-3.445-7.146-5.618v-6.171a.32.32 0 0 1 .327-.328.327.327 0 0 1 .327.327c0 1.837 2.441 3.657 6.689 4.995.145.046.291.09.438.135 8.975 2.68 23.223 2.542 31.76-.308 3.995-1.334 6.284-3.114 6.282-4.885a.327.327 0 0 1 .327-.327.327.327 0 0 1 .327.327v6.171c0 2.1-2.387 4.056-6.729 5.506a54.923 54.923 0 0 1-16.598 2.294zm-22.5-12.036v4.3c0 1.837 2.44 3.658 6.689 4.995.145.045.29.09.438.134 8.976 2.68 23.223 2.542 31.76-.307 3.994-1.333 6.284-3.114 6.282-4.885v-4.3c-.984 1.375-3.059 2.626-6.076 3.634-8.792 2.934-22.916 3.072-32.154.314-.151-.045-.3-.091-.448-.137-3.243-1.022-5.461-2.314-6.49-3.747z"/>
            </g>
            <g data-name="그룹 28036">
                <path data-name="패스 14864" d="M806.51 834.627c.15.045.3.09.444.136 9.061 2.852 9.246 7.553.413 10.5-8.69 2.9-22.872 3.023-31.957.311-.15-.044-.3-.09-.443-.136-9.06-2.852-9.245-7.554-.412-10.5 8.69-2.9 22.871-3.023 31.955-.311z" transform="translate(-682.019 -794.096)" style="fill:#fff"/>
                <path data-name="패스 14865" d="M108.854 53.775a56.459 56.459 0 0 1-15.556-1.981c-.151-.045-.3-.091-.448-.137-4.59-1.445-7.128-3.433-7.147-5.6-.018-2.109 2.372-4.072 6.729-5.526 8.791-2.934 22.914-3.072 32.152-.314.151.045.3.091.449.138 4.59 1.445 7.129 3.433 7.148 5.6.018 2.109-2.372 4.071-6.729 5.526a54.924 54.924 0 0 1-16.598 2.294zm.2-14.853a54.641 54.641 0 0 0-16.41 2.23c-4.008 1.338-6.3 3.124-6.282 4.9.016 1.832 2.454 3.647 6.689 4.98l.438.134c8.975 2.68 23.223 2.542 31.76-.308 4.008-1.338 6.3-3.124 6.282-4.9-.016-1.832-2.454-3.647-6.69-4.98a22.885 22.885 0 0 0-.44-.135 56.027 56.027 0 0 0-15.347-1.921z"/>
            </g>
            <path data-name="패스 14866" d="m114.565 41.636-1.1.962a17.924 17.924 0 0 1 2.325.434 8.136 8.136 0 0 1 .989.328l-2.157 1.155c-.277-.1-.653-.251-1.211-.4a13.494 13.494 0 0 0-2.064-.369c-1.67-.18-2.558.068-2.909.374-.412.361.225.687 2.01 1.272 2.532.788 3.079 1.523 1.953 2.506s-3.679 1.628-6.884 1.528l-1.275 1.115-2.517-.272 1.186-1.038a19.894 19.894 0 0 1-2.529-.486 7.513 7.513 0 0 1-1.3-.454l2.232-1.2a9.572 9.572 0 0 0 1.53.541 14.414 14.414 0 0 0 2.186.4 4.935 4.935 0 0 0 3.241-.412c.474-.414-.048-.766-1.637-1.243-2.3-.69-3.55-1.439-2.339-2.5 1.1-.961 3.554-1.544 6.566-1.477l1.187-1.038z"/>
        </g>
    </g>
    <g data-name="그룹 28067">
        <g data-name="그룹 28066">
            <g data-name="그룹 28041">
                <g data-name="그룹 28039">
                    <path data-name="패스 14867" d="M965.855 974.98v6.016c0 1.823-2.106 3.651-6.341 5.064-8.471 2.828-22.3 2.947-31.151.3a27.238 27.238 0 0 1-.432-.132c-4.487-1.412-6.74-3.29-6.743-5.172v-6.016c0 1.882 2.256 3.76 6.743 5.173.143.045.286.089.432.132 8.856 2.644 22.68 2.525 31.151-.3 4.236-1.414 6.344-3.245 6.341-5.065z" transform="translate(-754.281 -889.394)" style="fill:#fff"/>
                    <path data-name="패스 14868" d="M189.159 99.206a55.035 55.035 0 0 1-15.164-1.932 24.83 24.83 0 0 1-.436-.134c-4.49-1.413-6.964-3.358-6.966-5.476v-6.015a.319.319 0 0 1 .318-.319.319.319 0 0 1 .319.318c0 1.791 2.379 3.566 6.52 4.869.141.044.283.088.427.131 8.749 2.612 22.637 2.478 30.959-.3 3.894-1.3 6.126-3.035 6.124-4.761a.319.319 0 0 1 .319-.32.319.319 0 0 1 .319.319v6.015c0 2.048-2.326 3.954-6.559 5.367a53.536 53.536 0 0 1-16.18 2.238zm-21.932-11.732v4.19c0 1.791 2.379 3.565 6.52 4.869.142.045.284.088.427.131 8.749 2.612 22.637 2.478 30.959-.3 3.894-1.3 6.126-3.036 6.123-4.762v-4.191c-.959 1.341-2.982 2.561-5.923 3.542-8.57 2.861-22.338 2.995-31.344.306a24.83 24.83 0 0 1-.436-.134c-3.16-.995-5.322-2.254-6.326-3.651z"/>
                </g>
                <g data-name="그룹 28040">
                    <path data-name="패스 14869" d="M958.678 954.283c.146.044.29.088.433.133 8.833 2.78 9.013 7.363.4 10.237-8.471 2.827-22.3 2.947-31.151.3a27.238 27.238 0 0 1-.432-.132c-8.831-2.78-9.012-7.363-.4-10.237 8.472-2.825 22.294-2.945 31.15-.301z" transform="translate(-754.28 -874.002)" style="fill:#fff"/>
                    <path data-name="패스 14870" d="M189.154 93.19a55.051 55.051 0 0 1-15.164-1.931 24.83 24.83 0 0 1-.436-.134c-4.474-1.408-6.948-3.346-6.966-5.457-.018-2.056 2.312-3.969 6.559-5.387 8.569-2.86 22.336-2.995 31.341-.306.148.044.292.088.437.134 4.475 1.408 6.949 3.346 6.968 5.457.018 2.056-2.311 3.969-6.559 5.387a53.54 53.54 0 0 1-16.18 2.237zm.191-14.48a53.274 53.274 0 0 0-16 2.174c-3.907 1.3-6.138 3.045-6.123 4.777.015 1.785 2.392 3.555 6.52 4.854.141.044.283.088.427.131 8.749 2.612 22.637 2.478 30.959-.3 3.906-1.3 6.138-3.045 6.123-4.776-.015-1.785-2.392-3.555-6.521-4.854a26.737 26.737 0 0 0-.428-.131 54.628 54.628 0 0 0-14.957-1.875z"/>
                </g>
            </g>
            <g data-name="그룹 28044">
                <g data-name="그룹 28042">
                    <path data-name="패스 14871" d="M213.964 78.027v6.015c0 1.823-2.106 3.651-6.341 5.065-8.471 2.828-22.3 2.947-31.151.3a27.238 27.238 0 0 1-.432-.132c-4.487-1.412-6.741-3.29-6.743-5.172v-6.016c0 1.883 2.257 3.76 6.743 5.173.143.045.286.089.432.132 8.856 2.644 22.68 2.525 31.151-.3 4.236-1.415 6.344-3.247 6.341-5.065z"/>
                    <path data-name="패스 14872" d="M191.549 91.647a55.052 55.052 0 0 1-15.164-1.931 24.83 24.83 0 0 1-.436-.134c-4.49-1.413-6.964-3.358-6.966-5.476v-6.015a.319.319 0 0 1 .319-.319.319.319 0 0 1 .319.319c0 1.791 2.379 3.565 6.52 4.869.141.044.283.088.427.131 8.749 2.613 22.637 2.478 30.959-.3 3.894-1.3 6.126-3.035 6.123-4.761a.319.319 0 0 1 .319-.319.319.319 0 0 1 .319.318v6.015c0 2.048-2.326 3.954-6.559 5.367a53.542 53.542 0 0 1-16.18 2.236zm-21.932-11.732v4.19c0 1.791 2.379 3.565 6.52 4.868.141.045.283.088.427.131 8.749 2.612 22.637 2.478 30.959-.3 3.894-1.3 6.126-3.035 6.123-4.761v-4.192c-.959 1.341-2.982 2.56-5.923 3.543-8.57 2.86-22.338 2.995-31.343.306a24.83 24.83 0 0 1-.436-.134c-3.161-.995-5.323-2.254-6.327-3.651z"/>
                </g>
                <g data-name="그룹 28043">
                    <path data-name="패스 14873" d="m966.17 930.584.433.133c8.833 2.78 9.013 7.363.4 10.237-8.471 2.827-22.3 2.947-31.151.3-.145-.044-.289-.087-.432-.132-8.831-2.78-9.012-7.363-.4-10.237 8.471-2.825 22.295-2.945 31.15-.301z" transform="translate(-759.383 -857.862)" style="fill:#fff"/>
                    <path data-name="패스 14874" d="M191.544 85.631A55.052 55.052 0 0 1 176.38 83.7a24.83 24.83 0 0 1-.436-.134c-4.474-1.408-6.948-3.346-6.966-5.457-.018-2.056 2.312-3.969 6.56-5.387 8.569-2.86 22.336-2.995 31.341-.306.148.044.292.089.437.134 4.475 1.408 6.949 3.346 6.967 5.457.018 2.056-2.311 3.969-6.559 5.387a53.541 53.541 0 0 1-16.18 2.237zm.191-14.478a53.264 53.264 0 0 0-16 2.174c-3.907 1.3-6.138 3.045-6.123 4.776.016 1.786 2.392 3.555 6.52 4.854.141.044.283.088.427.131 8.749 2.612 22.637 2.478 30.959-.3 3.906-1.3 6.138-3.045 6.123-4.776-.015-1.786-2.392-3.555-6.521-4.854a24.048 24.048 0 0 0-.429-.131 54.631 54.631 0 0 0-14.956-1.877z"/>
                </g>
            </g>
            <g data-name="그룹 28047">
                <g data-name="그룹 28045">
                    <path data-name="패스 14875" d="M962.743 930.548v6.016c0 1.823-2.106 3.65-6.341 5.065-8.471 2.827-22.3 2.947-31.151.3a24.384 24.384 0 0 1-.432-.132c-4.487-1.412-6.741-3.29-6.743-5.173v-6.015c0 1.882 2.257 3.76 6.743 5.172l.432.133c8.856 2.644 22.68 2.524 31.151-.3 4.236-1.414 6.344-3.243 6.341-5.066z" transform="translate(-752.161 -859.134)" style="fill:#fff"/>
                    <path data-name="패스 14876" d="M188.167 85.034a55.04 55.04 0 0 1-15.164-1.932 24.83 24.83 0 0 1-.436-.134c-4.489-1.413-6.963-3.358-6.966-5.476v-6.015a.319.319 0 0 1 .319-.319.319.319 0 0 1 .319.319c0 1.791 2.379 3.565 6.52 4.869.141.044.283.088.427.131 8.749 2.613 22.637 2.478 30.959-.3 3.894-1.3 6.126-3.035 6.123-4.761a.323.323 0 0 1 .319-.32.319.319 0 0 1 .319.319v6.015c0 2.048-2.326 3.954-6.559 5.367a53.539 53.539 0 0 1-16.18 2.237zm-21.932-11.732v4.19c0 1.791 2.379 3.565 6.52 4.868.141.045.283.088.427.131 8.749 2.612 22.637 2.478 30.959-.3 3.894-1.3 6.126-3.035 6.123-4.762v-4.191c-.959 1.341-2.982 2.561-5.923 3.542-8.57 2.861-22.338 2.995-31.343.306a24.83 24.83 0 0 1-.436-.134c-3.161-.994-5.323-2.253-6.327-3.65z"/>
                </g>
                <g data-name="그룹 28046">
                    <path data-name="패스 14877" d="m955.566 909.851.433.133c8.833 2.78 9.013 7.363.4 10.237-8.471 2.828-22.3 2.947-31.151.3a37.044 37.044 0 0 1-.432-.133c-8.831-2.78-9.012-7.363-.4-10.237 8.472-2.824 22.295-2.944 31.15-.3z" transform="translate(-752.161 -843.742)" style="fill:#fff"/>
                    <path data-name="패스 14878" d="M188.162 79.019a55.049 55.049 0 0 1-15.164-1.931 24.83 24.83 0 0 1-.436-.134c-4.474-1.408-6.948-3.346-6.967-5.457-.018-2.056 2.312-3.969 6.56-5.387 8.569-2.86 22.336-2.995 31.341-.306.148.044.292.088.437.134 4.475 1.408 6.949 3.346 6.967 5.457.018 2.056-2.312 3.969-6.559 5.387a53.536 53.536 0 0 1-16.179 2.237zm.191-14.478a53.271 53.271 0 0 0-16 2.174c-3.907 1.3-6.139 3.045-6.124 4.777.016 1.785 2.392 3.555 6.52 4.854.141.044.283.088.427.131 8.749 2.613 22.637 2.478 30.959-.3 3.906-1.3 6.138-3.045 6.123-4.776-.015-1.785-2.392-3.555-6.521-4.854a26.737 26.737 0 0 0-.428-.131 54.618 54.618 0 0 0-14.956-1.876z"/>
                </g>
            </g>
            <g data-name="그룹 28050">
                <g data-name="그룹 28048">
                    <path data-name="패스 14879" d="M968.5 903.133v6.016c0 1.823-2.106 3.65-6.341 5.064-8.471 2.827-22.3 2.947-31.151.3q-.218-.065-.432-.132c-4.487-1.412-6.741-3.29-6.743-5.172v-6.016c0 1.882 2.257 3.76 6.743 5.173.143.045.286.089.432.132 8.855 2.644 22.68 2.525 31.151-.3 4.236-1.414 6.341-3.242 6.341-5.065z" transform="translate(-756.082 -840.463)" style="fill:#fff"/>
                    <path data-name="패스 14880" d="M189.999 76.29a55.039 55.039 0 0 1-15.164-1.932 24.83 24.83 0 0 1-.436-.134c-4.489-1.413-6.963-3.358-6.966-5.476v-6.015a.319.319 0 0 1 .319-.319.319.319 0 0 1 .319.318c0 1.791 2.379 3.565 6.52 4.869.141.044.283.088.427.131 8.749 2.612 22.637 2.478 30.959-.3 3.894-1.3 6.126-3.035 6.123-4.761a.319.319 0 0 1 .319-.32.319.319 0 0 1 .319.319v6.015c0 2.048-2.327 3.954-6.559 5.367a53.542 53.542 0 0 1-16.18 2.238zm-21.928-11.732v4.19c0 1.791 2.379 3.565 6.52 4.868.141.045.283.088.427.131 8.749 2.612 22.638 2.478 30.959-.3 3.894-1.3 6.125-3.035 6.123-4.762v-4.191c-.959 1.34-2.982 2.561-5.923 3.542-8.57 2.861-22.338 2.995-31.344.306q-.22-.066-.436-.134c-3.16-.99-5.322-2.253-6.326-3.65z"/>
                </g>
                <g data-name="그룹 28049">
                    <path data-name="패스 14881" d="m961.323 882.436.433.133c8.833 2.78 9.013 7.363.4 10.237-8.471 2.828-22.3 2.947-31.151.3a24.384 24.384 0 0 1-.432-.132c-8.831-2.78-9.012-7.363-.4-10.237 8.472-2.825 22.295-2.945 31.15-.301z" transform="translate(-756.082 -825.071)" style="fill:#fff"/>
                    <path data-name="패스 14882" d="M189.999 70.274a55.052 55.052 0 0 1-15.164-1.931q-.22-.066-.436-.134c-4.474-1.408-6.948-3.346-6.966-5.457-.018-2.056 2.312-3.969 6.559-5.387 8.569-2.86 22.336-2.995 31.341-.306.148.044.292.088.437.134 4.475 1.409 6.949 3.346 6.967 5.457.018 2.056-2.312 3.969-6.559 5.387a53.541 53.541 0 0 1-16.179 2.237zm.191-14.478a53.273 53.273 0 0 0-16 2.174c-3.906 1.3-6.138 3.045-6.123 4.777.016 1.786 2.392 3.555 6.52 4.854.141.044.283.088.427.131 8.749 2.612 22.637 2.478 30.959-.3 3.906-1.3 6.138-3.045 6.123-4.776-.016-1.786-2.392-3.555-6.521-4.854a26.737 26.737 0 0 0-.428-.131 54.616 54.616 0 0 0-14.958-1.875z"/>
                </g>
            </g>
            <g data-name="그룹 28053">
                <g data-name="그룹 28051">
                    <path data-name="패스 14883" d="M965.564 879.915v6.016c0 1.823-2.106 3.65-6.341 5.065-8.471 2.827-22.3 2.947-31.151.3a27.238 27.238 0 0 1-.432-.132c-4.487-1.412-6.74-3.29-6.743-5.173v-6.015c0 1.883 2.256 3.76 6.743 5.172l.432.133c8.856 2.644 22.68 2.525 31.151-.3 4.236-1.415 6.344-3.243 6.341-5.066z" transform="translate(-754.082 -824.65)" style="fill:#fff"/>
                    <path data-name="패스 14884" d="M189.067 68.885a55.041 55.041 0 0 1-15.164-1.931 24.83 24.83 0 0 1-.436-.134c-4.489-1.413-6.963-3.358-6.966-5.476v-6.015a.319.319 0 0 1 .319-.319.319.319 0 0 1 .319.319c0 1.791 2.379 3.565 6.52 4.869.141.044.283.088.427.131 8.749 2.613 22.637 2.478 30.959-.3 3.894-1.3 6.125-3.035 6.123-4.761a.319.319 0 0 1 .319-.32.319.319 0 0 1 .319.319v6.015c0 2.048-2.327 3.954-6.559 5.367a53.541 53.541 0 0 1-16.18 2.236zm-21.932-11.732v4.19c0 1.791 2.379 3.565 6.52 4.869.141.045.283.088.427.131 8.749 2.612 22.637 2.478 30.959-.3 3.894-1.3 6.126-3.035 6.124-4.762V57.09c-.959 1.341-2.982 2.561-5.923 3.542-8.57 2.861-22.338 2.995-31.343.306a24.83 24.83 0 0 1-.436-.134c-3.164-.995-5.324-2.254-6.328-3.651z"/>
                </g>
                <g data-name="그룹 28052">
                    <path data-name="패스 14885" d="M958.387 859.218c.146.044.29.088.433.133 8.833 2.78 9.013 7.363.4 10.237-8.471 2.828-22.3 2.947-31.151.3a44.103 44.103 0 0 1-.432-.133c-8.831-2.78-9.012-7.363-.4-10.237 8.471-2.824 22.295-2.944 31.15-.3z" transform="translate(-754.082 -809.258)" style="fill:#fff"/>
                    <path data-name="패스 14886" d="M189.063 62.869a55.054 55.054 0 0 1-15.164-1.931 24.83 24.83 0 0 1-.436-.134c-4.474-1.408-6.948-3.346-6.966-5.457-.018-2.056 2.312-3.969 6.559-5.387 8.569-2.86 22.335-2.995 31.341-.306a28 28 0 0 1 .438.134c4.475 1.408 6.949 3.346 6.967 5.457.018 2.056-2.312 3.969-6.559 5.387a53.53 53.53 0 0 1-16.18 2.237zm.191-14.478a53.272 53.272 0 0 0-16 2.174c-3.907 1.3-6.139 3.045-6.124 4.777.015 1.786 2.392 3.555 6.52 4.854.141.044.283.088.427.131 8.749 2.613 22.637 2.478 30.959-.3 3.906-1.3 6.138-3.045 6.123-4.776-.016-1.786-2.392-3.555-6.521-4.854a26.737 26.737 0 0 0-.428-.131 54.618 54.618 0 0 0-14.957-1.875z"/>
                </g>
            </g>
            <g data-name="그룹 28056">
                <g data-name="그룹 28054">
                    <path data-name="패스 14887" d="M960.028 853.715v6.015c0 1.823-2.106 3.651-6.341 5.065-8.471 2.827-22.3 2.947-31.151.3a24.384 24.384 0 0 1-.432-.132c-4.487-1.412-6.74-3.29-6.743-5.172v-6.016c0 1.883 2.257 3.76 6.743 5.173.143.045.286.089.432.132 8.856 2.644 22.68 2.524 31.151-.3 4.235-1.415 6.343-3.242 6.341-5.065z" transform="translate(-750.311 -806.807)" style="fill:#fff"/>
                    <path data-name="패스 14888" d="M187.301 60.528a55.053 55.053 0 0 1-15.164-1.931 24.83 24.83 0 0 1-.436-.134c-4.49-1.413-6.963-3.358-6.966-5.476v-6.015a.319.319 0 0 1 .319-.319.319.319 0 0 1 .319.319c0 1.791 2.379 3.565 6.52 4.869.141.044.283.088.427.131 8.749 2.613 22.637 2.478 30.959-.3 3.894-1.3 6.126-3.035 6.123-4.761a.319.319 0 0 1 .319-.319.318.318 0 0 1 .319.318v6.012c0 2.048-2.326 3.954-6.559 5.367a53.538 53.538 0 0 1-16.18 2.239zm-21.932-11.733v4.19c0 1.791 2.379 3.565 6.52 4.869.142.045.284.088.427.131 8.749 2.612 22.637 2.478 30.959-.3 3.894-1.3 6.126-3.036 6.123-4.762v-4.191c-.959 1.341-2.982 2.561-5.923 3.542-8.57 2.861-22.338 2.995-31.344.306a24.83 24.83 0 0 1-.436-.134c-3.16-.994-5.326-2.253-6.326-3.651z"/>
                </g>
                <g data-name="그룹 28055">
                    <path data-name="패스 14889" d="M952.851 833.017c.146.044.29.088.433.133 8.833 2.78 9.013 7.363.4 10.237-8.471 2.828-22.3 2.947-31.151.3-.145-.044-.289-.087-.432-.132-8.831-2.78-9.012-7.363-.4-10.237 8.471-2.825 22.299-2.945 31.15-.301z" transform="translate(-750.311 -791.414)" style="fill:#fff"/>
                    <path data-name="패스 14890" d="M187.296 54.512a55.049 55.049 0 0 1-15.164-1.931q-.221-.066-.436-.134c-4.474-1.408-6.948-3.346-6.966-5.457-.018-2.056 2.312-3.969 6.559-5.387 8.569-2.86 22.336-2.995 31.341-.306.148.044.292.088.437.134 4.475 1.409 6.949 3.346 6.967 5.457.018 2.056-2.312 3.969-6.559 5.387a53.546 53.546 0 0 1-16.179 2.237zm.191-14.478a53.275 53.275 0 0 0-16 2.174c-3.906 1.3-6.138 3.045-6.123 4.777.015 1.786 2.392 3.555 6.52 4.854.141.044.283.088.427.131 8.749 2.613 22.637 2.478 30.959-.3 3.906-1.3 6.138-3.045 6.123-4.776-.015-1.786-2.392-3.555-6.521-4.854a26.737 26.737 0 0 0-.428-.131 54.63 54.63 0 0 0-14.957-1.875z"/>
                </g>
            </g>
            <g data-name="그룹 28059">
                <g data-name="그룹 28057">
                    <path data-name="패스 14891" d="M211.59 38.907v6.016c0 1.823-2.106 3.651-6.341 5.065-8.471 2.827-22.3 2.947-31.151.3q-.218-.065-.432-.132c-4.487-1.412-6.741-3.29-6.743-5.172v-6.016c0 1.883 2.257 3.76 6.743 5.173.143.045.286.089.432.132 8.855 2.644 22.68 2.524 31.151-.3 4.235-1.416 6.341-3.243 6.341-5.066z"/>
                    <path data-name="패스 14892" d="M189.171 52.527a55.056 55.056 0 0 1-15.164-1.931 24.83 24.83 0 0 1-.436-.134c-4.489-1.413-6.963-3.358-6.966-5.476v-6.015a.319.319 0 0 1 .319-.319.319.319 0 0 1 .319.319c0 1.791 2.379 3.565 6.52 4.869.141.044.283.088.427.131 8.749 2.612 22.637 2.478 30.959-.3 3.894-1.3 6.126-3.035 6.123-4.761a.319.319 0 0 1 .319-.319.319.319 0 0 1 .319.318v6.015c0 2.048-2.327 3.954-6.559 5.367a53.541 53.541 0 0 1-16.18 2.236zm-21.932-11.732v4.19c0 1.791 2.379 3.565 6.52 4.869.141.044.283.088.427.131 8.749 2.612 22.637 2.478 30.959-.3 3.894-1.3 6.125-3.035 6.123-4.761v-4.192c-.959 1.341-2.982 2.561-5.923 3.543-8.57 2.86-22.338 2.995-31.344.306a24.83 24.83 0 0 1-.436-.134c-3.157-.996-5.319-2.255-6.323-3.653z"/>
                </g>
                <g data-name="그룹 28058">
                    <path data-name="패스 14893" d="M958.722 807.93c.146.044.29.088.433.133 8.833 2.78 9.013 7.363.4 10.237-8.471 2.827-22.3 2.947-31.151.3-.146-.044-.289-.087-.432-.132-8.831-2.78-9.012-7.363-.4-10.237 8.472-2.825 22.295-2.945 31.15-.301z" transform="translate(-754.31 -774.328)" style="fill:#fff"/>
                    <path data-name="패스 14894" d="M189.171 46.512a55.054 55.054 0 0 1-15.164-1.931 24.83 24.83 0 0 1-.436-.134c-4.474-1.409-6.948-3.346-6.967-5.457-.018-2.056 2.312-3.969 6.559-5.387 8.569-2.86 22.336-2.995 31.341-.306.148.044.293.089.438.134 4.475 1.408 6.949 3.346 6.967 5.457.018 2.056-2.312 3.969-6.559 5.387a53.542 53.542 0 0 1-16.179 2.237zm.191-14.478a53.261 53.261 0 0 0-16 2.174c-3.907 1.3-6.139 3.045-6.124 4.776.015 1.785 2.392 3.555 6.52 4.854.141.044.283.088.427.131 8.749 2.612 22.637 2.478 30.959-.3 3.906-1.3 6.138-3.045 6.123-4.776-.015-1.786-2.392-3.555-6.521-4.854a24.048 24.048 0 0 0-.429-.131 54.625 54.625 0 0 0-14.957-1.875z"/>
                </g>
            </g>
            <g data-name="그룹 28062">
                <g data-name="그룹 28060">
                    <path data-name="패스 14895" d="M956.649 809.442v6.016c0 1.823-2.106 3.651-6.341 5.065-8.471 2.827-22.3 2.947-31.151.3a24.384 24.384 0 0 1-.432-.132c-4.487-1.412-6.741-3.29-6.743-5.172v-6.016c0 1.883 2.257 3.76 6.743 5.173l.432.132c8.856 2.644 22.68 2.524 31.151-.3 4.235-1.415 6.343-3.243 6.341-5.066z" transform="translate(-748.01 -776.655)" style="fill:#fff"/>
                    <path data-name="패스 14896" d="M186.223 46.408a55.05 55.05 0 0 1-15.164-1.931 24.83 24.83 0 0 1-.436-.134c-4.49-1.413-6.964-3.358-6.966-5.476v-6.015a.319.319 0 0 1 .319-.319.319.319 0 0 1 .319.319c0 1.791 2.379 3.565 6.52 4.869.141.044.283.088.427.131 8.749 2.612 22.637 2.478 30.959-.3 3.894-1.3 6.126-3.035 6.123-4.761a.32.32 0 0 1 .319-.32.314.314 0 0 1 .319.319v6.013c0 2.048-2.326 3.954-6.559 5.367a53.54 53.54 0 0 1-16.18 2.238zm-21.932-11.733v4.19c0 1.791 2.379 3.565 6.52 4.869.141.044.283.088.427.131 8.749 2.612 22.637 2.478 30.959-.3 3.894-1.3 6.126-3.035 6.123-4.761v-4.192c-.959 1.341-2.982 2.561-5.923 3.542-8.57 2.861-22.338 2.995-31.343.306a24.83 24.83 0 0 1-.436-.134c-3.161-.999-5.323-2.253-6.327-3.651z"/>
                </g>
                <g data-name="그룹 28061">
                    <path data-name="패스 14897" d="M949.471 788.745c.146.044.29.088.433.133 8.833 2.78 9.013 7.363.4 10.237-8.471 2.828-22.3 2.947-31.151.3l-.432-.132c-8.831-2.78-9.012-7.363-.4-10.237 8.472-2.825 22.295-2.946 31.15-.301z" transform="translate(-748.01 -761.263)" style="fill:#fff"/>
                    <path data-name="패스 14898" d="M186.218 40.391a55.051 55.051 0 0 1-15.164-1.931 24.83 24.83 0 0 1-.436-.134c-4.474-1.408-6.948-3.346-6.966-5.457-.018-2.056 2.312-3.969 6.559-5.387 8.569-2.86 22.336-2.995 31.341-.306.148.044.292.088.437.134 4.475 1.408 6.949 3.346 6.967 5.457.018 2.056-2.311 3.969-6.559 5.387a53.538 53.538 0 0 1-16.179 2.237zm.191-14.478a53.262 53.262 0 0 0-16 2.174c-3.906 1.3-6.138 3.045-6.123 4.776.015 1.786 2.392 3.555 6.52 4.854.141.044.283.088.427.131 8.749 2.612 22.637 2.478 30.959-.3 3.906-1.3 6.138-3.045 6.123-4.776-.015-1.786-2.392-3.555-6.521-4.854a26.737 26.737 0 0 0-.428-.131 54.62 54.62 0 0 0-14.957-1.874z"/>
                </g>
            </g>
            <g data-name="그룹 28065">
                <g data-name="그룹 28063">
                    <path data-name="패스 14899" d="M965.6 783.152v6.016c0 1.823-2.106 3.651-6.341 5.065-8.471 2.828-22.3 2.947-31.151.3a37.044 37.044 0 0 1-.432-.133c-4.487-1.412-6.741-3.29-6.743-5.172v-6.016c0 1.883 2.257 3.76 6.743 5.173.143.045.286.089.432.132 8.856 2.644 22.68 2.524 31.151-.3 4.232-1.417 6.341-3.242 6.341-5.065z" transform="translate(-754.104 -758.75)" style="fill:#fff"/>
                    <path data-name="패스 14900" d="M189.077 38.022a55.047 55.047 0 0 1-15.164-1.931 24.83 24.83 0 0 1-.436-.134c-4.49-1.413-6.964-3.358-6.967-5.476v-6.015a.32.32 0 0 1 .319-.32.319.319 0 0 1 .319.319c0 1.791 2.379 3.565 6.52 4.869.141.045.283.088.427.131 8.749 2.612 22.637 2.478 30.959-.3 3.894-1.3 6.126-3.035 6.123-4.762a.319.319 0 0 1 .319-.319.319.319 0 0 1 .319.318v6.013c0 2.048-2.326 3.954-6.559 5.367a53.541 53.541 0 0 1-16.179 2.24zM167.145 26.29v4.19c0 1.791 2.379 3.565 6.52 4.869.141.044.283.088.427.131 8.749 2.612 22.637 2.478 30.959-.3 3.894-1.3 6.126-3.035 6.123-4.761v-4.191c-.959 1.34-2.982 2.56-5.923 3.542-8.57 2.86-22.338 2.995-31.343.306a24.83 24.83 0 0 1-.436-.134c-3.161-.996-5.323-2.255-6.326-3.652z"/>
                </g>
                <g data-name="그룹 28064">
                    <path data-name="패스 14901" d="M958.419 762.454c.146.044.29.088.433.133 8.833 2.78 9.013 7.363.4 10.237-8.471 2.828-22.3 2.947-31.151.3a27.238 27.238 0 0 1-.432-.132c-8.831-2.78-9.012-7.363-.4-10.237 8.472-2.825 22.295-2.945 31.15-.301z" transform="translate(-754.104 -743.357)" style="fill:#fff"/>
                    <path data-name="패스 14902" d="M189.076 32.007a55.025 55.025 0 0 1-15.164-1.931 24.83 24.83 0 0 1-.436-.134c-4.474-1.408-6.948-3.346-6.966-5.457-.018-2.056 2.311-3.969 6.559-5.387 8.569-2.86 22.335-2.995 31.341-.307.148.044.292.089.437.134 4.475 1.408 6.949 3.346 6.968 5.457.018 2.056-2.311 3.969-6.559 5.387a53.538 53.538 0 0 1-16.18 2.238zm.191-14.478a53.262 53.262 0 0 0-16 2.174c-3.906 1.3-6.138 3.045-6.124 4.776.016 1.785 2.392 3.555 6.52 4.854.141.045.283.088.427.131 8.749 2.612 22.637 2.478 30.959-.3 3.907-1.3 6.138-3.045 6.123-4.776-.015-1.786-2.392-3.555-6.521-4.854a26.737 26.737 0 0 0-.428-.131 54.617 54.617 0 0 0-14.96-1.875z"/>
                </g>
            </g>
        </g>
        <path data-name="패스 14903" d="m194.036 20.444-.3 1.3a34.29 34.29 0 0 0-5.045.041c-2.183.184-2.723.544-2.557.845a.741.741 0 0 0 .468.256 23.555 23.555 0 0 0 4.083.329 23.461 23.461 0 0 1 5.04.52 2.569 2.569 0 0 1 1.691 1.018c.532.957-1.131 1.952-4.877 2.491l.611 1.1-3.3.277-.568-1.021a41.621 41.621 0 0 1-5.973.018l.31-1.342a36.119 36.119 0 0 0 5.842 0c1.917-.162 3.1-.508 2.859-.938a.946.946 0 0 0-.606-.342 17.391 17.391 0 0 0-3.48-.293 26.008 26.008 0 0 1-5.56-.541 2.475 2.475 0 0 1-1.584-.917c-.527-.946 1.147-1.862 4.617-2.39l-.568-1.021 3.294-.277.524.946a37.206 37.206 0 0 1 5.079-.059z"/>
    </g>
    <g data-name="그룹 28101">
        <g data-name="그룹 28070">
            <g data-name="그룹 28068">
                <path data-name="패스 14904" d="M1144.744 974.98v6.113c0 1.852-2.14 3.709-6.443 5.146-8.607 2.873-22.655 2.995-31.653.308a22.665 22.665 0 0 1-.438-.135c-4.559-1.435-6.849-3.343-6.852-5.256v-6.113c0 1.913 2.293 3.821 6.852 5.256.145.045.291.09.439.134 9 2.687 23.045 2.566 31.653-.307 4.298-1.436 6.444-3.293 6.442-5.146z" transform="translate(-851.742 -887.593)" style="fill:#fff"/>
                <path data-name="패스 14905" d="M270.226 101.227a55.924 55.924 0 0 1-15.408-1.963c-.149-.044-.3-.089-.443-.136-4.562-1.436-7.076-3.412-7.078-5.565v-6.112a.324.324 0 0 1 .324-.324.324.324 0 0 1 .324.323c0 1.82 2.417 3.623 6.625 4.948l.434.133c8.89 2.654 23 2.518 31.458-.3 3.957-1.321 6.224-3.084 6.222-4.838a.325.325 0 0 1 .324-.325.324.324 0 0 1 .324.324v6.112c0 2.081-2.364 4.018-6.665 5.454a54.4 54.4 0 0 1-16.441 2.269zm-22.285-11.921v4.258c0 1.819 2.417 3.623 6.625 4.947l.434.133c8.89 2.654 23 2.518 31.458-.3 3.956-1.321 6.224-3.084 6.222-4.838v-4.259c-.975 1.362-3.03 2.6-6.018 3.6-8.708 2.907-22.7 3.043-31.848.311-.149-.045-.3-.09-.443-.136-3.214-1.018-5.411-2.297-6.431-3.717z"/>
            </g>
            <g data-name="그룹 28069">
                <path data-name="패스 14906" d="M1137.451 954.313c.149.044.294.089.44.135 8.975 2.824 9.158 7.482.409 10.4-8.607 2.873-22.655 2.994-31.653.308a38.327 38.327 0 0 1-.439-.134c-8.974-2.825-9.157-7.482-.408-10.4 8.607-2.873 22.653-2.995 31.651-.309z" transform="translate(-851.742 -872.317)" style="fill:#fff"/>
                <path data-name="패스 14907" d="M270.221 95.114a55.94 55.94 0 0 1-15.408-1.962c-.149-.045-.3-.09-.443-.136-4.546-1.431-7.06-3.4-7.079-5.545-.018-2.089 2.349-4.033 6.665-5.474 8.707-2.906 22.7-3.043 31.846-.311.15.045.3.09.444.136 4.547 1.431 7.061 3.4 7.08 5.545.018 2.089-2.349 4.033-6.665 5.474a54.4 54.4 0 0 1-16.44 2.273zm.194-14.711a54.13 54.13 0 0 0-16.254 2.209c-3.969 1.325-6.237 3.094-6.222 4.854.016 1.814 2.43 3.612 6.625 4.932l.434.133c8.89 2.654 23 2.518 31.458-.3 3.969-1.325 6.237-3.094 6.222-4.853-.016-1.814-2.431-3.612-6.626-4.932l-.435-.134a55.511 55.511 0 0 0-15.202-1.909z"/>
            </g>
        </g>
        <g data-name="그룹 28073">
            <g data-name="그룹 28071">
                <path data-name="패스 14908" d="M295.431 79.708v6.112c0 1.852-2.14 3.709-6.443 5.146-8.608 2.873-22.655 2.994-31.653.308a25.172 25.172 0 0 1-.439-.135c-4.559-1.435-6.849-3.343-6.852-5.256V79.77c0 1.913 2.293 3.821 6.852 5.256.145.046.291.09.438.135 9 2.687 23.045 2.565 31.653-.308 4.307-1.436 6.446-3.293 6.444-5.145z"/>
                <path data-name="패스 14909" d="M272.655 93.547a55.938 55.938 0 0 1-15.408-1.962c-.149-.045-.3-.09-.443-.136-4.562-1.436-7.075-3.412-7.079-5.565v-6.112a.324.324 0 0 1 .324-.324.324.324 0 0 1 .324.324c0 1.819 2.417 3.623 6.625 4.947l.434.133c8.89 2.655 23 2.518 31.458-.3 3.957-1.321 6.224-3.084 6.222-4.838a.324.324 0 0 1 .324-.324.324.324 0 0 1 .324.323v6.112c0 2.081-2.364 4.018-6.665 5.454a54.4 54.4 0 0 1-16.44 2.268zM250.37 81.626v4.258c0 1.819 2.417 3.623 6.625 4.947.144.045.287.089.434.133 8.89 2.654 23 2.518 31.458-.3 3.957-1.321 6.224-3.084 6.222-4.838v-4.259c-.974 1.362-3.03 2.6-6.018 3.6-8.708 2.906-22.7 3.043-31.848.311-.149-.045-.3-.09-.443-.136-3.214-1.017-5.411-2.296-6.43-3.716z"/>
            </g>
            <g data-name="그룹 28072">
                <path data-name="패스 14910" d="M1144.944 930.614c.148.044.294.089.44.135 8.975 2.825 9.158 7.482.41 10.4-8.607 2.873-22.655 2.995-31.653.308a22.665 22.665 0 0 1-.438-.135c-8.974-2.825-9.157-7.482-.408-10.4 8.605-2.872 22.651-2.994 31.649-.308z" transform="translate(-856.806 -856.298)" style="fill:#fff"/>
                <path data-name="패스 14911" d="M272.65 87.434a55.936 55.936 0 0 1-15.408-1.962c-.149-.045-.3-.09-.443-.136-4.546-1.431-7.06-3.4-7.078-5.545-.018-2.089 2.349-4.033 6.665-5.474 8.707-2.906 22.7-3.043 31.846-.311.15.045.3.09.445.136 4.547 1.431 7.061 3.4 7.08 5.545.018 2.089-2.349 4.033-6.665 5.474a54.4 54.4 0 0 1-16.442 2.273zm.194-14.711a54.121 54.121 0 0 0-16.254 2.209c-3.969 1.325-6.237 3.094-6.222 4.853.016 1.814 2.43 3.612 6.625 4.932l.434.133c8.89 2.655 23 2.518 31.458-.3 3.969-1.325 6.237-3.094 6.222-4.853-.016-1.815-2.431-3.612-6.626-4.933l-.435-.134a55.507 55.507 0 0 0-15.202-1.907z"/>
            </g>
        </g>
        <g data-name="그룹 28076">
            <g data-name="그룹 28074">
                <path data-name="패스 14912" d="M1141.633 930.548v6.113c0 1.852-2.14 3.709-6.443 5.146-8.608 2.873-22.655 2.994-31.653.308a25.172 25.172 0 0 1-.439-.135c-4.559-1.435-6.849-3.343-6.852-5.256v-6.112c0 1.913 2.293 3.821 6.852 5.256q.217.069.438.135c9 2.686 23.045 2.565 31.653-.308 4.304-1.437 6.446-3.295 6.444-5.147z" transform="translate(-849.639 -857.561)" style="fill:#fff"/>
                <path data-name="패스 14913" d="M269.218 86.827a55.925 55.925 0 0 1-15.408-1.963c-.149-.044-.3-.09-.443-.136-4.562-1.436-7.075-3.412-7.079-5.565v-6.112a.324.324 0 0 1 .324-.324.324.324 0 0 1 .324.324c0 1.819 2.417 3.623 6.625 4.947l.434.133c8.89 2.655 23 2.518 31.458-.3 3.957-1.321 6.224-3.084 6.222-4.838a.324.324 0 1 1 .648 0v6.112c0 2.081-2.364 4.018-6.665 5.454a54.4 54.4 0 0 1-16.44 2.268zm-22.281-11.922v4.258c0 1.819 2.417 3.623 6.625 4.947l.434.133c8.89 2.654 23 2.518 31.458-.3 3.957-1.321 6.224-3.084 6.222-4.838v-4.259c-.975 1.362-3.03 2.6-6.018 3.6-8.708 2.907-22.7 3.043-31.848.311-.149-.045-.3-.09-.443-.136-3.218-1.017-5.415-2.296-6.43-3.716z"/>
            </g>
            <g data-name="그룹 28075">
                <path data-name="패스 14914" d="M1134.34 909.881c.148.044.294.089.44.135 8.975 2.825 9.158 7.482.41 10.4-8.607 2.873-22.655 2.994-31.653.308a25.172 25.172 0 0 1-.439-.135c-8.974-2.824-9.157-7.482-.408-10.4 8.61-2.872 22.652-2.989 31.65-.308z" transform="translate(-849.639 -842.285)" style="fill:#fff"/>
                <path data-name="패스 14915" d="M269.213 80.714a55.938 55.938 0 0 1-15.408-1.962c-.149-.045-.3-.09-.443-.136-4.546-1.431-7.06-3.4-7.078-5.545-.018-2.089 2.349-4.033 6.665-5.474 8.707-2.906 22.7-3.043 31.846-.311.15.045.3.09.445.136 4.547 1.431 7.061 3.4 7.08 5.545.018 2.089-2.349 4.033-6.665 5.474a54.4 54.4 0 0 1-16.442 2.273zm.194-14.712a54.132 54.132 0 0 0-16.254 2.209c-3.969 1.325-6.237 3.094-6.222 4.854.016 1.814 2.43 3.612 6.625 4.932l.434.133c8.89 2.655 23 2.518 31.458-.3 3.969-1.325 6.237-3.094 6.222-4.853-.016-1.814-2.431-3.612-6.626-4.932l-.435-.134a55.5 55.5 0 0 0-15.202-1.908z"/>
            </g>
        </g>
        <g data-name="그룹 28079">
            <g data-name="그룹 28077">
                <path data-name="패스 14916" d="M1147.389 903.133v6.113c0 1.853-2.14 3.709-6.443 5.146-8.608 2.873-22.655 2.995-31.653.308a25.172 25.172 0 0 1-.439-.135c-4.559-1.435-6.849-3.343-6.852-5.256v-6.113c0 1.913 2.293 3.821 6.852 5.256.145.045.291.09.439.134 9 2.687 23.045 2.565 31.653-.308 4.303-1.435 6.446-3.293 6.443-5.145z" transform="translate(-853.53 -839.03)" style="fill:#fff"/>
                <path data-name="패스 14917" d="M271.083 77.946a55.926 55.926 0 0 1-15.408-1.963c-.149-.044-.3-.09-.443-.136-4.562-1.436-7.076-3.412-7.079-5.565V64.17a.324.324 0 0 1 .324-.324.324.324 0 0 1 .324.323c0 1.82 2.417 3.623 6.625 4.948q.215.068.434.133c8.89 2.654 23 2.518 31.458-.3 3.957-1.321 6.224-3.084 6.222-4.838a.324.324 0 0 1 .324-.325.324.324 0 0 1 .324.324v6.112c0 2.081-2.364 4.018-6.665 5.454a54.4 54.4 0 0 1-16.44 2.269zm-22.285-11.921v4.258c0 1.819 2.417 3.623 6.625 4.947l.434.133c8.89 2.654 23 2.518 31.458-.3 3.957-1.321 6.224-3.084 6.222-4.838v-4.259c-.974 1.362-3.03 2.6-6.018 3.6-8.708 2.907-22.7 3.043-31.848.311-.149-.045-.3-.09-.443-.136-3.214-1.021-5.411-2.295-6.43-3.72z"/>
            </g>
            <g data-name="그룹 28078">
                <path data-name="패스 14918" d="M1140.1 882.466c.148.044.294.089.44.135 8.975 2.824 9.158 7.482.41 10.4-8.608 2.873-22.655 2.994-31.653.307a38.327 38.327 0 0 1-.439-.134c-8.974-2.825-9.157-7.482-.408-10.4 8.602-2.874 22.65-2.994 31.65-.308z" transform="translate(-853.53 -823.754)" style="fill:#fff"/>
                <path data-name="패스 14919" d="M271.078 71.83a55.937 55.937 0 0 1-15.408-1.962c-.149-.045-.3-.09-.443-.136-4.546-1.431-7.06-3.4-7.078-5.545-.018-2.089 2.349-4.033 6.665-5.474 8.707-2.906 22.7-3.043 31.846-.311.15.045.3.09.445.136 4.547 1.431 7.061 3.4 7.079 5.545.018 2.089-2.349 4.033-6.664 5.474a54.4 54.4 0 0 1-16.442 2.273zm.194-14.712a54.13 54.13 0 0 0-16.254 2.209c-3.969 1.325-6.237 3.094-6.222 4.854.016 1.814 2.43 3.612 6.625 4.932q.215.068.434.133c8.89 2.654 23 2.518 31.458-.3 3.969-1.325 6.237-3.094 6.222-4.853-.016-1.814-2.431-3.612-6.626-4.932-.144-.045-.288-.09-.435-.134a55.5 55.5 0 0 0-15.202-1.908z"/>
            </g>
        </g>
        <g data-name="그룹 28082">
            <g data-name="그룹 28080">
                <path data-name="패스 14920" d="M1144.453 879.915v6.113c0 1.853-2.14 3.709-6.443 5.146-8.607 2.873-22.655 2.994-31.653.307a38.327 38.327 0 0 1-.439-.134c-4.559-1.435-6.849-3.343-6.852-5.256v-6.112c0 1.913 2.293 3.821 6.852 5.256.145.046.291.09.439.135 9 2.686 23.045 2.565 31.653-.308 4.303-1.437 6.445-3.295 6.443-5.147z" transform="translate(-851.545 -823.337)" style="fill:#fff"/>
                <path data-name="패스 14921" d="M270.131 70.418a55.923 55.923 0 0 1-15.408-1.963c-.15-.044-.3-.089-.443-.136-4.562-1.436-7.076-3.412-7.079-5.565v-6.112a.324.324 0 0 1 .324-.324.324.324 0 0 1 .324.324c0 1.819 2.417 3.623 6.625 4.947l.434.133c8.89 2.655 23 2.518 31.458-.3 3.957-1.321 6.224-3.084 6.222-4.838a.324.324 0 0 1 .324-.325.324.324 0 0 1 .324.324v6.112c0 2.081-2.364 4.018-6.665 5.454a54.4 54.4 0 0 1-16.44 2.269zm-22.285-11.921v4.258c0 1.819 2.417 3.623 6.625 4.947l.434.133c8.89 2.654 23 2.518 31.458-.3 3.956-1.321 6.224-3.084 6.222-4.838v-4.259c-.975 1.362-3.03 2.6-6.018 3.6-8.708 2.907-22.7 3.043-31.848.311-.15-.045-.3-.09-.443-.136-3.213-1.017-5.41-2.297-6.429-3.717z"/>
            </g>
            <g data-name="그룹 28081">
                <path data-name="패스 14922" d="M1137.16 859.248c.148.044.294.089.44.135 8.975 2.824 9.158 7.482.41 10.4-8.608 2.873-22.655 2.994-31.653.308a25.172 25.172 0 0 1-.439-.135c-8.974-2.824-9.157-7.482-.408-10.4 8.606-2.872 22.652-2.994 31.65-.308z" transform="translate(-851.545 -808.061)" style="fill:#fff"/>
                <path data-name="패스 14923" d="M270.13 64.305a55.935 55.935 0 0 1-15.408-1.962c-.15-.045-.3-.09-.443-.136-4.546-1.431-7.06-3.4-7.078-5.545-.018-2.089 2.349-4.033 6.665-5.474 8.707-2.906 22.7-3.043 31.846-.311.15.045.3.09.444.136 4.547 1.431 7.061 3.4 7.08 5.545.018 2.089-2.349 4.033-6.665 5.473a54.391 54.391 0 0 1-16.441 2.274zm.194-14.712a54.132 54.132 0 0 0-16.254 2.209c-3.969 1.325-6.237 3.094-6.222 4.854.016 1.814 2.431 3.612 6.625 4.932l.434.133c8.89 2.655 23 2.518 31.458-.3 3.969-1.325 6.237-3.094 6.222-4.853-.016-1.815-2.431-3.612-6.626-4.933a37.618 37.618 0 0 0-.435-.133 55.5 55.5 0 0 0-15.206-1.908z"/>
            </g>
        </g>
        <g data-name="그룹 28085">
            <g data-name="그룹 28083">
                <path data-name="패스 14924" d="M1138.917 853.715v6.112c0 1.853-2.14 3.709-6.443 5.146-8.607 2.873-22.655 2.994-31.653.308q-.222-.066-.438-.135c-4.559-1.435-6.849-3.343-6.852-5.256v-6.113c0 1.913 2.293 3.821 6.852 5.256.145.046.291.09.439.135 9 2.687 23.045 2.565 31.653-.308 4.302-1.436 6.444-3.293 6.442-5.145z" transform="translate(-847.803 -805.628)" style="fill:#fff"/>
                <path data-name="패스 14925" d="M268.338 61.926a55.937 55.937 0 0 1-15.408-1.962c-.149-.045-.3-.09-.443-.136-4.562-1.436-7.075-3.412-7.078-5.565v-6.112a.324.324 0 0 1 .324-.324.324.324 0 0 1 .324.324c0 1.819 2.417 3.623 6.625 4.947l.434.133c8.89 2.655 23 2.518 31.457-.3 3.957-1.321 6.224-3.084 6.222-4.838a.324.324 0 0 1 .324-.324.324.324 0 0 1 .324.323v6.109c0 2.081-2.364 4.018-6.665 5.454a54.4 54.4 0 0 1-16.44 2.271zm-22.285-11.921v4.258c0 1.819 2.417 3.623 6.625 4.947l.434.133c8.89 2.654 23 2.518 31.457-.3 3.956-1.321 6.224-3.084 6.222-4.838v-4.259c-.974 1.362-3.03 2.6-6.018 3.6-8.708 2.907-22.7 3.043-31.848.311-.149-.045-.3-.09-.443-.136-3.209-1.017-5.409-2.296-6.429-3.716z"/>
            </g>
            <g data-name="그룹 28084">
                <path data-name="패스 14926" d="M1131.624 833.047c.149.044.294.089.44.135 8.975 2.825 9.158 7.482.409 10.4-8.607 2.873-22.655 2.995-31.653.308a25.172 25.172 0 0 1-.439-.135c-8.974-2.825-9.157-7.482-.408-10.4 8.607-2.872 22.653-2.994 31.651-.308z" transform="translate(-847.803 -790.352)" style="fill:#fff"/>
                <path data-name="패스 14927" d="M268.333 55.813a55.935 55.935 0 0 1-15.408-1.962c-.149-.045-.3-.09-.443-.136-4.546-1.431-7.06-3.4-7.079-5.545-.018-2.089 2.349-4.033 6.665-5.474 8.707-2.906 22.7-3.043 31.846-.311.15.045.3.09.444.136 4.547 1.431 7.061 3.4 7.08 5.545.018 2.089-2.349 4.033-6.665 5.474a54.4 54.4 0 0 1-16.44 2.273zm.194-14.711a54.131 54.131 0 0 0-16.254 2.209c-3.969 1.325-6.237 3.094-6.222 4.854.016 1.814 2.43 3.612 6.625 4.932l.434.133c8.89 2.655 23 2.518 31.457-.3 3.969-1.325 6.237-3.094 6.222-4.853-.016-1.815-2.431-3.612-6.626-4.933a37.618 37.618 0 0 0-.435-.133 55.5 55.5 0 0 0-15.201-1.909z"/>
            </g>
        </g>
        <g data-name="그룹 28088">
            <g data-name="그룹 28086">
                <path data-name="패스 14928" d="M293.017 39.956v6.112c0 1.852-2.14 3.71-6.443 5.146-8.608 2.873-22.655 2.994-31.653.308a38.327 38.327 0 0 1-.439-.134c-4.559-1.435-6.849-3.343-6.852-5.256v-6.113c0 1.913 2.293 3.821 6.852 5.256.145.046.291.09.439.135 9 2.687 23.045 2.565 31.653-.308 4.303-1.437 6.446-3.294 6.443-5.146z"/>
                <path data-name="패스 14929" d="M270.241 53.795a55.935 55.935 0 0 1-15.408-1.962c-.149-.045-.3-.09-.443-.136-4.562-1.436-7.075-3.412-7.079-5.565V40.02a.324.324 0 0 1 .324-.324.324.324 0 0 1 .324.324c0 1.819 2.417 3.623 6.625 4.947.144.045.287.089.434.133 8.89 2.655 23 2.518 31.458-.3 3.957-1.321 6.224-3.084 6.222-4.838a.324.324 0 0 1 .324-.324.324.324 0 0 1 .324.323v6.112c0 2.081-2.364 4.018-6.665 5.454a54.4 54.4 0 0 1-16.44 2.268zm-22.285-11.921v4.258c0 1.819 2.417 3.623 6.625 4.947l.434.133c8.89 2.654 23 2.518 31.458-.3 3.957-1.321 6.224-3.084 6.222-4.838v-4.259c-.974 1.362-3.03 2.6-6.018 3.6-8.708 2.906-22.7 3.043-31.848.311-.149-.045-.3-.09-.443-.136-3.214-1.017-5.411-2.296-6.43-3.716z"/>
            </g>
            <g data-name="그룹 28087">
                <path data-name="패스 14930" d="M1137.5 807.96c.148.044.294.089.44.135 8.975 2.825 9.158 7.482.41 10.4-8.608 2.873-22.655 2.995-31.653.308a25.172 25.172 0 0 1-.439-.135c-8.974-2.825-9.157-7.482-.408-10.4 8.601-2.868 22.65-2.994 31.65-.308z" transform="translate(-851.771 -773.395)" style="fill:#fff"/>
                <path data-name="패스 14931" d="M270.236 47.683a55.937 55.937 0 0 1-15.408-1.962c-.149-.045-.3-.09-.443-.136-4.546-1.431-7.06-3.4-7.078-5.545-.018-2.089 2.349-4.033 6.665-5.474 8.707-2.906 22.7-3.043 31.846-.311.15.045.3.09.444.136 4.547 1.431 7.061 3.4 7.08 5.545.018 2.089-2.349 4.033-6.665 5.474a54.406 54.406 0 0 1-16.441 2.273zm.194-14.711a54.12 54.12 0 0 0-16.254 2.209c-3.969 1.325-6.237 3.094-6.222 4.853.016 1.814 2.43 3.612 6.625 4.932.144.045.287.089.434.133 8.89 2.655 23 2.518 31.458-.3 3.969-1.325 6.237-3.094 6.222-4.853-.016-1.815-2.431-3.612-6.626-4.933l-.435-.134a55.509 55.509 0 0 0-15.203-1.907z"/>
            </g>
        </g>
        <g data-name="그룹 28091">
            <g data-name="그룹 28089">
                <path data-name="패스 14932" d="M1135.538 809.442v6.113c0 1.852-2.14 3.71-6.444 5.146-8.608 2.873-22.655 2.994-31.653.308a38.327 38.327 0 0 1-.439-.134c-4.559-1.435-6.849-3.343-6.852-5.256v-6.113c0 1.913 2.293 3.821 6.852 5.256l.438.135c9 2.686 23.045 2.565 31.653-.308 4.307-1.438 6.447-3.295 6.445-5.147z" transform="translate(-845.519 -775.703)" style="fill:#fff"/>
                <path data-name="패스 14933" d="M267.243 47.579a55.937 55.937 0 0 1-15.408-1.962c-.149-.045-.3-.09-.443-.136-4.562-1.436-7.075-3.412-7.078-5.565v-6.112a.324.324 0 0 1 .324-.324.324.324 0 0 1 .324.324c0 1.819 2.417 3.623 6.625 4.947l.434.133c8.89 2.654 23 2.517 31.458-.3 3.957-1.321 6.224-3.084 6.222-4.838a.324.324 0 0 1 .324-.325.319.319 0 0 1 .324.324v6.109c0 2.081-2.364 4.018-6.664 5.454a54.4 54.4 0 0 1-16.442 2.271zm-22.286-11.921v4.258c0 1.819 2.417 3.623 6.625 4.947l.434.133c8.89 2.654 23 2.518 31.458-.3 3.957-1.321 6.224-3.084 6.222-4.838v-4.259c-.974 1.362-3.03 2.6-6.018 3.6-8.708 2.907-22.7 3.043-31.848.311-.149-.045-.3-.09-.443-.136-3.213-1.017-5.41-2.3-6.43-3.716z"/>
            </g>
            <g data-name="그룹 28090">
                <path data-name="패스 14934" d="M1128.245 788.775c.149.044.294.089.44.135 8.975 2.825 9.158 7.482.409 10.4-8.607 2.873-22.655 2.994-31.653.308l-.438-.134c-8.974-2.825-9.157-7.482-.408-10.4 8.605-2.873 22.652-2.995 31.65-.309z" transform="translate(-845.519 -760.427)" style="fill:#fff"/>
                <path data-name="패스 14935" d="M267.238 41.466a55.94 55.94 0 0 1-15.408-1.962c-.149-.045-.3-.09-.443-.136-4.546-1.431-7.06-3.4-7.078-5.545-.018-2.089 2.349-4.033 6.665-5.474 8.707-2.906 22.7-3.043 31.846-.311.15.045.3.09.444.136 4.547 1.431 7.061 3.4 7.08 5.545.018 2.089-2.349 4.033-6.665 5.474a54.4 54.4 0 0 1-16.441 2.273zm.194-14.711a54.116 54.116 0 0 0-16.254 2.209c-3.969 1.325-6.237 3.094-6.222 4.853.016 1.814 2.43 3.612 6.625 4.932l.434.133c8.89 2.654 23 2.517 31.458-.3 3.969-1.325 6.237-3.094 6.222-4.853-.016-1.815-2.431-3.612-6.626-4.933l-.435-.134a55.5 55.5 0 0 0-15.202-1.907z"/>
            </g>
        </g>
        <g data-name="그룹 28094">
            <g data-name="그룹 28092">
                <path data-name="패스 14936" d="M1144.486 783.152v6.112c0 1.852-2.14 3.709-6.443 5.146-8.608 2.873-22.655 2.994-31.653.308a25.172 25.172 0 0 1-.439-.135c-4.559-1.435-6.849-3.343-6.852-5.256v-6.113c0 1.913 2.293 3.821 6.852 5.256.145.046.291.09.438.135 9 2.687 23.046 2.565 31.653-.308 4.304-1.436 6.446-3.297 6.444-5.145z" transform="translate(-851.567 -757.934)" style="fill:#fff"/>
                <path data-name="패스 14937" d="M270.143 39.057a55.937 55.937 0 0 1-15.408-1.962c-.149-.045-.3-.09-.443-.136-4.562-1.436-7.075-3.412-7.078-5.565v-6.112a.324.324 0 0 1 .324-.325.324.324 0 0 1 .324.324c0 1.819 2.417 3.623 6.625 4.947l.434.133c8.89 2.654 23 2.517 31.458-.3 3.957-1.321 6.224-3.084 6.222-4.838a.324.324 0 0 1 .324-.324.324.324 0 0 1 .324.323v6.109c0 2.081-2.364 4.018-6.665 5.453a54.4 54.4 0 0 1-16.441 2.273zm-22.285-11.921v4.258c0 1.819 2.417 3.623 6.625 4.947l.434.133c8.89 2.654 23 2.518 31.457-.3 3.957-1.321 6.224-3.084 6.222-4.838v-4.259c-.974 1.362-3.03 2.6-6.018 3.6-8.708 2.906-22.7 3.043-31.848.311-.149-.045-.3-.09-.443-.136-3.213-1.017-5.41-2.296-6.429-3.716z"/>
            </g>
            <g data-name="그룹 28093">
                <path data-name="패스 14938" d="M1137.193 762.484c.148.044.294.089.44.135 8.975 2.825 9.158 7.482.409 10.4-8.607 2.873-22.655 2.995-31.653.308a25.054 25.054 0 0 1-.438-.135c-8.974-2.824-9.157-7.482-.408-10.4 8.606-2.872 22.652-2.992 31.65-.308z" transform="translate(-851.567 -742.657)" style="fill:#fff"/>
                <path data-name="패스 14939" d="M270.138 32.95a55.915 55.915 0 0 1-15.408-1.962c-.149-.045-.3-.09-.443-.136-4.546-1.431-7.06-3.4-7.078-5.545-.018-2.089 2.349-4.033 6.665-5.474 8.707-2.906 22.7-3.043 31.846-.311.15.045.3.09.444.136 4.547 1.431 7.061 3.4 7.08 5.545.018 2.089-2.349 4.033-6.665 5.474a54.4 54.4 0 0 1-16.441 2.273zm.194-14.711a54.12 54.12 0 0 0-16.254 2.209c-3.969 1.325-6.237 3.094-6.222 4.853.016 1.814 2.43 3.612 6.625 4.932l.434.133c8.89 2.654 23 2.518 31.458-.3 3.969-1.325 6.237-3.094 6.222-4.853-.016-1.815-2.431-3.612-6.626-4.933a37.618 37.618 0 0 0-.435-.133 55.5 55.5 0 0 0-15.202-1.913z"/>
            </g>
        </g>
        <g data-name="그룹 28097">
            <g data-name="그룹 28095">
                <path data-name="패스 14940" d="M1136.32 755.354v6.112c0 1.852-2.14 3.709-6.443 5.146-8.608 2.873-22.655 2.994-31.653.308a38.327 38.327 0 0 1-.439-.134c-4.559-1.435-6.849-3.343-6.852-5.256v-6.113c0 1.913 2.293 3.821 6.852 5.256.145.046.291.09.439.134 9 2.687 23.045 2.565 31.653-.308 4.303-1.436 6.446-3.293 6.443-5.145z" transform="translate(-846.048 -739.145)" style="fill:#fff"/>
                <path data-name="패스 14941" d="M267.496 30.048a55.939 55.939 0 0 1-15.408-1.962c-.149-.045-.3-.09-.443-.136-4.562-1.436-7.076-3.412-7.079-5.565v-6.112a.324.324 0 0 1 .324-.324.324.324 0 0 1 .324.324c0 1.819 2.417 3.623 6.625 4.947.144.045.287.089.434.133 8.89 2.654 23 2.518 31.458-.3 3.957-1.321 6.224-3.084 6.222-4.838a.324.324 0 0 1 .324-.324.324.324 0 0 1 .324.323v6.113c0 2.081-2.364 4.018-6.665 5.453a54.4 54.4 0 0 1-16.44 2.268zm-22.285-11.917v4.258c0 1.819 2.417 3.623 6.625 4.947l.434.133c8.89 2.654 23 2.518 31.458-.3 3.956-1.321 6.224-3.084 6.222-4.838v-4.259c-.975 1.362-3.03 2.6-6.018 3.6-8.708 2.906-22.7 3.043-31.848.311-.149-.045-.3-.09-.443-.136-3.213-1.016-5.413-2.3-6.43-3.716z"/>
            </g>
            <g data-name="그룹 28096">
                <path data-name="패스 14942" d="M1129.027 734.686c.148.044.294.089.44.135 8.975 2.824 9.158 7.482.41 10.4-8.608 2.873-22.655 2.995-31.653.308a38.327 38.327 0 0 1-.439-.134c-8.974-2.825-9.157-7.482-.408-10.4 8.606-2.873 22.652-2.995 31.65-.309z" transform="translate(-846.048 -723.868)" style="fill:#fff"/>
                <path data-name="패스 14943" d="M267.491 23.938a55.923 55.923 0 0 1-15.408-1.962c-.149-.045-.3-.09-.443-.136-4.546-1.431-7.06-3.4-7.078-5.545-.018-2.089 2.349-4.033 6.665-5.474 8.707-2.906 22.7-3.043 31.846-.311.15.045.3.09.444.136 4.547 1.431 7.061 3.4 7.08 5.545.018 2.089-2.349 4.033-6.665 5.474a54.405 54.405 0 0 1-16.441 2.273zm.194-14.711a54.12 54.12 0 0 0-16.258 2.211c-3.969 1.325-6.237 3.094-6.222 4.853.016 1.814 2.43 3.612 6.625 4.932.144.045.287.089.434.133 8.89 2.654 23 2.518 31.458-.3 3.969-1.325 6.237-3.094 6.222-4.853-.016-1.814-2.431-3.612-6.626-4.933a37.618 37.618 0 0 0-.435-.133 55.5 55.5 0 0 0-15.199-1.913z"/>
            </g>
        </g>
        <g data-name="그룹 28100">
            <g data-name="그룹 28098">
                <path data-name="패스 14944" d="M291.964 7.663v6.113c0 1.852-2.14 3.709-6.443 5.146-8.608 2.873-22.655 2.995-31.653.308a38.327 38.327 0 0 1-.439-.134c-4.559-1.435-6.849-3.343-6.852-5.256V7.728c0 1.913 2.293 3.821 6.852 5.256.145.046.291.09.439.135 9 2.687 23.045 2.565 31.653-.308 4.304-1.439 6.446-3.296 6.443-5.148z"/>
                <path data-name="패스 14945" d="M269.188 21.502a55.914 55.914 0 0 1-15.408-1.962q-.224-.067-.443-.136c-4.562-1.436-7.076-3.412-7.079-5.565V7.726a.324.324 0 0 1 .324-.324.324.324 0 0 1 .324.323c0 1.82 2.417 3.623 6.625 4.947l.434.133c8.89 2.654 23 2.518 31.458-.3 3.957-1.321 6.224-3.084 6.222-4.838a.324.324 0 0 1 .324-.324.324.324 0 0 1 .324.324v6.113c0 2.081-2.364 4.018-6.665 5.454a54.4 54.4 0 0 1-16.44 2.268zM246.901 9.581v4.258c0 1.819 2.417 3.622 6.625 4.947l.434.133c8.89 2.654 23 2.517 31.458-.3 3.957-1.321 6.224-3.084 6.222-4.838V9.522c-.975 1.362-3.03 2.6-6.018 3.6-8.708 2.907-22.7 3.043-31.848.311-.149-.045-.3-.09-.443-.136-3.212-1.017-5.409-2.296-6.43-3.716z"/>
            </g>
            <g data-name="그룹 28099">
                <path data-name="패스 14946" d="M1134.246 708.317c.148.044.294.089.44.135 8.975 2.824 9.158 7.482.41 10.4-8.608 2.873-22.655 2.995-31.653.308a25.172 25.172 0 0 1-.439-.135c-8.974-2.824-9.157-7.482-.408-10.4 8.604-2.872 22.652-2.994 31.65-.308z" transform="translate(-849.575 -706.045)" style="fill:#fff"/>
                <path data-name="패스 14947" d="M269.183 15.39a55.933 55.933 0 0 1-15.408-1.962c-.149-.045-.3-.09-.443-.136-4.546-1.431-7.06-3.4-7.078-5.545-.018-2.089 2.349-4.033 6.665-5.474 8.707-2.906 22.7-3.043 31.846-.311.15.045.3.09.444.136 4.547 1.431 7.061 3.4 7.08 5.545.018 2.089-2.349 4.033-6.665 5.474a54.4 54.4 0 0 1-16.441 2.273zm.194-14.712a54.121 54.121 0 0 0-16.254 2.209c-3.969 1.325-6.237 3.094-6.222 4.853.016 1.814 2.43 3.612 6.625 4.932l.434.133c8.89 2.654 23 2.518 31.458-.3 3.969-1.325 6.237-3.094 6.222-4.853-.016-1.814-2.431-3.612-6.626-4.932-.144-.045-.288-.09-.435-.134A55.5 55.5 0 0 0 269.376.679z"/>
            </g>
            <path data-name="패스 14948" d="m274.413 3.815-.3 1.317a34.859 34.859 0 0 0-5.126.042c-2.218.187-2.767.553-2.6.859a.755.755 0 0 0 .475.26 23.93 23.93 0 0 0 4.148.334 23.791 23.791 0 0 1 5.121.528 2.609 2.609 0 0 1 1.719 1.034c.541.972-1.15 1.983-4.956 2.532l.621 1.114-3.349.282-.577-1.037a42.287 42.287 0 0 1-6.069.018l.315-1.364a36.712 36.712 0 0 0 5.936 0c1.948-.164 3.147-.516 2.905-.953a.961.961 0 0 0-.616-.347 17.621 17.621 0 0 0-3.536-.3 26.473 26.473 0 0 1-5.65-.55 2.515 2.515 0 0 1-1.609-.932c-.535-.961 1.165-1.892 4.692-2.429l-.577-1.037 3.347-.282.532.962a37.873 37.873 0 0 1 5.154-.051z"/>
        </g>
    </g>
</svg>
