<svg xmlns="http://www.w3.org/2000/svg" width="319.006" height="210.249" viewBox="0 0 319.006 210.249">
    <defs>
        <clipPath id="q9r243rnya">
            <path data-name="패스 15458" d="M-13106 14064.5s247.733-38.6 314.72-210.249c-.395-.066 0 210.249 0 210.249z" transform="translate(13106 -13854.251)" style="fill:none;stroke:#000"/>
        </clipPath>
    </defs>
    <path data-name="패스 15457" d="M-13106 14064.5s251.1-38.6 319-210.249c-.4-.066 0 210.249 0 210.249z" transform="translate(13106.001 -13854.251)" style="fill:#ffcebf"/>
    <g data-name="마스크 그룹 27045" transform="translate(4.285)" style="clip-path:url(#q9r243rnya)">
        <path data-name="패스 14951" d="m-13106 14065.343-.089-2c.139-.009 14.2-.92 36.293-3.433 20.392-2.319 51.991-6.516 86.734-13.337 61.316-12.039 144.362-34.734 191.782-74.489l.969 1.635a192.682 192.682 0 0 1-18.793 13.806c-6.533 4.241-13.71 8.406-21.332 12.38a392.062 392.062 0 0 1-48.21 20.8c-30 10.8-65.047 20.166-104.16 27.845-15.362 3.016-31.4 5.775-47.661 8.2a1136.804 1136.804 0 0 1-39.187 5.151c-22.125 2.52-36.207 3.432-36.346 3.442z" transform="translate(13106.013 -13854.251)" style="fill:#2e9875"/>
    </g>
</svg>
