<svg xmlns="http://www.w3.org/2000/svg" enable-background="new 0 0 24 24" viewBox="0 0 24 24" id="chinese-language"><path d="M20,5h-7V4c0-0.6-0.4-1-1-1s-1,0.4-1,1v1H4C3.4,5,3,5.4,3,6s0.4,1,1,1h11.9c-0.4,3-1.8,5.8-3.9,8c-1.5-1.5-2.6-3.3-3.3-5.3
	C8.5,9.1,7.9,8.9,7.4,9.1c-0.5,0.2-0.8,0.8-0.6,1.3c0.8,2.2,2,4.3,3.7,6c-1.7,1.3-3.7,2.3-5.8,2.7c-0.5,0.1-0.9,0.7-0.8,1.2
	C4,20.7,4.4,21,4.9,21C5,21,5,21,5.1,21c2.5-0.6,4.8-1.7,6.8-3.3c2,1.6,4.3,2.8,6.8,3.3c0.5,0.1,1.1-0.2,1.2-0.8
	c0.1-0.5-0.2-1.1-0.8-1.2c-2.1-0.5-4.1-1.4-5.8-2.7c2.4-2.5,4-5.8,4.5-9.3H20c0.6,0,1-0.4,1-1S20.6,5,20,5z"></path></svg>