<svg xmlns="http://www.w3.org/2000/svg" viewBox="0 0 48 48" id="language"><path d="M24.056 9.664a3.1 3.1 0 0 0-2.3-2.295 23.788 23.788 0 0 0-10.915 0 3.1 3.1 0 0 0-2.295 2.3 23.811 23.811 0 0 0 0 10.914 3.1 3.1 0 0 0 2.3 2.3 23.946 23.946 0 0 0 5.458.635 23.944 23.944 0 0 0 5.457-.635 3.1 3.1 0 0 0 2.3-2.3 23.784 23.784 0 0 0-.005-10.919Zm-.974 10.687a2.089 2.089 0 0 1-1.549 1.549 22.8 22.8 0 0 1-10.459 0 2.092 2.092 0 0 1-1.549-1.548 22.789 22.789 0 0 1 0-10.46 2.093 2.093 0 0 1 1.549-1.549 22.794 22.794 0 0 1 10.459 0 2.09 2.09 0 0 1 1.549 1.549 22.789 22.789 0 0 1 0 10.459ZM18.37 10.028h-3.984a.5.5 0 0 0 0 1h3.984a.447.447 0 0 1 .447.447v2.778a3.514 3.514 0 1 0 0 4.894v.341a.5.5 0 0 0 1 0v-8.013a1.448 1.448 0 0 0-1.447-1.447Zm-2.07 9.186a2.514 2.514 0 1 1 2.517-2.514 2.516 2.516 0 0 1-2.517 2.514Zm23.145 8.208a3.1 3.1 0 0 0-2.295-2.3 23.761 23.761 0 0 0-10.915 0 3.1 3.1 0 0 0-2.3 2.3 23.784 23.784 0 0 0 0 10.914 3.1 3.1 0 0 0 2.3 2.3 23.77 23.77 0 0 0 10.915 0 3.1 3.1 0 0 0 2.295-2.3 23.811 23.811 0 0 0 .004-10.914Zm-.974 10.687a2.093 2.093 0 0 1-1.549 1.549 22.812 22.812 0 0 1-10.459 0 2.09 2.09 0 0 1-1.549-1.549 22.789 22.789 0 0 1 0-10.46 2.089 2.089 0 0 1 1.553-1.549 22.757 22.757 0 0 1 10.459 0 2.092 2.092 0 0 1 1.549 1.548 22.789 22.789 0 0 1 0 10.461Zm-3.214-.926a.5.5 0 0 1-.757.653l-2.8-3.252-2.807 3.252a.5.5 0 1 1-.757-.653l2.9-3.364-1.3-1.5a.5.5 0 1 1 .757-.653l1.2 1.389 2.607-3.018h-5.4a.5.5 0 0 1 0-1h2.23v-.788a.5.5 0 0 1 1 0v.788h2.32a.931.931 0 0 1 .7 1.54l-2.8 3.242ZM33.682 9.311a.5.5 0 0 1 .69-.158 9.944 9.944 0 0 1 3.99 4.592.5.5 0 0 1-.267.655.513.513 0 0 1-.194.039.5.5 0 0 1-.461-.306A8.955 8.955 0 0 0 33.839 10a.5.5 0 0 1-.157-.689Zm-6.291 1.723c2.412 1.205 3.112 5.079 3.291 6.5h-1.667a.5.5 0 0 0-.353.853l4.438 4.446a.5.5 0 0 0 .707 0l4.441-4.442a.5.5 0 0 0-.353-.853h-1.73c-.368-6.992-8.444-7.447-8.528-7.451a.493.493 0 0 0-.507.373.5.5 0 0 0 .261.574Zm7.787 7a.5.5 0 0 0 .5.5h1.014l-3.235 3.234-3.235-3.234h1.014a.5.5 0 0 0 .5-.532c-.012-.206-.292-4.261-2.354-6.642 2.246.54 5.796 2.119 5.796 6.678Zm-18.406 21.73a.5.5 0 0 1-.47.329.491.491 0 0 1-.171-.031 12.379 12.379 0 0 1-3.806-2.169.5.5 0 0 1 .649-.762 11.37 11.37 0 0 0 3.5 1.992.5.5 0 0 1 .298.641Zm-5.1-3.923a.5.5 0 1 1-.5-.5.5.5 0 0 1 .501.5Zm8.936 1.125c-2.412-1.2-3.112-5.079-3.291-6.5h1.667a.5.5 0 0 0 .353-.853L14.9 25.167a.5.5 0 0 0-.707 0l-4.445 4.442a.5.5 0 0 0 .353.853h1.734c.368 6.992 8.444 7.447 8.528 7.451h.023a.5.5 0 0 0 .223-.948Zm-7.787-7a.5.5 0 0 0-.5-.5h-1.013l3.235-3.234 3.235 3.234h-1.014a.5.5 0 0 0-.5.532c.012.206.292 4.261 2.354 6.642-2.246-.54-5.796-2.119-5.796-6.678Z"></path></svg>