<svg xmlns="http://www.w3.org/2000/svg" viewBox="0 0 48 48" id="language"><path d="M41.048,17.415c-1.8-.775-8.172-1.131-13.045-.785-.421-3.152-1.334-5.064-3.025-6.308-2.3-1.691-16.015-.384-18.69,1.041C2.835,13.19,3.815,21.285,4.2,23.724a3.736,3.736,0,0,0,1.59,2.645,5.849,5.849,0,0,0,3.889.679c.758,3.082,1.22,4.653,1.225,4.669a.5.5,0,0,0,.48.358.5.5,0,0,0,.3-.1,25.792,25.792,0,0,0,4.3-5.017c.583-.041,2.135-.152,3.816-.3.021.866.07,1.8.15,2.822.194,2.463,2.057,4.025,4.983,4.181,2.439.129,6.657.091,7.714.078A25.818,25.818,0,0,0,37.329,38.4a.5.5,0,0,0,.758-.319c0-.017.337-1.619.844-4.755a5.836,5.836,0,0,0,3.826-.989,3.737,3.737,0,0,0,1.367-2.769C44.311,27.107,44.643,18.964,41.048,17.415ZM15.669,25.976a.5.5,0,0,0-.384.222,31.246,31.246,0,0,1-3.633,4.493c-.221-.8-.607-2.249-1.115-4.334a.5.5,0,0,0-.6-.369,5.325,5.325,0,0,1-3.6-.451,2.744,2.744,0,0,1-1.155-1.97c-.7-4.467-.712-10.113,1.571-11.32,2.625-1.4,15.766-2.489,17.628-1.119,1.465,1.076,2.236,2.725,2.621,5.585-2.222.213-4,.592-4.666,1.169-1.76,1.525-2.538,3.78-2.555,7.775C17.633,25.845,15.67,25.976,15.669,25.976ZM43.127,29.49a2.744,2.744,0,0,1-.99,2.06,5.322,5.322,0,0,1-3.551.738.5.5,0,0,0-.568.416c-.338,2.121-.606,3.595-.761,4.412a31.464,31.464,0,0,1-3.983-4.187.5.5,0,0,0-.393-.191h-.008c-.05,0-5.135.072-7.891-.074-2.413-.128-3.886-1.316-4.038-3.26-.553-7.006.375-9.313,2.051-10.766.563-.488,2.322-.815,4.535-1a.533.533,0,0,0,.1.009.489.489,0,0,0,.071-.023c4.627-.357,11.125-.084,12.953.7C43.028,19.357,43.47,24.983,43.127,29.49Zm-24.3-8.16a.5.5,0,0,1-.466.321.516.516,0,0,1-.18-.033,8.615,8.615,0,0,1-3.062-2.5,20.3,20.3,0,0,1-2.432,2.422.5.5,0,1,1-.617-.787A32.151,32.151,0,0,0,16.2,16.245c-.524.058-1.067.085-1.579.1h-.005c-1.194.028-2.2-.035-2.277-.04a.5.5,0,0,1-.465-.533.507.507,0,0,1,.533-.465c.015,0,.759.048,1.711.045v-.886a.5.5,0,0,1,1,0v.861a10.2,10.2,0,0,0,2.136-.283.5.5,0,0,1,.537.781c-.067.089-.927,1.236-2.015,2.529a7.972,7.972,0,0,0,2.759,2.333A.5.5,0,0,1,18.825,21.33Zm13.769-.278a.5.5,0,0,0-.916-.164c-2.736,4.423-2.483,7.5-2.472,7.632a.5.5,0,0,0,.5.452l.046,0a.5.5,0,0,0,.453-.542,8.435,8.435,0,0,1,.3-2.349l2.2-.27a7.836,7.836,0,0,0,1.309,3.057.49.49,0,0,0,.684-.082.511.511,0,0,0-.065-.7C34.166,27.677,33.213,24.118,32.594,21.052Zm-1.789,3.982a16.34,16.34,0,0,1,1.08-2.5c.149.679.337,1.489.548,2.3Z"></path></svg>